<?xml version="1.0" encoding="utf-8"?>
<!-- Generator: Adobe Illustrator 16.0.0, SVG Export Plug-In . SVG Version: 6.00 Build 0)  -->
<!DOCTYPE svg PUBLIC "-//W3C//DTD SVG 1.1//EN" "http://www.w3.org/Graphics/SVG/1.1/DTD/svg11.dtd">
<svg version="1.1" id="Layer_1" xmlns="http://www.w3.org/2000/svg" xmlns:xlink="http://www.w3.org/1999/xlink" x="0px" y="0px"
	 width="20px" height="20px" viewBox="0 0 20 20" enable-background="new 0 0 20 20" xml:space="preserve">
<path fill="#6F387A" d="M10,0C4.454,0,0,4.455,0,10c0,5.545,4.454,10,10,10c5.545,0,10-4.455,10-10C20,4.455,15.545,0,10,0z
	 M10,18.182c-4.545,0-8.182-3.636-8.182-8.182c0-4.545,3.636-8.182,8.182-8.182c4.546,0,8.182,3.636,8.182,8.182
	C18.182,14.546,14.546,18.182,10,18.182z M13.364,12.091c0.362,0.364,0.362,0.909,0,1.273c-0.183,0.182-0.455,0.272-0.637,0.272
	c-0.183,0-0.455-0.091-0.637-0.272l-2.728-2.728C9.182,10.454,9.091,10.272,9.091,10V4.545C9.091,4,9.454,3.636,10,3.636
	c0.545,0,0.909,0.364,0.909,0.909v5.091L13.364,12.091z"/>
</svg>
