<?xml version="1.0" encoding="utf-8"?>
<!-- Generator: Adobe Illustrator 16.0.0, SVG Export Plug-In . SVG Version: 6.00 Build 0)  -->
<!DOCTYPE svg PUBLIC "-//W3C//DTD SVG 1.1//EN" "http://www.w3.org/Graphics/SVG/1.1/DTD/svg11.dtd">
<svg version="1.1" id="Layer_1" xmlns="http://www.w3.org/2000/svg" xmlns:xlink="http://www.w3.org/1999/xlink" x="0px" y="0px"
	 width="20px" height="20px" viewBox="0 0 20 20" enable-background="new 0 0 20 20" xml:space="preserve">
<path fill="#6F387A" d="M13.5,12c0.916-0.917,1.5-2.167,1.5-3.583v-2.5c0-2.75-2.25-5-5-5s-5,2.25-5,5v2.5
	C5,9.833,5.583,11.083,6.5,12C2.667,12.583,0,14.167,0,15.917v1.667c0,1.417,1.083,2.5,2.5,2.5h15c1.417,0,2.5-1.083,2.5-2.5v-1.667
	C20,14.167,17.25,12.583,13.5,12z M6.667,8.417v-2.5c0-1.833,1.5-3.333,3.333-3.333c1.833,0,3.334,1.5,3.334,3.333v2.5
	c0,1.833-1.501,3.333-3.334,3.333C8.167,11.75,6.667,10.25,6.667,8.417z M18.333,17.584c0,0.5-0.333,0.833-0.833,0.833h-15
	c-0.5,0-0.833-0.333-0.833-0.833v-1.667c0-0.167,0.5-0.834,1.917-1.417c1.667-0.666,4-1.083,6.417-1.083
	c2.416,0,4.751,0.417,6.417,1.083c1.416,0.583,1.916,1.25,1.916,1.417V17.584z"/>
</svg>
