<?xml version="1.0" encoding="utf-8"?>
<!-- Generator: Adobe Illustrator 16.0.0, SVG Export Plug-In . SVG Version: 6.00 Build 0)  -->
<!DOCTYPE svg PUBLIC "-//W3C//DTD SVG 1.1//EN" "http://www.w3.org/Graphics/SVG/1.1/DTD/svg11.dtd">
<svg version="1.1" id="Layer_1" xmlns="http://www.w3.org/2000/svg" xmlns:xlink="http://www.w3.org/1999/xlink" x="0px" y="0px"
	 width="20px" height="20px" viewBox="0 0 20 20" enable-background="new 0 0 20 20" xml:space="preserve">
<path fill="#6F387A" d="M17.272,9.091h-1.818V5.455C15.454,2.455,13,0,10,0C7,0,4.545,2.455,4.545,5.455v3.636H2.727
	C1.182,9.091,0,10.272,0,11.818v5.454C0,18.818,1.182,20,2.727,20h14.545C18.817,20,20,18.818,20,17.272v-5.454
	C20,10.272,18.817,9.091,17.272,9.091z M6.364,5.455c0-2,1.636-3.636,3.636-3.636c1.999,0,3.637,1.636,3.637,3.636v3.636H6.364
	V5.455z M18.182,17.272c0,0.545-0.364,0.909-0.909,0.909H2.727c-0.546,0-0.909-0.364-0.909-0.909v-5.454
	c0-0.545,0.363-0.909,0.909-0.909h14.545c0.545,0,0.909,0.364,0.909,0.909V17.272z"/>
</svg>
