<?xml version="1.0" encoding="utf-8"?>
<!-- Generator: Adobe Illustrator 16.0.0, SVG Export Plug-In . SVG Version: 6.00 Build 0)  -->
<!DOCTYPE svg PUBLIC "-//W3C//DTD SVG 1.1//EN" "http://www.w3.org/Graphics/SVG/1.1/DTD/svg11.dtd">
<svg version="1.1" id="Layer_1" xmlns="http://www.w3.org/2000/svg" xmlns:xlink="http://www.w3.org/1999/xlink" x="0px" y="0px"
	 width="20px" height="20px" viewBox="0 0 20 20" enable-background="new 0 0 20 20" xml:space="preserve">
<path fill="#6F3779" d="M10.021,0.084c-5.488,0-9.938,4.45-9.938,9.937c0,5.489,4.45,9.937,9.938,9.937
	c5.488,0,9.938-4.448,9.938-9.937C19.958,4.534,15.509,0.084,10.021,0.084z M10.021,18.151c-4.491,0-8.131-3.64-8.131-8.13
	c0-4.49,3.64-8.13,8.131-8.13c4.49,0,8.13,3.641,8.13,8.13C18.15,14.512,14.511,18.151,10.021,18.151z M12.422,7.576L9.226,10.77
	L7.949,9.492c-0.354-0.352-0.925-0.352-1.278,0c-0.352,0.354-0.352,0.925,0,1.278l1.917,1.916c0.352,0.353,0.924,0.353,1.276,0
	l3.833-3.833c0.353-0.352,0.355-0.925,0-1.277C13.346,7.222,12.773,7.222,12.422,7.576z"/>
</svg>
