<?xml version="1.0" encoding="utf-8"?>
<!-- Generator: Adobe Illustrator 16.0.0, SVG Export Plug-In . SVG Version: 6.00 Build 0)  -->
<!DOCTYPE svg PUBLIC "-//W3C//DTD SVG 1.1//EN" "http://www.w3.org/Graphics/SVG/1.1/DTD/svg11.dtd">
<svg version="1.1" id="Layer_1" xmlns="http://www.w3.org/2000/svg" xmlns:xlink="http://www.w3.org/1999/xlink" x="0px" y="0px"
	 width="6px" height="9px" viewBox="0 0 6 9" enable-background="new 0 0 6 9" xml:space="preserve">
<g>
	<path fill="#FCFCFC" d="M5.072,4.265c0.13-0.13,0.34-0.13,0.469,0l0,0c0.132,0.129,0.132,0.34,0,0.471l-4.18,4.181
		c-0.129,0.13-0.34,0.13-0.471,0l0,0c-0.13-0.129-0.13-0.342,0-0.47L5.072,4.265z"/>
	<path fill="#FCFCFC" d="M5.541,4.265c0.132,0.129,0.132,0.34,0,0.471l0,0c-0.129,0.13-0.339,0.13-0.469,0L0.89,0.556
		c-0.13-0.13-0.13-0.342,0-0.473l0,0c0.13-0.13,0.341-0.128,0.471,0L5.541,4.265z"/>
</g>
</svg>
