<?xml version="1.0" encoding="utf-8"?>
<!-- Generator: Adobe Illustrator 16.0.0, SVG Export Plug-In . SVG Version: 6.00 Build 0)  -->
<!DOCTYPE svg PUBLIC "-//W3C//DTD SVG 1.1//EN" "http://www.w3.org/Graphics/SVG/1.1/DTD/svg11.dtd">
<svg version="1.1" id="Layer_1" xmlns="http://www.w3.org/2000/svg" xmlns:xlink="http://www.w3.org/1999/xlink" x="0px" y="0px"
	 width="9px" height="6px" viewBox="0 0 9 6" enable-background="new 0 0 9 6" xml:space="preserve">
<g>
	<path fill="#FFFFFF" d="M4.748,4.855c0.13,0.129,0.13,0.34,0,0.469l0,0c-0.128,0.132-0.34,0.132-0.47,0L0.097,1.145
		c-0.13-0.129-0.13-0.34,0-0.471l0,0c0.129-0.13,0.341-0.13,0.469,0L4.748,4.855z"/>
	<path fill="#FFFFFF" d="M4.748,5.324c-0.128,0.132-0.34,0.132-0.47,0l0,0c-0.13-0.129-0.13-0.34,0-0.469l4.179-4.184
		c0.13-0.13,0.342-0.13,0.473,0l0,0c0.131,0.13,0.129,0.341,0,0.471L4.748,5.324z"/>
</g>
</svg>
