<?xml version="1.0" encoding="utf-8"?>
<!-- Generator: Adobe Illustrator 16.0.0, SVG Export Plug-In . SVG Version: 6.00 Build 0)  -->
<!DOCTYPE svg PUBLIC "-//W3C//DTD SVG 1.1//EN" "http://www.w3.org/Graphics/SVG/1.1/DTD/svg11.dtd">
<svg version="1.1" id="Layer_1" xmlns="http://www.w3.org/2000/svg" xmlns:xlink="http://www.w3.org/1999/xlink" x="0px" y="0px"
	 width="85px" height="25px" viewBox="0 0 85 25" enable-background="new 0 0 85 25" xml:space="preserve">
<rect x="-5.343" y="-6.27" fill="#FFFFFF" width="95.686" height="37.539"/>
<g>
	<path fill="#234090" d="M17.335,0.188c3.453,0.013,7.022,0.831,10.688,2.467l0.173,0.074L28.258,2.9v0.014l0,0
		c0.297,0.902,0.557,1.809,0.768,2.711c0.211,0.905,0.384,1.808,0.508,2.713c0.172,1.189,0.273,2.366,0.298,3.555v1.386
		c-0.075,2.998-0.595,5.996-1.573,8.994l-0.063,0.173l-0.173,0.075c-3.469,1.534-6.947,2.292-10.417,2.292c-0.087,0-0.173,0-0.271,0
		V23.97c0.099,0,0.185,0,0.271,0c3.296,0,6.602-0.707,9.907-2.146c1.438-4.457,1.835-8.915,1.191-13.375
		c-0.124-0.867-0.297-1.758-0.509-2.638c-0.185-0.817-0.42-1.648-0.683-2.465c-3.504-1.535-6.897-2.304-10.179-2.317L17.335,0.188
		L17.335,0.188z M7.164,2.664c3.246-1.658,6.613-2.477,10.095-2.477c0.023,0,0.05,0,0.075,0v0.841c-0.025,0-0.052,0-0.075,0
		c-3.307,0-6.49,0.771-9.574,2.317C6.434,6.317,5.728,9.341,5.69,12.423c-0.049,3.06,0.583,6.192,1.98,9.392
		c3.222,1.398,6.44,2.114,9.663,2.153v0.844c-3.383-0.04-6.765-0.792-10.145-2.293l-0.224-0.21c-1.438-3.222-2.105-6.393-2.12-9.501
		v-0.223c0-0.063,0-0.111,0-0.172c0.038-3.234,0.794-6.417,2.12-9.538L7.164,2.664z"/>
	<path fill="#234090" d="M17.556,19.372c-0.174-2.365-0.062-4.828-0.768-7.084c-0.657-2.105-3.146-3.307-3.196-5.623
		c-0.051-1.808,1.325-3.901,3.901-3.901c2.415-0.012,3.914,1.747,4.088,3.703c0.211,2.267-2.54,3.79-3.258,5.946
		C17.582,14.617,17.792,17.056,17.556,19.372z"/>
	<path fill="#234090" d="M18.511,18.803c-0.101-2.055-0.101-4.025,0.472-5.771c0.631-1.981,1.942-3.654,3.949-4.198
		c1.375-0.372,3.394,1.238,3.072,2.886c-0.271,1.325-1.598,2.886-3.729,3.059c-0.991,0.088-1.411,0.88-2.03,1.338
		c2.773-0.271,4.57-1.36,5.821-2.501c0.185,0.966,0.31,2.589-0.447,3.146c-1.484,1.053-2.861,0.197-4.606,0.694
		C20.034,17.74,19.427,18.359,18.511,18.803z"/>
	<path fill="#234090" d="M16.616,18.803c0.109-2.055,0.099-4.025-0.46-5.771c-0.632-1.981-1.944-3.654-3.949-4.198
		c-1.377-0.372-3.408,1.238-3.074,2.886c0.272,1.325,1.598,2.886,3.728,3.059c0.979,0.088,1.415,0.88,2.032,1.338
		c-2.786-0.271-4.569-1.36-5.822-2.501c-0.185,0.966-0.309,2.589,0.447,3.146c1.486,1.053,2.861,0.197,4.608,0.694
		C15.103,17.74,15.698,18.359,16.616,18.803z"/>
	<path fill="#234090" d="M23.217,21.863v-0.335l0.247-0.063l-0.247-0.371v-0.619l1.114,1.549l-0.396,0.1l-0.272-0.384L23.217,21.863
		z M23.217,20.476v0.619l-0.174-0.247l-0.073,0.743l0.247-0.063v0.335l-0.285,0.062l-0.048,0.46l-0.397,0.097l0.259-2.017
		l0.399-0.101L23.217,20.476L23.217,20.476z M19.526,22.941v-0.323h0.087c0.135-0.013,0.222-0.023,0.259-0.036
		c0.049-0.013,0.101-0.049,0.124-0.087c0.038-0.049,0.049-0.1,0.049-0.162c-0.012-0.061-0.025-0.11-0.062-0.147
		c-0.025-0.038-0.075-0.062-0.124-0.074c-0.05-0.012-0.161-0.012-0.334,0v-0.323c0.099,0,0.16-0.012,0.185-0.012
		c0.062-0.014,0.113-0.049,0.149-0.087c0.036-0.036,0.049-0.086,0.036-0.148c0-0.062-0.023-0.111-0.061-0.136
		c-0.025-0.037-0.073-0.063-0.149-0.063c-0.025,0-0.073,0-0.16,0.013v-0.322c0.135-0.012,0.236-0.012,0.298,0
		c0.072,0,0.148,0.024,0.21,0.063c0.062,0.023,0.11,0.074,0.16,0.137c0.038,0.061,0.062,0.137,0.074,0.222
		c0.014,0.087-0.013,0.174-0.049,0.248c-0.035,0.076-0.098,0.137-0.185,0.188c0.124,0.023,0.223,0.074,0.285,0.147
		c0.074,0.075,0.11,0.161,0.122,0.273c0,0.086-0.012,0.172-0.037,0.26c-0.036,0.085-0.085,0.149-0.147,0.21
		c-0.073,0.049-0.149,0.087-0.248,0.111c-0.061,0.012-0.224,0.024-0.458,0.05H19.526L19.526,22.941z M21.867,21.899l0.384,0.051
		c-0.025,0.21-0.088,0.383-0.198,0.507c-0.112,0.112-0.273,0.196-0.471,0.235c-0.248,0.037-0.47-0.014-0.657-0.149
		c-0.196-0.148-0.31-0.357-0.372-0.654c-0.048-0.312-0.011-0.57,0.124-0.77c0.124-0.198,0.323-0.32,0.584-0.37
		c0.234-0.039,0.422,0,0.594,0.109c0.101,0.062,0.186,0.163,0.248,0.311l-0.358,0.149c-0.038-0.086-0.1-0.161-0.174-0.199
		c-0.088-0.049-0.175-0.062-0.273-0.049c-0.137,0.024-0.234,0.099-0.31,0.21c-0.075,0.125-0.085,0.285-0.049,0.508
		c0.049,0.236,0.124,0.397,0.222,0.484c0.101,0.087,0.226,0.123,0.358,0.098c0.102-0.024,0.176-0.073,0.236-0.147
		C21.817,22.147,21.854,22.036,21.867,21.899z M19.526,21.032v0.323c-0.051,0-0.1,0.013-0.161,0.013l-0.224,0.024l0.037,0.432
		l0.261-0.023c0.024,0,0.061,0,0.086-0.013v0.323c0,0,0,0-0.014,0l-0.297,0.023l0.039,0.509l0.271-0.025v0.323l-0.621,0.063
		l-0.173-1.896l0.756-0.063C19.501,21.032,19.514,21.032,19.526,21.032L19.526,21.032z M17.135,22.284v-0.32
		c0.086,0,0.136-0.014,0.174-0.025c0.049-0.014,0.087-0.049,0.124-0.088c0.023-0.049,0.036-0.098,0.036-0.148
		c0.014-0.074-0.013-0.123-0.049-0.172c-0.038-0.05-0.085-0.076-0.149-0.087c-0.036,0-0.075-0.013-0.136-0.013v-0.321
		c0.185,0,0.298,0.012,0.359,0.035c0.113,0.025,0.199,0.09,0.272,0.187c0.075,0.1,0.112,0.223,0.1,0.372
		c0,0.113-0.024,0.211-0.062,0.298c-0.049,0.073-0.1,0.136-0.161,0.187c-0.075,0.037-0.137,0.062-0.211,0.085
		C17.358,22.284,17.259,22.284,17.135,22.284z M17.135,21.108v0.321c-0.036,0-0.087,0-0.149,0l-0.185-0.013v0.546h0.198
		c0.049,0,0.1,0,0.136,0v0.321c-0.025,0-0.062,0-0.099,0h-0.248l-0.015,0.72l-0.383-0.014l0.038-1.896l0.607,0.015
		C17.073,21.108,17.109,21.108,17.135,21.108L17.135,21.108z M13.556,22.1v-0.582c0.11,0.023,0.185,0.023,0.222,0.023
		c0.051-0.013,0.088-0.023,0.124-0.062c0.024-0.037,0.051-0.075,0.062-0.137c0.015-0.063,0-0.11-0.023-0.16
		c-0.023-0.051-0.074-0.074-0.136-0.1c-0.026-0.013-0.112-0.025-0.248-0.051v-0.321l0.161,0.025
		c0.199,0.037,0.333,0.073,0.421,0.122c0.086,0.051,0.148,0.125,0.186,0.225c0.038,0.086,0.049,0.197,0.024,0.31
		c-0.024,0.136-0.086,0.248-0.185,0.321c-0.087,0.075-0.225,0.11-0.396,0.11c0.074,0.064,0.135,0.126,0.172,0.188
		c0.049,0.074,0.1,0.186,0.162,0.348l0.161,0.407l-0.444-0.086l-0.199-0.458C13.593,22.186,13.581,22.135,13.556,22.1L13.556,22.1z
		 M14.646,20.921l0.372,0.038l-0.087,1.028c-0.014,0.161-0.014,0.272-0.014,0.311c0.014,0.087,0.052,0.148,0.101,0.197
		c0.062,0.062,0.137,0.087,0.248,0.1c0.11,0.012,0.197-0.013,0.248-0.05c0.061-0.037,0.098-0.086,0.122-0.148
		c0.014-0.063,0.025-0.172,0.037-0.322l0.087-1.052l0.386,0.037l-0.088,0.99c-0.012,0.235-0.036,0.396-0.073,0.484
		c-0.025,0.086-0.075,0.173-0.125,0.223c-0.063,0.063-0.149,0.111-0.249,0.137c-0.086,0.036-0.21,0.036-0.358,0.023
		c-0.186-0.014-0.321-0.049-0.407-0.099c-0.087-0.05-0.163-0.111-0.21-0.173c-0.051-0.075-0.075-0.149-0.087-0.225
		c-0.015-0.11-0.015-0.272,0-0.482L14.646,20.921z M11.636,21.479l0.074-0.311l0.806,0.212l-0.197,0.73
		c-0.101,0.062-0.224,0.099-0.397,0.111c-0.16,0.013-0.309,0-0.459-0.037c-0.198-0.051-0.357-0.137-0.471-0.248
		c-0.123-0.123-0.196-0.272-0.235-0.436c-0.023-0.174-0.023-0.346,0.025-0.521c0.049-0.185,0.138-0.347,0.261-0.481
		c0.11-0.125,0.26-0.2,0.433-0.237c0.138-0.037,0.298-0.022,0.471,0.024c0.224,0.063,0.396,0.15,0.495,0.286
		c0.101,0.123,0.149,0.285,0.137,0.458l-0.385-0.023c0-0.1-0.023-0.186-0.086-0.259c-0.062-0.063-0.136-0.127-0.249-0.149
		c-0.159-0.038-0.297-0.026-0.421,0.048c-0.122,0.076-0.209,0.224-0.271,0.423c-0.062,0.223-0.051,0.396,0.012,0.531
		c0.075,0.137,0.186,0.223,0.334,0.26c0.087,0.025,0.161,0.025,0.249,0.025c0.086-0.013,0.161-0.038,0.236-0.063l0.061-0.234
		L11.636,21.479L11.636,21.479z M13.556,20.711L12.91,20.6l-0.321,1.871l0.373,0.063l0.136-0.78l0.085,0.012
		c0.088,0.014,0.149,0.037,0.188,0.051c0.038,0.021,0.062,0.061,0.1,0.098c0.013,0.039,0.05,0.101,0.086,0.188v-0.583
		c-0.036,0-0.074-0.016-0.124-0.016l-0.273-0.049l0.076-0.471l0.298,0.05c0.011,0,0.023,0,0.023,0V20.711L13.556,20.711z"/>
	<path fill="#234090" d="M72.588,18.397v-3.495h1.534V8.76l-1.534,3.071V4.163h6.03l1.536,17.661h-6.032v-3.428L72.588,18.397
		L72.588,18.397z M72.588,4.163v7.668l-1.537,3.071h1.537v3.494h-2.899l-1.19,3.243h-3.742v-4.038l4.178-9.005h-0.855l2.377-4.435
		L72.588,4.163L72.588,4.163z M64.756,10.047l1.873-4.435l-1.873-1.04V10.047z M49.883,8.352c0.087-0.509,0.087-1.004,0-1.477V8.352
		L49.883,8.352z M64.756,4.572v5.475l-0.244,0.595c-3.691-2.638-9.142-0.235-9.452,2.552c-0.309,2.91,1.909,5.264,7.568,3.503
		l-1.945,5.203c-7.469,0.83-10.366-2.13-10.801-5.584v-1.958c0.113-0.903,0.347-1.785,0.67-2.601
		c3.678-9.143,9.649-7.085,11.916-7.258l0.335-1.017L64.756,4.572L64.756,4.572z M64.756,17.603l-1.866,4.038h1.866V17.603z
		 M43.171,21.528c4-0.792,7.926-5.598,3.989-9.425c1.533-0.818,2.488-2.291,2.722-3.752V6.875c-0.272-1.521-1.448-2.762-3.664-2.798
		L43.17,4.017v3.393h1.265c1.349,0,1.175,3.493-0.509,3.493H43.17v2.674c1.82,0.347,1.176,2.875,0,3.655L43.171,21.528
		L43.171,21.528z M49.883,14.356v1.958C49.809,15.67,49.809,15.013,49.883,14.356z M37.894,3.903l-2.465,4.781l1.103-0.087
		L33.56,21.641h8.508c0.371,0,0.731-0.037,1.103-0.112v-4.297c-0.21,0.148-0.446,0.235-0.682,0.235H39.43l1.016-3.926h2.291
		c0.162,0,0.311,0.011,0.435,0.035v-2.674h-2.133l0.856-3.493h1.276V4.017L37.894,3.903z"/>
</g>
</svg>
