<?xml version="1.0" encoding="utf-8"?>
<!-- Generator: Adobe Illustrator 16.0.0, SVG Export Plug-In . SVG Version: 6.00 Build 0)  -->
<!DOCTYPE svg PUBLIC "-//W3C//DTD SVG 1.1//EN" "http://www.w3.org/Graphics/SVG/1.1/DTD/svg11.dtd">
<svg version="1.1" id="Layer_1" xmlns="http://www.w3.org/2000/svg" xmlns:xlink="http://www.w3.org/1999/xlink" x="0px" y="0px"
	 width="15px" height="15px" viewBox="0 0 15 15" enable-background="new 0 0 15 15" xml:space="preserve">
<g>
	<g>
		<path fill="#FFFFFF" d="M14.229,14.638c-0.15,0-0.303-0.058-0.418-0.173L0.354,1.008c-0.231-0.23-0.231-0.604,0-0.835
			c0.23-0.231,0.604-0.231,0.835,0L14.646,13.63c0.23,0.23,0.23,0.605,0,0.835C14.531,14.58,14.379,14.638,14.229,14.638z"/>
	</g>
	<g>
		<path fill="#FFFFFF" d="M0.772,14.638c-0.151,0-0.302-0.058-0.417-0.173c-0.231-0.229-0.231-0.604,0-0.835L13.811,0.173
			c0.23-0.231,0.605-0.231,0.836,0c0.23,0.23,0.23,0.604,0,0.835L1.189,14.465C1.074,14.58,0.923,14.638,0.772,14.638z"/>
	</g>
</g>
</svg>
