<?xml version="1.0" encoding="utf-8"?>
<!-- Generator: Adobe Illustrator 16.0.0, SVG Export Plug-In . SVG Version: 6.00 Build 0)  -->
<!DOCTYPE svg PUBLIC "-//W3C//DTD SVG 1.1//EN" "http://www.w3.org/Graphics/SVG/1.1/DTD/svg11.dtd">
<svg version="1.1" id="Layer_1" xmlns="http://www.w3.org/2000/svg" xmlns:xlink="http://www.w3.org/1999/xlink" x="0px" y="0px"
	 width="30px" height="30px" viewBox="0 0 30 30" enable-background="new 0 0 30 30" xml:space="preserve">
<g>
	<path fill="#6F3779" d="M1.85,3.213c-0.189,0.21-0.373,0.414-0.552,0.598c-0.53,0.55-0.811,1.485-0.811,2.705
		c0,3.583,2.36,9.603,7.638,14.979c3.23,3.23,6.998,5.709,10.609,6.982c3.311,1.166,6.001,1.148,7.198-0.049
		c0.24-0.242,0.544-0.506,0.863-0.785c1.212-1.055,2.716-2.363,2.716-4.047c0-1.066-0.617-2.104-1.835-3.082
		c-4.111-3.307-5.172-2.857-7.384-0.609c-0.125,0.125-0.254,0.256-0.391,0.391c-0.559,0.561-3.611-0.83-6.68-3.898
		c-2.227-2.227-3.907-4.869-3.907-6.146c0-0.296,0.095-0.392,0.126-0.423c0.138-0.14,0.278-0.276,0.416-0.41
		c0.835-0.812,1.698-1.651,1.698-2.92c0-1.142-0.723-2.433-2.278-4.061C8.119,1.226,7.001,0.645,5.858,0.66
		C4.135,0.685,2.868,2.086,1.85,3.213z M8.323,3.348c1.288,1.348,1.914,2.378,1.914,3.149c0,0.678-0.493,1.192-1.298,1.974
		c-0.144,0.139-0.29,0.282-0.436,0.429c-0.23,0.233-0.505,0.657-0.505,1.35c0,1.925,2.156,4.94,4.293,7.079
		c1.413,1.412,3.047,2.682,4.483,3.484c1.905,1.066,3.273,1.205,4.063,0.414c0.139-0.139,0.271-0.271,0.396-0.398
		c1.772-1.801,2.091-2.125,5.619,0.711c0.89,0.717,1.342,1.406,1.342,2.055c0,1.082-1.202,2.129-2.261,3.053
		c-0.341,0.295-0.659,0.572-0.934,0.846c-0.639,0.639-2.732,0.828-5.826-0.262c-3.43-1.207-7.021-3.578-10.111-6.666
		C4.05,15.46,1.807,9.83,1.807,6.516c0-1.202,0.308-1.651,0.44-1.788c0.188-0.195,0.381-0.409,0.582-0.631
		c0.89-0.985,1.898-2.101,3.048-2.117C6.622,1.969,7.445,2.43,8.323,3.348z"/>
	<path fill="#6F3779" d="M23.073,29.582L23.073,29.582c-1.266,0-2.794-0.305-4.42-0.877c-3.644-1.285-7.444-3.785-10.7-7.039
		c-5.325-5.425-7.708-11.517-7.708-15.15c0-1.283,0.304-2.276,0.879-2.872C1.301,3.46,1.483,3.259,1.67,3.051
		c1.05-1.163,2.355-2.608,4.184-2.633h0.049c1.197,0,2.357,0.606,3.548,1.852c1.601,1.676,2.347,3.02,2.347,4.228
		c0,1.373-0.942,2.288-1.772,3.094L9.968,9.649c-0.117,0.114-0.237,0.23-0.354,0.349c-0.05,0.05-0.056,0.193-0.056,0.253
		c0,1.198,1.685,3.823,3.835,5.974c2.696,2.695,5.244,3.951,6.117,3.949c0.127,0,0.199-0.025,0.222-0.049
		c0.107-0.107,0.212-0.213,0.311-0.313l0.076-0.078c0.996-1.012,1.92-1.85,3.107-1.85c1.111,0,2.444,0.707,4.604,2.439
		c1.276,1.027,1.924,2.127,1.924,3.271c0,1.793-1.551,3.145-2.799,4.23c-0.316,0.275-0.617,0.537-0.852,0.773
		C25.461,29.24,24.414,29.582,23.073,29.582z M5.904,0.902H5.861c-1.618,0.022-2.845,1.38-3.831,2.472
		C1.839,3.588,1.653,3.793,1.472,3.979C0.986,4.483,0.73,5.36,0.73,6.516c0,3.534,2.34,9.482,7.568,14.809
		c3.204,3.203,6.939,5.662,10.516,6.924c1.575,0.555,3.047,0.848,4.259,0.848l0,0c1.208,0,2.138-0.291,2.688-0.84
		c0.248-0.248,0.555-0.514,0.876-0.795c1.175-1.021,2.633-2.293,2.633-3.865c0-0.99-0.587-1.963-1.744-2.893
		c-2.063-1.658-3.309-2.334-4.299-2.334c-0.915,0-1.647,0.574-2.764,1.705l-0.075,0.078c-0.099,0.102-0.205,0.207-0.311,0.314
		c-0.129,0.129-0.318,0.193-0.566,0.193c-1.146,0-3.801-1.434-6.46-4.092c-2.305-2.305-3.978-4.963-3.978-6.317
		c0-0.396,0.146-0.544,0.196-0.594c0.12-0.121,0.241-0.239,0.36-0.356l0.059-0.057c0.836-0.813,1.625-1.58,1.625-2.747
		c0-1.076-0.703-2.313-2.211-3.893C8.007,1.459,6.96,0.902,5.904,0.902z M23.069,28.254c-1.129,0-2.504-0.273-3.978-0.793
		c-3.461-1.219-7.085-3.607-10.202-6.725C3.829,15.58,1.564,9.879,1.564,6.516c0-1.244,0.319-1.76,0.509-1.957
		c0.187-0.193,0.378-0.405,0.577-0.625c0.925-1.023,1.97-2.181,3.224-2.198h0.027c0.808,0,1.682,0.486,2.598,1.444
		c1.351,1.416,1.98,2.469,1.98,3.317c0,0.775-0.521,1.322-1.372,2.148C8.964,8.784,8.819,8.925,8.675,9.071
		C8.477,9.272,8.24,9.64,8.24,10.251c0,1.854,2.12,4.805,4.222,6.907c1.398,1.398,3.012,2.654,4.43,3.445
		c1.789,1,3.064,1.162,3.772,0.453c0.141-0.139,0.269-0.27,0.394-0.396c0.866-0.879,1.436-1.459,2.233-1.459
		c0.877,0,1.938,0.725,3.712,2.152c0.95,0.764,1.434,1.518,1.434,2.242c0,1.191-1.246,2.275-2.345,3.232
		c-0.337,0.295-0.653,0.57-0.921,0.838C24.793,28.047,24.047,28.254,23.069,28.254z M5.901,1.979L5.88,2.221
		C4.837,2.235,3.867,3.309,3.011,4.257c-0.205,0.226-0.4,0.442-0.59,0.638c-0.087,0.091-0.372,0.475-0.372,1.62
		c0,3.265,2.222,8.823,7.186,13.881c3.064,3.064,6.623,5.412,10.018,6.607c1.798,0.633,3.066,0.766,3.816,0.766
		c0.833,0,1.476-0.162,1.757-0.445c0.28-0.279,0.603-0.561,0.943-0.857c1.024-0.893,2.182-1.9,2.182-2.871
		c0-0.57-0.422-1.197-1.252-1.865c-1.611-1.295-2.684-2.045-3.408-2.045c-0.593,0-1.08,0.494-1.887,1.314
		c-0.127,0.129-0.257,0.262-0.396,0.4c-0.867,0.867-2.341,0.752-4.354-0.373c-1.455-0.813-3.108-2.098-4.536-3.527
		c-2.173-2.172-4.364-5.257-4.364-7.249c0-0.775,0.313-1.254,0.576-1.521C8.478,8.582,8.624,8.438,8.77,8.297
		c0.758-0.737,1.225-1.219,1.225-1.8c0-0.696-0.622-1.699-1.847-2.982C7.327,2.657,6.571,2.221,5.901,2.221V1.979z"/>
</g>
</svg>
