<?xml version="1.0" encoding="utf-8"?>
<!-- Generator: Adobe Illustrator 16.0.0, SVG Export Plug-In . SVG Version: 6.00 Build 0)  -->
<!DOCTYPE svg PUBLIC "-//W3C//DTD SVG 1.1//EN" "http://www.w3.org/Graphics/SVG/1.1/DTD/svg11.dtd">
<svg version="1.1" id="Layer_1" xmlns="http://www.w3.org/2000/svg" xmlns:xlink="http://www.w3.org/1999/xlink" x="0px" y="0px"
	 width="30px" height="30px" viewBox="0 0 30 30" enable-background="new 0 0 30 30" xml:space="preserve">
<g>
	<path id="WhatsApp" fill="#614066" d="M30,14.614c0,8.071-6.593,14.614-14.728,14.614c-2.582,0-5.008-0.66-7.119-1.818L0,30
		l2.658-7.841c-1.341-2.202-2.113-4.784-2.113-7.545C0.545,6.542,7.139,0,15.272,0C23.407,0,30,6.542,30,14.614z M15.272,2.327
		c-6.828,0-12.382,5.512-12.382,12.287c0,2.688,0.876,5.178,2.359,7.204L3.702,26.38l4.758-1.512
		c1.955,1.283,4.297,2.032,6.812,2.032c6.827,0,12.383-5.512,12.383-12.286S22.101,2.327,15.272,2.327z M22.71,17.979
		c-0.092-0.149-0.332-0.239-0.692-0.418c-0.361-0.18-2.137-1.046-2.467-1.165c-0.331-0.119-0.572-0.18-0.813,0.179
		s-0.933,1.165-1.144,1.404s-0.421,0.27-0.782,0.09c-0.36-0.179-1.523-0.558-2.902-1.777c-1.073-0.949-1.798-2.121-2.008-2.48
		c-0.21-0.358-0.022-0.552,0.158-0.73c0.163-0.161,0.361-0.418,0.542-0.627c0.181-0.209,0.241-0.358,0.361-0.598
		c0.121-0.239,0.061-0.448-0.03-0.628c-0.09-0.179-0.813-1.941-1.113-2.659c-0.3-0.717-0.601-0.598-0.812-0.598
		c-0.21,0-0.451-0.03-0.692-0.03S9.683,8.032,9.352,8.39c-0.331,0.359-1.263,1.226-1.263,2.988c0,1.763,1.293,3.466,1.474,3.704
		c0.18,0.239,2.497,3.974,6.167,5.408c3.671,1.434,3.671,0.955,4.332,0.896c0.662-0.061,2.136-0.867,2.438-1.703
		C22.8,18.846,22.8,18.129,22.71,17.979z"/>
</g>
</svg>
