<?xml version="1.0" encoding="utf-8"?>
<!-- Generator: Adobe Illustrator 16.0.0, SVG Export Plug-In . SVG Version: 6.00 Build 0)  -->
<!DOCTYPE svg PUBLIC "-//W3C//DTD SVG 1.1//EN" "http://www.w3.org/Graphics/SVG/1.1/DTD/svg11.dtd">
<svg version="1.1" id="Layer_1" xmlns="http://www.w3.org/2000/svg" xmlns:xlink="http://www.w3.org/1999/xlink" x="0px" y="0px"
	 width="90px" height="90px" viewBox="0 0 90 90" enable-background="new 0 0 90 90" xml:space="preserve">
<circle fill="#6F387A" cx="45" cy="45" r="43.708"/>
<path fill="#FFFFFF" d="M61.26,32.066c1.219,0,2.032,0.813,2.032,2.032v22.356c0,1.221-0.813,2.032-2.032,2.032H43.78l-8.943,6.302
	v-2.235v-4.066H28.74c-1.22,0-2.033-0.812-2.033-2.032V34.099c0-1.219,0.813-2.032,2.033-2.032H61.26 M61.26,28H28.74
	c-3.457,0-6.098,2.643-6.098,6.098v22.356c0,3.457,2.642,6.099,6.098,6.099h2.032v10.163l14.227-10.163H61.26
	c3.456,0,6.097-2.642,6.097-6.099V34.099C67.356,30.643,64.716,28,61.26,28L61.26,28z"/>
</svg>
