<?xml version="1.0" encoding="utf-8"?>
<!-- Generator: Adobe Illustrator 16.0.0, SVG Export Plug-In . SVG Version: 6.00 Build 0)  -->
<!DOCTYPE svg PUBLIC "-//W3C//DTD SVG 1.1//EN" "http://www.w3.org/Graphics/SVG/1.1/DTD/svg11.dtd">
<svg version="1.1" id="Layer_1" xmlns="http://www.w3.org/2000/svg" xmlns:xlink="http://www.w3.org/1999/xlink" x="0px" y="0px"
	 width="90px" height="90px" viewBox="0 0 90 90" enable-background="new 0 0 90 90" xml:space="preserve">
<circle fill="#6F387A" cx="45" cy="45.25" r="44.75"/>
<path fill="#FFFFFF" d="M58.721,43.535H55.29v-6.861c0-5.659-4.631-10.29-10.29-10.29c-5.66,0-10.291,4.631-10.291,10.29v6.861
	h-3.43c-2.916,0-5.145,2.229-5.145,5.145v10.291c0,2.916,2.229,5.146,5.145,5.146h27.441c2.916,0,5.146-2.229,5.146-5.146V48.68
	C63.866,45.764,61.637,43.535,58.721,43.535z M38.14,36.674c0-3.773,3.087-6.86,6.86-6.86s6.86,3.087,6.86,6.86v6.861H38.14V36.674z
	 M60.436,58.971c0,1.028-0.687,1.715-1.715,1.715H31.279c-1.028,0-1.715-0.687-1.715-1.715V48.68c0-1.027,0.687-1.715,1.715-1.715
	h27.441c1.028,0,1.715,0.688,1.715,1.715V58.971z"/>
</svg>
