<?xml version="1.0" encoding="utf-8"?>
<!-- Generator: Adobe Illustrator 16.0.0, SVG Export Plug-In . SVG Version: 6.00 Build 0)  -->
<!DOCTYPE svg PUBLIC "-//W3C//DTD SVG 1.1//EN" "http://www.w3.org/Graphics/SVG/1.1/DTD/svg11.dtd">
<svg version="1.1" id="Layer_1" xmlns="http://www.w3.org/2000/svg" xmlns:xlink="http://www.w3.org/1999/xlink" x="0px" y="0px"
	 width="90px" height="90px" viewBox="0 0 90 90" enable-background="new 0 0 90 90" xml:space="preserve">
<circle fill="#6F387A" cx="45" cy="45" r="44.25"/>
<path fill="#FFFFFF" d="M51.529,47.048c1.71-1.709,2.798-4.041,2.798-6.684V35.7c0-5.13-4.197-9.328-9.327-9.328
	s-9.328,4.197-9.328,9.328v4.664c0,2.644,1.088,4.975,2.798,6.684c-7.15,1.089-12.125,4.043-12.125,7.308v3.108
	c0,2.644,2.021,4.664,4.664,4.664h27.982c2.644,0,4.664-2.021,4.664-4.664v-3.108C63.655,51.091,58.525,48.137,51.529,47.048z
	 M38.781,40.364V35.7c0-3.421,2.798-6.219,6.219-6.219c3.42,0,6.219,2.798,6.219,6.219v4.664c0,3.42-2.799,6.218-6.219,6.218
	C41.58,46.582,38.781,43.784,38.781,40.364z M60.546,57.464c0,0.933-0.622,1.556-1.555,1.556H31.009
	c-0.934,0-1.555-0.623-1.555-1.556v-3.108c0-0.312,0.932-1.555,3.575-2.644c3.109-1.243,7.462-2.021,11.971-2.021
	c4.508,0,8.861,0.777,11.971,2.021c2.642,1.089,3.575,2.332,3.575,2.644V57.464z"/>
</svg>
