<?xml version="1.0" encoding="utf-8"?>
<!-- Generator: Adobe Illustrator 16.0.0, SVG Export Plug-In . SVG Version: 6.00 Build 0)  -->
<!DOCTYPE svg PUBLIC "-//W3C//DTD SVG 1.1//EN" "http://www.w3.org/Graphics/SVG/1.1/DTD/svg11.dtd">
<svg version="1.1" id="Layer_1" xmlns="http://www.w3.org/2000/svg" xmlns:xlink="http://www.w3.org/1999/xlink" x="0px" y="0px"
	 width="40px" height="40px" viewBox="0 0 40 40" enable-background="new 0 0 40 40" xml:space="preserve">
<g>
	<g>
		<path id="Blue_1_" fill="#3D5B9A" d="M37.912,40.126c1.223,0,2.214-0.991,2.214-2.215V2.214C40.126,0.991,39.135,0,37.912,0H2.215
			C0.991,0,0,0.991,0,2.214v35.697c0,1.224,0.991,2.215,2.215,2.215H37.912z"/>
		<path id="f" fill="#FFFFFF" d="M27.687,40.126V24.588h5.216l0.781-6.057h-5.997v-3.867c0-1.753,0.486-2.948,3.002-2.948
			l3.206-0.001V6.299C33.34,6.225,31.437,6.06,29.222,6.06c-4.623,0-7.789,2.822-7.789,8.005v4.466h-5.229v6.057h5.229v15.538
			H27.687z"/>
	</g>
</g>
</svg>
