<?xml version="1.0" encoding="utf-8"?>
<!-- Generator: Adobe Illustrator 16.0.0, SVG Export Plug-In . SVG Version: 6.00 Build 0)  -->
<!DOCTYPE svg PUBLIC "-//W3C//DTD SVG 1.1//EN" "http://www.w3.org/Graphics/SVG/1.1/DTD/svg11.dtd">
<svg version="1.1" id="Layer_1" xmlns="http://www.w3.org/2000/svg" xmlns:xlink="http://www.w3.org/1999/xlink" x="0px" y="0px"
	 width="150px" height="150px" viewBox="0 0 150 150" enable-background="new 0 0 150 150" xml:space="preserve">
<path fill-rule="evenodd" clip-rule="evenodd" d="M148.268,74.997c0-40.46-32.813-73.269-73.268-73.269S1.731,34.537,1.731,74.997
	c0,40.455,32.813,73.275,73.269,73.275S148.268,115.452,148.268,74.997L148.268,74.997z M8.398,74.997
	C8.398,38.221,38.219,8.399,75,8.399c36.779,0,66.602,29.822,66.602,66.598c0,36.779-29.822,66.601-66.602,66.601
	C38.219,141.598,8.398,111.776,8.398,74.997L8.398,74.997z M8.398,74.997"/>
<g>
	<g>
		<path d="M74.999,95.691c-2.447,0-4.431-1.983-4.431-4.431V28.033c0-2.447,1.984-4.431,4.431-4.431
			c2.447,0,4.431,1.984,4.431,4.431v63.228C79.43,93.708,77.446,95.691,74.999,95.691z"/>
	</g>
	<circle cx="74.999" cy="114.287" r="7.68"/>
</g>
</svg>
