<?xml version="1.0" encoding="utf-8"?>
<!-- Generator: Adobe Illustrator 16.0.0, SVG Export Plug-In . SVG Version: 6.00 Build 0)  -->
<!DOCTYPE svg PUBLIC "-//W3C//DTD SVG 1.1//EN" "http://www.w3.org/Graphics/SVG/1.1/DTD/svg11.dtd">
<svg version="1.1" id="Layer_1" xmlns="http://www.w3.org/2000/svg" xmlns:xlink="http://www.w3.org/1999/xlink" x="0px" y="0px"
	 width="40px" height="40px" viewBox="0 0 40 40" enable-background="new 0 0 40 40" xml:space="preserve">
<g>
	<path fill-rule="evenodd" clip-rule="evenodd" d="M40.306,20.145C40.306,9.021,31.284,0,20.161,0S0.017,9.021,0.017,20.145
		c0,11.122,9.021,20.146,20.145,20.146S40.306,31.267,40.306,20.145L40.306,20.145z M1.85,20.145
		c0-10.112,8.199-18.311,18.312-18.311s18.312,8.199,18.312,18.311s-8.199,18.311-18.312,18.311S1.85,30.257,1.85,20.145
		L1.85,20.145z M1.85,20.145"/>
	<path fill-rule="evenodd" clip-rule="evenodd" d="M20.93,31.768V20.145h3.835l0.608-3.854H20.93v-1.933
		c0-1.009,0.331-1.965,1.77-1.965h2.889V8.547h-4.096c-3.442,0-4.381,2.273-4.381,5.412v2.333h-2.36v3.854h2.36v11.623H20.93z
		 M20.93,31.768"/>
</g>
</svg>
