<?xml version="1.0" encoding="utf-8"?>
<!-- Generator: Adobe Illustrator 16.0.0, SVG Export Plug-In . SVG Version: 6.00 Build 0)  -->
<!DOCTYPE svg PUBLIC "-//W3C//DTD SVG 1.1//EN" "http://www.w3.org/Graphics/SVG/1.1/DTD/svg11.dtd">
<svg version="1.1" id="Layer_1" xmlns="http://www.w3.org/2000/svg" xmlns:xlink="http://www.w3.org/1999/xlink" x="0px" y="0px"
	 width="40px" height="40px" viewBox="0 0 40 40" enable-background="new 0 0 40 40" xml:space="preserve">
<g>
	<path d="M27.476,10.092h-14.82c-1.355,0-2.457,1.102-2.457,2.457v15.002c0,1.355,1.102,2.458,2.457,2.458h14.82
		c1.354,0,2.457-1.103,2.457-2.458V12.549C29.933,11.194,28.83,10.092,27.476,10.092L27.476,10.092z M27.605,27.552
		c0,0.071-0.058,0.13-0.13,0.13h-14.82c-0.071,0-0.129-0.059-0.129-0.13V12.549c0-0.071,0.059-0.129,0.129-0.129h14.82
		c0.072,0,0.13,0.058,0.13,0.129V27.552z M27.605,27.552"/>
	<rect x="23.462" y="14.164" width="2.667" height="2.446"/>
	<path d="M22.695,21.036c0,1.452-1.178,2.628-2.629,2.628c-1.451,0-2.629-1.176-2.629-2.628c0-1.452,1.178-2.628,2.629-2.628
		C21.518,18.408,22.695,19.584,22.695,21.036L22.695,21.036z M22.695,21.036"/>
	<path d="M24.259,21.024c0,2.315-1.878,4.193-4.192,4.193c-2.316,0-4.193-1.878-4.193-4.193l0.005-1.868h-1.875v6.952h12.125v-6.952
		h-1.86L24.259,21.024z M24.259,21.024"/>
</g>
<path fill-rule="evenodd" clip-rule="evenodd" d="M40.115,20.05C40.115,8.978,31.137,0,20.066,0C8.996,0,0.016,8.978,0.016,20.05
	c0,11.07,8.979,20.052,20.05,20.052C31.137,40.102,40.115,31.12,40.115,20.05L40.115,20.05z M1.84,20.05
	c0-10.064,8.161-18.224,18.226-18.224s18.225,8.16,18.225,18.224c0,10.064-8.16,18.226-18.225,18.226S1.84,30.114,1.84,20.05
	L1.84,20.05z M1.84,20.05"/>
</svg>
