<?xml version="1.0" encoding="utf-8"?>
<!-- Generator: Adobe Illustrator 16.0.0, SVG Export Plug-In . SVG Version: 6.00 Build 0)  -->
<!DOCTYPE svg PUBLIC "-//W3C//DTD SVG 1.1//EN" "http://www.w3.org/Graphics/SVG/1.1/DTD/svg11.dtd">
<svg version="1.1" id="Layer_1" xmlns="http://www.w3.org/2000/svg" xmlns:xlink="http://www.w3.org/1999/xlink" x="0px" y="0px"
	 width="85px" height="25px" viewBox="0 0 85 25" enable-background="new 0 0 85 25" xml:space="preserve">
<g>
	<rect x="-8.253" y="-6.389" fill="#FFFFFF" width="101.506" height="37.777"/>
	<g>
		<path fill="#1B3D6F" d="M-0.25,17.173c0-1.237-0.021-2.278-0.091-3.206h2.347l0.109,1.594h0.065
			c0.529-0.842,1.504-1.839,3.317-1.839c1.416,0,2.521,0.8,2.984,1.991h0.045c0.376-0.597,0.817-1.039,1.326-1.349
			c0.597-0.42,1.284-0.643,2.167-0.643c1.792,0,3.604,1.218,3.604,4.67v6.345h-2.653v-5.951c0-1.786-0.62-2.85-1.924-2.85
			c-0.929,0-1.614,0.664-1.901,1.435c-0.065,0.268-0.133,0.6-0.133,0.909v6.457H6.358V18.5c0-1.501-0.596-2.564-1.857-2.564
			c-1.016,0-1.701,0.795-1.946,1.545c-0.109,0.269-0.155,0.579-0.155,0.887v6.371h-2.651v-7.565H-0.25z"/>
		<path fill="#1B3D6F" d="M25.965,22.149c0,0.969,0.043,1.92,0.152,2.587h-2.454l-0.177-1.194h-0.065
			c-0.664,0.844-1.792,1.437-3.184,1.437c-2.168,0-3.384-1.567-3.384-3.206c0-2.721,2.408-4.09,6.392-4.069v-0.176
			c0-0.709-0.289-1.883-2.192-1.883c-1.061,0-2.167,0.334-2.896,0.797l-0.531-1.768c0.797-0.489,2.19-0.952,3.892-0.952
			c3.452,0,4.447,2.193,4.447,4.535V22.149z M23.311,19.478c-1.926-0.047-3.76,0.373-3.76,2.008c0,1.062,0.687,1.549,1.549,1.549
			c1.081,0,1.878-0.711,2.123-1.485c0.063-0.194,0.088-0.418,0.088-0.592V19.478z"/>
		<path fill="#1B3D6F" d="M27.844,17.173c0-1.237-0.022-2.278-0.087-3.206h2.387l0.133,1.614h0.067
			c0.464-0.838,1.636-1.859,3.427-1.859c1.88,0,3.825,1.218,3.825,4.625v6.39h-2.72v-6.078c0-1.553-0.575-2.723-2.057-2.723
			c-1.082,0-1.836,0.772-2.122,1.592c-0.088,0.246-0.111,0.575-0.111,0.881v6.328h-2.742V17.173z"/>
		<path fill="#1B3D6F" d="M49.387,9.639v12.068c0,1.105,0.045,2.298,0.09,3.029h-2.433l-0.11-1.702h-0.046
			c-0.642,1.196-1.946,1.944-3.514,1.944c-2.566,0-4.6-2.188-4.6-5.501c-0.024-3.607,2.232-5.756,4.82-5.756
			c1.48,0,2.541,0.62,3.026,1.419h0.047V9.639H49.387z M46.668,18.455c0-0.219-0.023-0.485-0.067-0.706
			c-0.241-1.062-1.104-1.924-2.343-1.924c-1.747,0-2.722,1.545-2.722,3.559c0,1.969,0.975,3.406,2.7,3.406
			c1.103,0,2.078-0.752,2.341-1.924c0.067-0.245,0.091-0.51,0.091-0.799V18.455z"/>
		<path fill="#1B3D6F" d="M51.309,24.736v-10.77h2.745v10.77H51.309z"/>
		<path fill="#1B3D6F" d="M55.976,17.439c0-1.461-0.021-2.5-0.087-3.473h2.367l0.086,2.055h0.09c0.531-1.524,1.79-2.055,2.941-2.055
			c0.263,0,0.421-0.043,0.64,0v2.393c-0.219-0.047-0.463-0.09-0.795-0.09c-1.307,0-2.191,0.836-2.432,2.053
			c-0.045,0.244-0.09,0.534-0.09,0.842v5.572h-2.723v-7.297H55.976z"/>
		<path fill="#1B3D6F" d="M63.274,24.736v-10.77h2.739v10.77H63.274z"/>
		
			<linearGradient id="SVGID_1_" gradientUnits="userSpaceOnUse" x1="354.1426" y1="-233.5107" x2="409.7455" y2="-206.3942" gradientTransform="matrix(0.9998 0.0211 0.0211 -0.9998 -311.9707 -224.5923)">
			<stop  offset="0" style="stop-color:#FCB918"/>
			<stop  offset="0.2247" style="stop-color:#FFCB0B"/>
			<stop  offset="0.3933" style="stop-color:#FAA71C"/>
			<stop  offset="0.5281" style="stop-color:#FFCB0B"/>
			<stop  offset="0.6461" style="stop-color:#FAA71C"/>
			<stop  offset="0.6683" style="stop-color:#FBB416"/>
			<stop  offset="0.6975" style="stop-color:#FFC115"/>
			<stop  offset="0.7285" style="stop-color:#FFCA0B"/>
			<stop  offset="0.764" style="stop-color:#FFCB0B"/>
			<stop  offset="0.7974" style="stop-color:#FFCB0B"/>
			<stop  offset="1" style="stop-color:#FFCB0B"/>
		</linearGradient>
		<path fill="url(#SVGID_1_)" d="M83.083,2.577c-1.355-1.549-2.801-0.85-3.946-0.277c-0.483,0.237-3.964,2.211-3.964,2.211
			c-1.908,0.788-3.394-0.071-3.977-0.794C71.135,3.64,71.084,3.57,71.044,3.5l-0.135-0.235c-0.208-0.352-0.457-0.752-0.765-1.143
			c-0.165-0.214-0.349-0.427-0.552-0.629c-1.303-1.317-3.39-2.24-6.879-0.565c-1.649,0.959-7.029,4.032-7.029,4.032
			c-2.02,0.831-3.565-0.183-4.068-0.926c-0.021-0.027-0.045-0.061-0.058-0.088l-0.066-0.113l-0.341-0.561
			c-0.146-0.229-0.307-0.464-0.493-0.708c-0.167-0.211-0.349-0.424-0.551-0.626c-1.298-1.311-3.371-2.229-6.828-0.587
			c-2.09,1.195-6.95,3.975-6.95,3.975c-0.002,0-0.002,0-0.002,0c-2.001,1.143-3.559,2.034-3.559,2.034l1.841,2.261
			c0.774,0.736,2.23,1.949,4.484,0.928c0,0,6.218-3.601,6.242-3.613c5.314-2.917,7.938-0.128,9.097,1.729
			c0.039,0.058,0.075,0.122,0.108,0.177l0.004,0.003c0.014,0.021,0.024,0.042,0.034,0.063l0.134,0.218
			c0.563,0.854,1.456,1.408,2.517,1.383c0.585-0.012,0.982-0.204,1.563-0.525l6.017-3.488c0.004-0.003,0.007-0.003,0.011-0.006
			c5.383-2.953,8.051,0.019,9.191,1.876c0.09,0.162,0.189,0.315,0.292,0.455c0.563,0.766,1.341,1.268,2.331,1.242
			c0.65-0.012,1.382-0.407,1.49-0.477l7.215-4.163C85.339,5.425,84.601,4.313,83.083,2.577z"/>
	</g>
</g>
</svg>
