<?xml version="1.0" encoding="utf-8"?>
<!-- Generator: Adobe Illustrator 16.0.0, SVG Export Plug-In . SVG Version: 6.00 Build 0)  -->
<!DOCTYPE svg PUBLIC "-//W3C//DTD SVG 1.1//EN" "http://www.w3.org/Graphics/SVG/1.1/DTD/svg11.dtd">
<svg version="1.1" id="Layer_1" xmlns="http://www.w3.org/2000/svg" xmlns:xlink="http://www.w3.org/1999/xlink" x="0px" y="0px"
	 width="85px" height="25px" viewBox="0 0 85 25" enable-background="new 0 0 85 25" xml:space="preserve">
<g>
	<polygon fill="#1F3B70" points="22.568,25.221 62.432,25.221 62.432,0 22.568,0 	"/>
	<path fill="#FCB131" d="M42.532,20.668c1.923,1.754,4.509,2.822,7.31,2.822c6.027,0,10.9-4.874,10.9-10.901
		c0-6.006-4.873-10.901-10.9-10.901c-2.8,0-5.387,1.069-7.31,2.821c-2.202,2.009-3.59,4.875-3.59,8.08S40.33,18.681,42.532,20.668
		L42.532,20.668z"/>
	<path fill="#EB2532" d="M46.059,11.434c-0.043-0.385-0.105-0.769-0.191-1.153h-6.669c0.085-0.384,0.192-0.769,0.32-1.154h6.028
		c-0.129-0.385-0.277-0.77-0.448-1.155h-5.13c0.192-0.385,0.405-0.77,0.641-1.154h3.848c-0.236-0.407-0.514-0.792-0.835-1.154h-2.18
		c0.321-0.407,0.705-0.792,1.09-1.156c-1.924-1.751-4.488-2.82-7.311-2.82c-6.027,0-10.901,4.894-10.901,10.901
		c0,6.028,4.874,10.902,10.901,10.902c2.822,0,5.387-1.067,7.311-2.822l0,0c0.384-0.363,0.769-0.748,1.112-1.154h-2.202
		c-0.299-0.362-0.578-0.746-0.833-1.153h3.848c0.234-0.363,0.447-0.748,0.641-1.154h-5.129c-0.171-0.364-0.321-0.749-0.45-1.154
		h6.028c0.128-0.385,0.234-0.77,0.32-1.155c0.086-0.384,0.148-0.768,0.193-1.153c0.041-0.385,0.063-0.768,0.063-1.155
		C46.123,12.203,46.102,11.818,46.059,11.434L46.059,11.434z"/>
	<path fill="#FFFFFF" d="M59.289,15.111c0-0.193,0.149-0.344,0.364-0.344c0.192,0,0.342,0.15,0.342,0.344
		c0,0.192-0.15,0.363-0.342,0.363C59.438,15.475,59.289,15.304,59.289,15.111L59.289,15.111z M59.653,15.389
		c0.128,0,0.256-0.128,0.256-0.277c0-0.151-0.128-0.256-0.256-0.256c-0.149,0-0.277,0.104-0.277,0.256
		C59.375,15.261,59.503,15.389,59.653,15.389L59.653,15.389z M59.589,15.282h-0.064V14.96h0.129c0.021,0,0.063,0,0.085,0.022
		c0.021,0.021,0.043,0.042,0.043,0.065c0,0.043-0.021,0.085-0.064,0.085l0.064,0.149h-0.086l-0.042-0.129h-0.064V15.282
		L59.589,15.282z M59.589,15.091h0.042c0.021,0,0.043,0,0.043,0c0.021,0,0.021-0.022,0.021-0.043c0,0,0-0.021-0.021-0.021
		c0,0-0.021,0-0.043,0h-0.042V15.091L59.589,15.091z"/>
	<path fill="#1F3B70" d="M38.834,15.73c-0.363,0.107-0.62,0.15-0.898,0.15c-0.555,0-0.897-0.342-0.897-0.984
		c0-0.128,0.021-0.256,0.042-0.405l0.064-0.429l0.064-0.363l0.513-3.078h1.134l-0.128,0.682h0.705l-0.17,1.133h-0.706l-0.321,1.839
		c0,0.064-0.021,0.128-0.021,0.171c0,0.235,0.128,0.342,0.406,0.342c0.149,0,0.236-0.021,0.364-0.041L38.834,15.73L38.834,15.73z"/>
	<path fill="#1F3B70" d="M42.489,15.689c-0.407,0.128-0.813,0.191-1.219,0.191c-1.26,0-2.009-0.685-2.009-2.01
		c0-1.538,0.876-2.693,2.073-2.693c0.961,0,1.582,0.641,1.582,1.646c0,0.322-0.043,0.642-0.15,1.111h-2.351c0,0.064,0,0.085,0,0.129
		c0,0.533,0.342,0.791,1.026,0.791c0.428,0,0.812-0.086,1.24-0.277L42.489,15.689L42.489,15.689z M41.783,13.015
		c0-0.085,0-0.169,0-0.212c0-0.364-0.214-0.577-0.556-0.577c-0.385,0-0.642,0.277-0.749,0.79H41.783L41.783,13.015z"/>
	<polygon fill="#1F3B70" points="29.793,15.794 28.617,15.794 29.301,11.542 27.784,15.794 26.972,15.794 26.886,11.562 
		26.159,15.794 25.026,15.794 25.945,10.258 27.634,10.258 27.698,13.68 28.831,10.258 30.711,10.258 	"/>
	<path fill="#1F3B70" d="M32.635,13.785c-0.128,0-0.149-0.021-0.236-0.021c-0.662,0-1.004,0.256-1.004,0.683
		c0,0.301,0.171,0.471,0.428,0.471C32.4,14.918,32.614,14.449,32.635,13.785L32.635,13.785z M33.576,15.794H32.55l0.021-0.471
		c-0.257,0.364-0.599,0.557-1.24,0.557c-0.577,0-1.047-0.513-1.047-1.24c0-0.213,0.043-0.405,0.085-0.576
		c0.192-0.706,0.898-1.134,1.967-1.154c0.128,0,0.342,0,0.513,0.02c0.043-0.149,0.043-0.213,0.043-0.299
		c0-0.299-0.235-0.385-0.792-0.385c-0.341,0-0.704,0.065-0.983,0.129l-0.15,0.064h-0.085l0.17-1.005
		c0.556-0.171,0.94-0.234,1.369-0.234c1.026,0,1.56,0.449,1.56,1.325c0,0.214,0.021,0.386-0.064,0.875l-0.235,1.604l-0.043,0.278
		l-0.043,0.235v0.149L33.576,15.794L33.576,15.794z"/>
	<path fill="#1F3B70" d="M48.176,11.349c0.319,0,0.618,0.084,1.047,0.301l0.191-1.221c-0.105-0.041-0.129-0.041-0.277-0.105
		l-0.492-0.107c-0.149-0.043-0.32-0.064-0.534-0.064c-0.577,0-0.92,0-1.283,0.236c-0.192,0.105-0.427,0.276-0.704,0.577
		l-0.129-0.043l-1.219,0.856l0.064-0.472h-1.261l-0.706,4.49h1.176l0.427-2.415c0,0,0.172-0.342,0.256-0.45
		c0.215-0.278,0.407-0.278,0.643-0.278c0.041,0,0.085,0,0.085,0c-0.021,0.259-0.044,0.558-0.044,0.854
		c0,1.476,0.835,2.395,2.117,2.395c0.321,0,0.598-0.043,1.025-0.171l0.215-1.261c-0.386,0.193-0.706,0.278-1.006,0.278
		c-0.684,0-1.09-0.492-1.09-1.348C46.679,12.203,47.277,11.349,48.176,11.349L48.176,11.349z"/>
	<path fill="#1F3B70" d="M58.156,10.258l-0.257,1.583c-0.276-0.427-0.619-0.62-1.069-0.62c-0.619,0-1.195,0.341-1.56,1.005l0,0
		l-0.747-0.448l0.063-0.472h-1.261L52.6,15.794h1.195l0.386-2.414c0,0,0.299-0.341,0.384-0.449c0.172-0.213,0.364-0.277,0.514-0.277
		c-0.129,0.386-0.215,0.834-0.215,1.326c0,1.133,0.601,1.88,1.455,1.88c0.428,0,0.77-0.149,1.09-0.514l-0.064,0.449h1.133
		l0.898-5.536L58.156,10.258L58.156,10.258z M56.725,14.725c-0.406,0-0.599-0.276-0.599-0.874c0-0.875,0.363-1.519,0.919-1.519
		c0.406,0,0.62,0.32,0.62,0.899C57.665,14.106,57.28,14.725,56.725,14.725L56.725,14.725z"/>
	<path fill="#1F3B70" d="M51.273,13.785c-0.128,0-0.149-0.021-0.234-0.021c-0.662,0-1.005,0.256-1.005,0.683
		c0,0.301,0.171,0.471,0.427,0.471C51.039,14.918,51.252,14.449,51.273,13.785L51.273,13.785z M52.214,15.794h-1.026l0.022-0.471
		c-0.256,0.364-0.599,0.557-1.239,0.557c-0.577,0-1.09-0.492-1.09-1.24c0.021-1.067,0.813-1.73,2.094-1.73
		c0.129,0,0.343,0,0.514,0.02c0.042-0.149,0.042-0.213,0.042-0.299c0-0.299-0.235-0.385-0.79-0.385
		c-0.343,0-0.727,0.065-0.984,0.129l-0.17,0.064h-0.065l0.171-1.005c0.556-0.171,0.941-0.234,1.367-0.234
		c1.026,0,1.561,0.449,1.561,1.325c0,0.214,0.021,0.386-0.064,0.875l-0.234,1.604l-0.043,0.279l-0.043,0.234l-0.021,0.15V15.794
		L52.214,15.794z"/>
	<path fill="#1F3B70" d="M36.034,12.268c0.235,0,0.556,0.021,0.897,0.064l0.171-1.047c-0.342-0.043-0.791-0.086-1.068-0.086
		c-1.304,0-1.752,0.706-1.752,1.539c0,0.535,0.256,0.942,0.876,1.218c0.492,0.236,0.577,0.278,0.577,0.472
		c0,0.276-0.256,0.448-0.726,0.448c-0.342,0-0.662-0.064-1.048-0.171l-0.128,1.025h0.022l0.213,0.044
		c0.064,0.02,0.171,0.042,0.3,0.042c0.299,0.041,0.534,0.041,0.684,0.041c1.303,0,1.86-0.49,1.86-1.495
		c0-0.619-0.3-0.983-0.898-1.239c-0.492-0.236-0.556-0.258-0.556-0.471C35.457,12.439,35.671,12.268,36.034,12.268L36.034,12.268z"
		/>
	<path fill="#FFFFFF" d="M49.734,10.088l-0.192,1.197c-0.428-0.214-0.726-0.3-1.048-0.3c-0.896,0-1.517,0.856-1.517,2.074
		c0,0.834,0.427,1.346,1.11,1.346c0.301,0,0.621-0.085,1.006-0.276l-0.213,1.26c-0.428,0.108-0.707,0.149-1.048,0.149
		c-1.262,0-2.052-0.897-2.052-2.371c0-1.988,1.09-3.356,2.649-3.356c0.214,0,0.386,0.022,0.535,0.042l0.491,0.128
		C49.607,10.045,49.629,10.045,49.734,10.088L49.734,10.088z"/>
	<path fill="#FFFFFF" d="M45.951,10.921C45.908,10.9,45.867,10.9,45.824,10.9c-0.385,0-0.6,0.192-0.963,0.725l0.107-0.683h-1.09
		l-0.707,4.509h1.177c0.427-2.758,0.534-3.226,1.111-3.226c0.021,0,0.021,0,0.085,0c0.107-0.537,0.236-0.941,0.449-1.306h-0.043
		V10.921z"/>
	<path fill="#FFFFFF" d="M39.134,15.389c-0.321,0.108-0.578,0.15-0.854,0.15c-0.6,0-0.941-0.343-0.941-0.983
		c0-0.128,0.021-0.256,0.043-0.407l0.064-0.448l0.064-0.343l0.513-3.078h1.175l-0.128,0.663h0.598l-0.171,1.111h-0.598l-0.32,1.86
		c0,0.085-0.022,0.149-0.022,0.192c0,0.235,0.128,0.342,0.407,0.342c0.148,0,0.235-0.021,0.32-0.043L39.134,15.389L39.134,15.389z"
		/>
	<path fill="#FFFFFF" d="M34.581,12.375c0,0.555,0.277,0.962,0.898,1.241c0.491,0.235,0.556,0.299,0.556,0.513
		c0,0.276-0.214,0.407-0.684,0.407c-0.342,0-0.664-0.064-1.047-0.194l-0.171,1.049h0.064l0.213,0.042
		c0.064,0.021,0.171,0.043,0.299,0.043c0.277,0.022,0.513,0.042,0.663,0.042c1.24,0,1.816-0.469,1.816-1.496
		c0-0.621-0.235-0.981-0.833-1.262c-0.492-0.212-0.556-0.276-0.556-0.469c0-0.256,0.192-0.384,0.578-0.384
		c0.235,0,0.556,0.042,0.854,0.084l0.171-1.047c-0.3-0.042-0.77-0.086-1.048-0.086C35.029,10.857,34.581,11.542,34.581,12.375
		L34.581,12.375z"/>
	<path fill="#FFFFFF" d="M58.776,15.452h-1.133l0.064-0.448c-0.322,0.342-0.662,0.493-1.091,0.493c-0.854,0-1.432-0.728-1.432-1.861
		c0-1.496,0.877-2.757,1.924-2.757c0.47,0,0.812,0.192,1.133,0.62l0.256-1.582h1.176L58.776,15.452L58.776,15.452z M57.023,14.385
		c0.556,0,0.939-0.62,0.939-1.52c0-0.555-0.213-0.875-0.619-0.875c-0.534,0-0.92,0.619-0.92,1.518
		C56.425,14.084,56.617,14.385,57.023,14.385L57.023,14.385z"/>
	<path fill="#FFFFFF" d="M42.746,15.346c-0.406,0.129-0.791,0.193-1.218,0.193c-1.326,0-2.01-0.706-2.01-2.01
		c0-1.561,0.876-2.693,2.074-2.693c0.962,0,1.582,0.642,1.582,1.646c0,0.321-0.042,0.642-0.129,1.111h-2.351
		c-0.022,0.065-0.022,0.087-0.022,0.13c0,0.513,0.342,0.79,1.048,0.79c0.406,0,0.791-0.085,1.219-0.278L42.746,15.346L42.746,15.346
		z M42.083,12.674c0-0.086,0-0.172,0-0.236c0-0.362-0.192-0.576-0.555-0.576c-0.364,0-0.642,0.3-0.749,0.813H42.083L42.083,12.674z"
		/>
	<polygon fill="#FFFFFF" points="30.092,15.452 28.917,15.452 29.601,11.199 28.083,15.452 27.271,15.452 27.185,11.221 
		26.458,15.452 25.368,15.452 26.288,9.917 27.976,9.917 28.04,13.336 29.172,9.917 31.011,9.917 	"/>
	<path fill="#FFFFFF" d="M33.021,13.442c-0.128-0.021-0.193-0.021-0.278-0.021c-0.662,0-1.004,0.236-1.004,0.685
		c0,0.277,0.171,0.47,0.427,0.47C32.658,14.576,32.999,14.106,33.021,13.442L33.021,13.442z M33.875,15.452h-0.983l0.021-0.47
		c-0.3,0.363-0.685,0.534-1.24,0.534c-0.641,0-1.069-0.49-1.069-1.217c0-1.091,0.749-1.732,2.074-1.732c0.128,0,0.3,0,0.471,0.021
		c0.042-0.127,0.042-0.192,0.042-0.278c0-0.298-0.192-0.405-0.748-0.405c-0.342,0-0.727,0.042-0.984,0.128l-0.171,0.042
		l-0.106,0.022l0.171-1.005c0.599-0.171,0.982-0.235,1.411-0.235c1.026,0,1.561,0.448,1.561,1.304c0,0.235-0.021,0.405-0.107,0.897
		l-0.236,1.604L33.94,14.94l-0.021,0.233l-0.022,0.15L33.875,15.452L33.875,15.452z"/>
	<path fill="#FFFFFF" d="M51.658,13.442c-0.128-0.021-0.192-0.021-0.277-0.021c-0.662,0-1.004,0.236-1.004,0.685
		c0,0.277,0.17,0.47,0.427,0.47C51.273,14.576,51.637,14.106,51.658,13.442L51.658,13.442z M52.514,15.452H51.53l0.021-0.47
		c-0.299,0.363-0.705,0.534-1.24,0.534c-0.641,0-1.09-0.49-1.09-1.217c0-1.091,0.77-1.732,2.094-1.732c0.129,0,0.3,0,0.471,0.021
		c0.043-0.127,0.043-0.192,0.043-0.278c0-0.298-0.191-0.405-0.747-0.405c-0.343,0-0.728,0.042-0.983,0.128l-0.171,0.042
		l-0.106,0.022l0.17-1.005c0.599-0.171,0.983-0.235,1.41-0.235c1.026,0,1.561,0.448,1.561,1.304c0,0.235-0.021,0.405-0.105,0.897
		l-0.236,1.604l-0.041,0.277l-0.043,0.233l-0.021,0.15V15.452L52.514,15.452z"/>
	<path fill="#FFFFFF" d="M55.677,10.921C55.656,10.9,55.613,10.9,55.569,10.9c-0.384,0-0.619,0.192-0.982,0.725l0.106-0.683h-1.068
		l-0.727,4.509h1.197c0.406-2.758,0.533-3.226,1.09-3.226c0.041,0,0.041,0,0.084,0c0.106-0.537,0.258-0.941,0.449-1.306h-0.042
		V10.921z"/>
</g>
</svg>
