<?xml version="1.0" encoding="utf-8"?>
<!-- Generator: Adobe Illustrator 16.0.0, SVG Export Plug-In . SVG Version: 6.00 Build 0)  -->
<!DOCTYPE svg PUBLIC "-//W3C//DTD SVG 1.1//EN" "http://www.w3.org/Graphics/SVG/1.1/DTD/svg11.dtd">
<svg version="1.1" id="Layer_1" xmlns="http://www.w3.org/2000/svg" xmlns:xlink="http://www.w3.org/1999/xlink" x="0px" y="0px"
	 width="280px" height="40px" viewBox="0 0 280 40" enable-background="new 0 0 280 40" xml:space="preserve">
<g>
	<rect x="7.75" y="-5.999" fill="#FFFFFF" width="139.713" height="51.997"/>
	<g>
		<path fill="#003A70" d="M18.766,26.432c0-1.703-0.03-3.137-0.125-4.414h3.229l0.151,2.193h0.09
			c0.729-1.158,2.07-2.529,4.566-2.529c1.949,0,3.47,1.1,4.107,2.74h0.063c0.517-0.82,1.125-1.43,1.825-1.855
			c0.822-0.58,1.768-0.885,2.983-0.885c2.466,0,4.961,1.676,4.961,6.426v8.734h-3.652V28.65c0-2.459-0.853-3.922-2.648-3.922
			c-1.278,0-2.222,0.914-2.617,1.975c-0.09,0.367-0.183,0.824-0.183,1.25v8.889h-3.654v-8.584c0-2.066-0.82-3.529-2.557-3.529
			c-1.398,0-2.342,1.094-2.679,2.127c-0.151,0.367-0.214,0.795-0.214,1.219v8.768h-3.649V26.432z"/>
		<path fill="#003A70" d="M54.848,33.279c0,1.336,0.059,2.645,0.21,3.563H51.68l-0.243-1.645h-0.091
			c-0.914,1.162-2.466,1.977-4.381,1.977c-2.985,0-4.658-2.156-4.658-4.412c0-3.746,3.315-5.629,8.797-5.6v-0.244
			c0-0.975-0.397-2.59-3.017-2.59c-1.46,0-2.983,0.459-3.985,1.098l-0.732-2.434c1.097-0.674,3.015-1.311,5.357-1.311
			c4.751,0,6.121,3.018,6.121,6.242V33.279z M51.194,29.602c-2.651-0.063-5.175,0.514-5.175,2.766c0,1.459,0.946,2.131,2.132,2.131
			c1.488,0,2.585-0.979,2.922-2.043c0.088-0.271,0.121-0.576,0.121-0.818V29.602z"/>
		<path fill="#003A70" d="M57.434,26.432c0-1.703-0.031-3.137-0.119-4.414h3.284l0.183,2.223h0.093
			c0.638-1.154,2.251-2.559,4.717-2.559c2.587,0,5.264,1.676,5.264,6.365v8.795h-3.742v-8.367c0-2.137-0.792-3.746-2.832-3.746
			c-1.489,0-2.527,1.063-2.92,2.189c-0.122,0.338-0.154,0.793-0.154,1.215v8.709h-3.774V26.432z"/>
		<path fill="#003A70" d="M87.086,16.062v16.61c0,1.521,0.063,3.164,0.123,4.17h-3.347l-0.152-2.344h-0.063
			c-0.884,1.646-2.679,2.676-4.837,2.676c-3.532,0-6.331-3.012-6.331-7.572c-0.033-4.965,3.072-7.92,6.634-7.92
			c2.039,0,3.5,0.852,4.168,1.953h0.063v-7.573H87.086z M83.344,28.195c0-0.301-0.032-0.668-0.092-0.973
			c-0.334-1.459-1.52-2.646-3.226-2.646c-2.405,0-3.746,2.127-3.746,4.898c0,2.709,1.341,4.688,3.716,4.688
			c1.519,0,2.86-1.033,3.224-2.648c0.092-0.336,0.124-0.701,0.124-1.098V28.195z"/>
		<path fill="#003A70" d="M89.733,36.842V22.018h3.777v14.824H89.733z"/>
		<path fill="#003A70" d="M96.155,26.797c0-2.01-0.029-3.439-0.12-4.779h3.259l0.117,2.83h0.124c0.732-2.1,2.464-2.83,4.051-2.83
			c0.362,0,0.577-0.059,0.879,0v3.293c-0.303-0.064-0.638-0.123-1.094-0.123c-1.799,0-3.017,1.15-3.348,2.824
			c-0.061,0.336-0.123,0.736-0.123,1.16v7.67h-3.747V26.797z"/>
		<path fill="#003A70" d="M106.202,36.842V22.018h3.771v14.824H106.202z"/>
		
			<linearGradient id="SVGID_1_" gradientUnits="userSpaceOnUse" x1="65.4961" y1="-1.6782" x2="142.0266" y2="-39.0007" gradientTransform="matrix(0.9998 0.0211 -0.0211 0.9998 4.7578 25.5869)">
			<stop  offset="0" style="stop-color:#FDB913"/>
			<stop  offset="0.2247" style="stop-color:#FFCB05"/>
			<stop  offset="0.3933" style="stop-color:#FAA61A"/>
			<stop  offset="0.5281" style="stop-color:#FFCB05"/>
			<stop  offset="0.6461" style="stop-color:#FAA61A"/>
			<stop  offset="0.6683" style="stop-color:#FCB415"/>
			<stop  offset="0.6975" style="stop-color:#FFC10E"/>
			<stop  offset="0.7285" style="stop-color:#FFC907"/>
			<stop  offset="0.764" style="stop-color:#FFCB05"/>
			<stop  offset="0.7974" style="stop-color:#FFCB05"/>
			<stop  offset="1" style="stop-color:#FFCB05"/>
		</linearGradient>
		<path fill="url(#SVGID_1_)" d="M133.467,6.342c-1.868-2.132-3.856-1.169-5.432-0.382c-0.666,0.327-5.458,3.044-5.458,3.044
			c-2.626,1.084-4.67-0.098-5.472-1.094c-0.085-0.105-0.156-0.202-0.21-0.298l-0.186-0.323c-0.286-0.484-0.63-1.035-1.052-1.573
			c-0.228-0.294-0.48-0.588-0.758-0.866c-1.795-1.812-4.667-3.083-9.469-0.778c-2.27,1.32-9.674,5.55-9.674,5.55
			c-2.782,1.144-4.911-0.252-5.601-1.274c-0.029-0.038-0.061-0.084-0.08-0.122l-0.09-0.155L89.515,7.3
			c-0.2-0.315-0.422-0.639-0.679-0.975c-0.229-0.291-0.481-0.584-0.759-0.862c-1.785-1.804-4.639-3.069-9.397-0.808
			c-2.877,1.645-9.567,5.471-9.567,5.471c-0.002,0-0.002,0-0.002,0c-2.754,1.573-4.898,2.8-4.898,2.8l2.533,3.112
			c1.066,1.013,3.071,2.682,6.172,1.277c0,0,8.558-4.957,8.592-4.974c7.316-4.015,10.927-0.176,12.522,2.38
			c0.054,0.08,0.102,0.168,0.149,0.244l0.005,0.004c0.018,0.03,0.033,0.059,0.047,0.088l0.184,0.3
			c0.776,1.176,2.004,1.938,3.464,1.903c0.807-0.016,1.353-0.281,2.151-0.723l8.281-4.801c0.006-0.004,0.01-0.004,0.016-0.009
			c7.409-4.065,11.081,0.026,12.649,2.582c0.123,0.223,0.262,0.433,0.402,0.626c0.775,1.055,1.847,1.746,3.208,1.71
			c0.897-0.016,1.903-0.559,2.053-0.656l9.929-5.73C136.571,10.261,135.554,8.73,133.467,6.342z"/>
	</g>
</g>
<rect x="147.463" y="-5.999" fill="#FFFFFF" width="132.537" height="51.997"/>
<g>
	<path fill="#243E90" d="M182.925,4.119c4.784,0.018,9.727,1.151,14.804,3.416l0.24,0.103l0.086,0.239v0.018l0,0
		c0.412,1.251,0.772,2.505,1.063,3.756c0.293,1.253,0.533,2.504,0.704,3.757c0.238,1.648,0.379,3.278,0.412,4.924v1.92
		c-0.103,4.152-0.823,8.305-2.18,12.457l-0.086,0.24l-0.24,0.104c-4.803,2.125-9.623,3.176-14.427,3.176c-0.121,0-0.241,0-0.377,0
		v-1.168c0.136,0,0.256,0,0.377,0c4.564,0,9.144-0.979,13.723-2.971c1.991-6.174,2.54-12.35,1.649-18.528
		c-0.172-1.201-0.412-2.435-0.705-3.654c-0.255-1.131-0.582-2.282-0.944-3.413c-4.854-2.127-9.556-3.192-14.1-3.21V4.119z
		 M168.838,7.55c4.495-2.298,9.16-3.432,13.982-3.432c0.034,0,0.069,0,0.104,0v1.166c-0.035,0-0.07,0-0.104,0
		c-4.58,0-8.989,1.066-13.262,3.21c-1.733,4.116-2.71,8.303-2.762,12.573c-0.068,4.238,0.807,8.578,2.744,13.008
		c4.463,1.938,8.92,2.93,13.384,2.984v1.168c-4.685-0.055-9.369-1.098-14.052-3.176l-0.309-0.291
		c-1.991-4.463-2.916-8.854-2.937-13.16v-0.309c0-0.086,0-0.154,0-0.239c0.053-4.479,1.101-8.887,2.937-13.21L168.838,7.55z"/>
	<path fill-rule="evenodd" clip-rule="evenodd" fill="#243E90" d="M183.23,30.693c-0.24-3.277-0.084-6.689-1.062-9.813
		c-0.91-2.916-4.358-4.58-4.427-7.789c-0.07-2.503,1.835-5.403,5.404-5.403c3.345-0.017,5.421,2.419,5.662,5.129
		c0.292,3.139-3.518,5.25-4.512,8.236C183.267,24.107,183.559,27.484,183.23,30.693z"/>
	<path fill-rule="evenodd" clip-rule="evenodd" fill="#243E90" d="M184.554,29.904c-0.139-2.846-0.139-5.576,0.653-7.994
		c0.874-2.744,2.691-5.061,5.471-5.815c1.904-0.515,4.701,1.716,4.255,3.997c-0.377,1.836-2.213,3.997-5.163,4.237
		c-1.373,0.121-1.956,1.219-2.814,1.854c3.842-0.377,6.331-1.885,8.063-3.465c0.257,1.338,0.429,3.586-0.618,4.359
		c-2.058,1.457-3.963,0.273-6.381,0.961C186.664,28.432,185.823,29.289,184.554,29.904z"/>
	<path fill-rule="evenodd" clip-rule="evenodd" fill="#243E90" d="M181.929,29.904c0.153-2.846,0.138-5.576-0.636-7.994
		c-0.875-2.744-2.693-5.061-5.471-5.815c-1.906-0.515-4.721,1.716-4.258,3.997c0.377,1.836,2.214,3.997,5.165,4.237
		c1.355,0.121,1.958,1.219,2.813,1.854c-3.858-0.377-6.328-1.885-8.063-3.465c-0.257,1.338-0.428,3.586,0.618,4.359
		c2.059,1.457,3.964,0.273,6.384,0.961C179.834,28.432,180.658,29.289,181.929,29.904z"/>
	<path fill-rule="evenodd" clip-rule="evenodd" fill="#243E90" d="M191.072,34.143V33.68l0.343-0.086l-0.343-0.516v-0.857
		l1.544,2.146l-0.548,0.137l-0.377-0.531L191.072,34.143z M191.072,32.221v0.857l-0.24-0.342l-0.101,1.029l0.341-0.086v0.463
		l-0.395,0.086l-0.066,0.637L190.06,35l0.36-2.795l0.552-0.139L191.072,32.221L191.072,32.221z M185.961,35.637v-0.447h0.12
		c0.187-0.018,0.308-0.033,0.358-0.051c0.069-0.018,0.14-0.068,0.172-0.121c0.053-0.068,0.069-0.137,0.069-0.223
		c-0.017-0.086-0.035-0.154-0.086-0.205c-0.036-0.053-0.104-0.086-0.171-0.104c-0.07-0.016-0.224-0.016-0.463,0v-0.447
		c0.136,0,0.222-0.016,0.256-0.016c0.085-0.018,0.156-0.068,0.207-0.121c0.05-0.051,0.067-0.119,0.05-0.205
		c0-0.086-0.034-0.154-0.085-0.189c-0.035-0.051-0.101-0.086-0.206-0.086c-0.035,0-0.102,0-0.222,0.018v-0.447
		c0.187-0.016,0.327-0.016,0.412,0c0.101,0,0.206,0.035,0.291,0.086c0.086,0.035,0.154,0.104,0.222,0.191
		c0.052,0.084,0.086,0.188,0.104,0.307c0.018,0.121-0.018,0.24-0.068,0.344c-0.05,0.104-0.136,0.188-0.257,0.258
		c0.172,0.033,0.308,0.104,0.394,0.205c0.104,0.104,0.154,0.223,0.171,0.379c0,0.119-0.017,0.238-0.052,0.359
		c-0.05,0.119-0.119,0.207-0.205,0.291c-0.101,0.068-0.206,0.121-0.343,0.156c-0.084,0.016-0.308,0.033-0.634,0.068H185.961
		L185.961,35.637z M189.203,34.193l0.532,0.07c-0.035,0.291-0.121,0.531-0.275,0.703c-0.156,0.154-0.378,0.273-0.651,0.326
		c-0.344,0.051-0.651-0.018-0.91-0.207c-0.273-0.205-0.43-0.496-0.516-0.908c-0.067-0.43-0.015-0.789,0.172-1.064
		c0.171-0.275,0.447-0.445,0.808-0.514c0.325-0.053,0.585,0,0.823,0.152c0.138,0.086,0.258,0.225,0.344,0.43l-0.497,0.207
		c-0.053-0.119-0.139-0.223-0.241-0.275c-0.121-0.068-0.241-0.086-0.378-0.068c-0.19,0.033-0.325,0.137-0.429,0.291
		c-0.104,0.172-0.118,0.395-0.068,0.703c0.068,0.328,0.172,0.551,0.307,0.67c0.14,0.121,0.312,0.172,0.497,0.137
		c0.14-0.033,0.243-0.102,0.327-0.205C189.134,34.537,189.186,34.383,189.203,34.193z M185.961,32.992v0.447
		c-0.07,0-0.138,0.018-0.223,0.018l-0.31,0.033l0.05,0.6l0.362-0.033c0.034,0,0.085,0,0.12-0.018v0.447c0,0,0,0-0.018,0
		l-0.412,0.033l0.053,0.705l0.377-0.035v0.447l-0.86,0.086l-0.24-2.625l1.047-0.088C185.926,32.992,185.943,32.992,185.961,32.992
		L185.961,32.992z M182.648,34.727v-0.445c0.12,0,0.188-0.018,0.241-0.035c0.068-0.018,0.121-0.068,0.171-0.121
		c0.034-0.068,0.051-0.135,0.051-0.205c0.019-0.104-0.017-0.172-0.068-0.24c-0.053-0.068-0.118-0.104-0.206-0.119
		c-0.051,0-0.104-0.018-0.188-0.018v-0.445c0.256,0,0.412,0.016,0.498,0.049c0.155,0.035,0.276,0.123,0.377,0.258
		c0.104,0.139,0.155,0.309,0.138,0.516c0,0.156-0.034,0.291-0.086,0.412c-0.067,0.102-0.138,0.188-0.223,0.258
		c-0.104,0.051-0.189,0.086-0.292,0.119C182.958,34.727,182.82,34.727,182.648,34.727z M182.648,33.098v0.445
		c-0.05,0-0.12,0-0.206,0l-0.257-0.018v0.756h0.275c0.067,0,0.138,0,0.188,0v0.445c-0.035,0-0.085,0-0.136,0h-0.344l-0.019,0.996
		l-0.532-0.018l0.053-2.627l0.842,0.02C182.563,33.098,182.613,33.098,182.648,33.098L182.648,33.098z M177.691,34.471v-0.807
		c0.153,0.033,0.257,0.033,0.307,0.033c0.07-0.018,0.122-0.033,0.172-0.086c0.034-0.051,0.07-0.104,0.085-0.189
		c0.021-0.086,0-0.152-0.033-0.221c-0.032-0.07-0.102-0.104-0.188-0.139c-0.036-0.018-0.155-0.035-0.343-0.07v-0.445l0.223,0.035
		c0.275,0.051,0.462,0.102,0.583,0.17c0.119,0.07,0.205,0.172,0.257,0.311c0.052,0.119,0.069,0.273,0.034,0.428
		c-0.034,0.189-0.12,0.344-0.256,0.447c-0.121,0.102-0.311,0.152-0.549,0.152c0.102,0.088,0.187,0.174,0.238,0.26
		c0.068,0.102,0.139,0.256,0.225,0.48l0.222,0.564l-0.616-0.119l-0.274-0.635C177.742,34.59,177.726,34.52,177.691,34.471
		L177.691,34.471z M179.2,32.838l0.515,0.053l-0.12,1.424c-0.018,0.223-0.018,0.377-0.018,0.43c0.018,0.121,0.071,0.205,0.138,0.273
		c0.086,0.086,0.189,0.121,0.344,0.139c0.154,0.016,0.273-0.018,0.344-0.07c0.084-0.051,0.135-0.119,0.17-0.205
		c0.018-0.086,0.035-0.24,0.051-0.447l0.12-1.457l0.533,0.051l-0.12,1.373c-0.016,0.326-0.051,0.549-0.102,0.67
		c-0.035,0.119-0.104,0.24-0.173,0.309c-0.086,0.086-0.207,0.154-0.345,0.189c-0.119,0.051-0.291,0.051-0.497,0.033
		c-0.256-0.018-0.445-0.068-0.563-0.137c-0.121-0.07-0.226-0.154-0.292-0.24c-0.07-0.104-0.104-0.207-0.12-0.311
		c-0.02-0.152-0.02-0.377,0-0.668L179.2,32.838z M175.032,33.611l0.102-0.43l1.116,0.293l-0.274,1.012
		c-0.139,0.086-0.309,0.137-0.55,0.154c-0.222,0.018-0.428,0-0.635-0.051c-0.275-0.07-0.496-0.189-0.653-0.344
		c-0.17-0.17-0.272-0.377-0.326-0.602c-0.033-0.24-0.033-0.479,0.035-0.721c0.069-0.256,0.191-0.48,0.362-0.668
		c0.152-0.172,0.359-0.275,0.599-0.328c0.19-0.051,0.412-0.031,0.653,0.035c0.309,0.086,0.547,0.207,0.686,0.395
		c0.138,0.172,0.206,0.395,0.189,0.635l-0.534-0.033c0-0.137-0.032-0.258-0.118-0.359c-0.087-0.088-0.188-0.174-0.345-0.207
		c-0.221-0.051-0.411-0.035-0.583,0.068c-0.17,0.104-0.29,0.309-0.376,0.584c-0.085,0.309-0.07,0.549,0.017,0.738
		c0.104,0.189,0.258,0.307,0.463,0.359c0.121,0.035,0.223,0.035,0.345,0.035c0.119-0.018,0.222-0.053,0.326-0.088l0.085-0.324
		L175.032,33.611L175.032,33.611z M177.691,32.547l-0.894-0.154l-0.445,2.592l0.516,0.086l0.188-1.08l0.118,0.016
		c0.121,0.018,0.207,0.051,0.26,0.07c0.052,0.031,0.085,0.084,0.138,0.135c0.017,0.053,0.068,0.139,0.12,0.26v-0.807
		c-0.052,0-0.104-0.02-0.173-0.02l-0.378-0.068l0.104-0.652l0.413,0.068c0.015,0,0.034,0,0.034,0V32.547z"/>
	<path fill-rule="evenodd" clip-rule="evenodd" fill="#243E90" d="M259.458,29.342v-4.84h2.126v-8.51l-2.126,4.255V9.625h8.354
		l2.127,24.464h-8.355v-4.748H259.458z M259.458,9.625v10.621l-2.129,4.255h2.129v4.84h-4.015l-1.648,4.492h-5.183v-5.592
		l5.784-12.474h-1.184l3.292-6.143H259.458L259.458,9.625z M248.612,17.776l2.593-6.143l-2.593-1.44V17.776z M228.01,15.427
		c0.119-0.705,0.119-1.391,0-2.044V15.427L228.01,15.427z M248.612,10.193v7.583l-0.341,0.823
		c-5.112-3.653-12.662-0.325-13.091,3.536c-0.428,4.031,2.644,7.291,10.483,4.852l-2.694,7.207
		c-10.346,1.15-14.36-2.951-14.96-7.736v-2.711c0.156-1.252,0.479-2.473,0.926-3.602c5.095-12.664,13.367-9.815,16.506-10.054
		l0.463-1.408L248.612,10.193L248.612,10.193z M248.612,28.242l-2.587,5.592h2.587V28.242z M218.712,33.68
		c5.541-1.098,10.979-7.754,5.525-13.055c2.124-1.134,3.448-3.174,3.772-5.198v-2.044c-0.378-2.109-2.007-3.826-5.077-3.876
		l-4.221-0.085v4.7h1.751c1.869,0,1.628,4.838-0.704,4.838h-1.047v3.704c2.521,0.48,1.629,3.982,0,5.063V33.68L218.712,33.68z
		 M228.01,23.746v2.711C227.906,25.564,227.906,24.654,228.01,23.746z M211.402,9.266l-3.413,6.622l1.526-0.12l-4.116,18.066h11.785
		c0.514,0,1.013-0.051,1.527-0.154v-5.953c-0.292,0.207-0.618,0.326-0.944,0.326h-4.238l1.408-5.438h3.173
		c0.225,0,0.429,0.016,0.602,0.049V18.96h-2.953l1.186-4.838h1.768v-4.7L211.402,9.266z"/>
</g>
</svg>
