<?xml version="1.0" encoding="utf-8"?>
<!-- Generator: Adobe Illustrator 16.0.0, SVG Export Plug-In . SVG Version: 6.00 Build 0)  -->
<!DOCTYPE svg PUBLIC "-//W3C//DTD SVG 1.1//EN" "http://www.w3.org/Graphics/SVG/1.1/DTD/svg11.dtd">
<svg version="1.1" id="Layer_1" xmlns="http://www.w3.org/2000/svg" xmlns:xlink="http://www.w3.org/1999/xlink" x="0px" y="0px"
	 width="20px" height="20px" viewBox="0 0 20 20" enable-background="new 0 0 20 20" xml:space="preserve">
<g>
	<path fill="#6F387A" d="M4.236,10.701c-0.176-0.176-0.285-0.417-0.285-0.679c0-0.526,0.438-0.965,0.986-0.986l10.191-0.022
		c0.525,0,0.963,0.439,0.986,0.986c0.021,0.548-0.438,0.964-0.986,0.986L4.938,11.008C4.653,10.986,4.412,10.877,4.236,10.701z"/>
</g>
<g>
	<path fill="#6F387A" d="M9.342,15.809c-0.175-0.177-0.284-0.418-0.284-0.682V4.915c0-0.526,0.438-0.964,0.986-0.986
		c0.525,0,0.963,0.438,0.986,0.986v10.169c0,0.526-0.438,0.964-0.986,0.985C9.759,16.094,9.518,15.982,9.342,15.809z"/>
</g>
<g>
	<path fill="#6F387A" d="M3.031,16.99c-3.857-3.856-3.857-10.125,0-13.981c3.857-3.857,10.125-3.857,13.982,0
		c3.858,3.857,3.858,10.125,0,13.981C13.155,20.849,6.888,20.849,3.031,16.99z M15.632,4.389c-3.09-3.09-8.13-3.09-11.22,0
		c-3.09,3.09-3.09,8.131,0,11.221c3.09,3.09,8.13,3.09,11.22,0S18.722,7.479,15.632,4.389z"/>
</g>
</svg>
