<?xml version="1.0" encoding="utf-8"?>
<!-- Generator: Adobe Illustrator 16.0.0, SVG Export Plug-In . SVG Version: 6.00 Build 0)  -->
<!DOCTYPE svg PUBLIC "-//W3C//DTD SVG 1.1//EN" "http://www.w3.org/Graphics/SVG/1.1/DTD/svg11.dtd">
<svg version="1.1" id="Layer_1" xmlns="http://www.w3.org/2000/svg" xmlns:xlink="http://www.w3.org/1999/xlink" x="0px" y="0px"
	 width="40px" height="40px" viewBox="0 0 40 40" enable-background="new 0 0 40 40" xml:space="preserve">
<path fill-rule="evenodd" clip-rule="evenodd" d="M40.048,20.024C40.048,8.966,31.08,0,20.024,0S0,8.966,0,20.024
	C0,31.08,8.968,40.05,20.024,40.05S40.048,31.08,40.048,20.024L40.048,20.024z M1.822,20.024c0-10.051,8.15-18.201,18.202-18.201
	c10.051,0,18.202,8.15,18.202,18.201c0,10.051-8.15,18.202-18.202,18.202C9.972,38.226,1.822,30.075,1.822,20.024L1.822,20.024z
	 M1.822,20.024"/>
<g id="Flat_copy">
	<path d="M28.958,16.079c0,5.2-2.891,9.087-7.154,9.087c-1.431,0-2.777-0.774-3.238-1.653c0,0-0.77,3.055-0.932,3.645
		c-0.574,2.083-2.263,4.167-2.393,4.339c-0.092,0.119-0.294,0.081-0.315-0.076c-0.037-0.266-0.467-2.895,0.04-5.039
		c0.254-1.076,1.705-7.224,1.705-7.224s-0.422-0.847-0.422-2.098c0-1.965,1.138-3.432,2.556-3.432c1.206,0,1.788,0.904,1.788,1.99
		c0,1.213-0.771,3.025-1.17,4.704c-0.333,1.407,0.706,2.554,2.093,2.554c2.511,0,4.202-3.228,4.202-7.049
		c0-2.905-1.955-5.081-5.516-5.081c-4.021,0-6.527,3-6.527,6.35c0,1.156,0.341,1.971,0.875,2.601c0.245,0.29,0.279,0.406,0.19,0.739
		c-0.065,0.245-0.209,0.831-0.271,1.064c-0.088,0.336-0.36,0.456-0.664,0.332c-1.851-0.757-2.715-2.785-2.715-5.065
		C11.09,13,14.266,8.484,20.565,8.484C25.628,8.484,28.958,12.146,28.958,16.079z"/>
</g>
</svg>
