<?xml version="1.0" encoding="utf-8"?>
<!-- Generator: Adobe Illustrator 16.0.0, SVG Export Plug-In . SVG Version: 6.00 Build 0)  -->
<!DOCTYPE svg PUBLIC "-//W3C//DTD SVG 1.1//EN" "http://www.w3.org/Graphics/SVG/1.1/DTD/svg11.dtd">
<svg version="1.1" id="Layer_1" xmlns="http://www.w3.org/2000/svg" xmlns:xlink="http://www.w3.org/1999/xlink" x="0px" y="0px"
	 width="10px" height="10px" viewBox="0 0 10 10" enable-background="new 0 0 10 10" xml:space="preserve">
<path fill="#75417F" d="M5.83,5L9.52,1.31c0.229-0.229,0.229-0.601,0-0.83c-0.229-0.23-0.6-0.23-0.829,0L5,4.17L1.311,0.48
	c-0.229-0.23-0.601-0.23-0.83,0c-0.229,0.229-0.229,0.601,0,0.83L4.171,5l-3.69,3.689c-0.229,0.23-0.229,0.602,0,0.83
	c0.114,0.115,0.264,0.173,0.415,0.173c0.15,0,0.301-0.058,0.415-0.173L5,5.829l3.69,3.689c0.114,0.115,0.265,0.173,0.414,0.173
	c0.15,0,0.3-0.058,0.415-0.173c0.229-0.229,0.229-0.6,0-0.83L5.83,5z M5.83,5"/>
</svg>
