<?xml version="1.0" encoding="utf-8"?>
<!-- Generator: Adobe Illustrator 16.0.0, SVG Export Plug-In . SVG Version: 6.00 Build 0)  -->
<!DOCTYPE svg PUBLIC "-//W3C//DTD SVG 1.1//EN" "http://www.w3.org/Graphics/SVG/1.1/DTD/svg11.dtd">
<svg version="1.1" id="Layer_1" xmlns="http://www.w3.org/2000/svg" xmlns:xlink="http://www.w3.org/1999/xlink" x="0px" y="0px"
	 width="150px" height="150px" viewBox="0 0 150 150" enable-background="new 0 0 150 150" xml:space="preserve">
<path fill-rule="evenodd" clip-rule="evenodd" d="M148.518,74.997c0-40.598-32.926-73.519-73.518-73.519
	c-40.593,0-73.519,32.92-73.519,73.519c0,40.592,32.925,73.525,73.519,73.525C115.592,148.522,148.518,115.589,148.518,74.997
	L148.518,74.997z M8.172,74.997C8.172,38.095,38.094,8.172,75,8.172c36.905,0,66.829,29.923,66.829,66.825
	c0,36.905-29.924,66.829-66.829,66.829C38.094,141.826,8.172,111.902,8.172,74.997L8.172,74.997z M8.172,74.997"/>
<g>
	<path d="M77.657,113.943c-1.032,0-2.042-0.359-2.849-1.032L36.179,80.662c-1.884-1.572-2.137-4.377-0.563-6.262
		c1.573-1.885,4.377-2.137,6.262-0.563l34.331,28.659l33.757-66.951c1.106-2.193,3.779-3.075,5.973-1.969
		c2.191,1.105,3.073,3.78,1.969,5.972l-36.278,71.951c-0.611,1.211-1.742,2.077-3.068,2.353
		C78.26,113.914,77.958,113.943,77.657,113.943z"/>
</g>
</svg>
