<?xml version="1.0" encoding="utf-8"?>
<!-- Generator: Adobe Illustrator 16.0.0, SVG Export Plug-In . SVG Version: 6.00 Build 0)  -->
<!DOCTYPE svg PUBLIC "-//W3C//DTD SVG 1.1//EN" "http://www.w3.org/Graphics/SVG/1.1/DTD/svg11.dtd">
<svg version="1.1" id="Layer_1" xmlns="http://www.w3.org/2000/svg" xmlns:xlink="http://www.w3.org/1999/xlink" x="0px" y="0px"
	 width="18px" height="21px" viewBox="0 0 18 21" enable-background="new 0 0 18 21" xml:space="preserve">
<g>
	<path fill="#808080" d="M8.132,10.503l-8.031,8.031c-0.223,0.222-0.223,0.583,0,0.808c0.111,0.11,0.257,0.167,0.404,0.167
		s0.292-0.057,0.403-0.167L9,11.25l8.092,8.092c0.111,0.11,0.258,0.167,0.404,0.167c0.146,0,0.292-0.057,0.403-0.167
		c0.224-0.225,0.224-0.586,0-0.808l-8.031-8.031l8.036-8.037c0.224-0.223,0.224-0.585,0-0.808s-0.584-0.223-0.807,0L9,9.756
		L0.903,1.658c-0.224-0.223-0.585-0.223-0.808,0s-0.223,0.584,0,0.808L8.132,10.503z"/>
</g>
</svg>
