<?xml version="1.0" encoding="utf-8"?>
<!-- Generator: Adobe Illustrator 16.0.0, SVG Export Plug-In . SVG Version: 6.00 Build 0)  -->
<!DOCTYPE svg PUBLIC "-//W3C//DTD SVG 1.1//EN" "http://www.w3.org/Graphics/SVG/1.1/DTD/svg11.dtd">
<svg version="1.1" id="Layer_1" xmlns="http://www.w3.org/2000/svg" xmlns:xlink="http://www.w3.org/1999/xlink" x="0px" y="0px"
	 width="18px" height="21px" viewBox="0 0 18 21" enable-background="new 0 0 18 21" xml:space="preserve">
<g>
	<path fill="#808080" d="M0.375,5.757L4.79,1.342c0.143-0.144,0.377-0.144,0.52,0c0.144,0.145,0.144,0.378,0,0.521L1.523,5.648
		h11.989c0.202,0,0.366,0.165,0.366,0.368s-0.164,0.366-0.366,0.366H1.523L5.31,10.17c0.144,0.145,0.144,0.376,0,0.521
		c-0.072,0.072-0.166,0.107-0.26,0.107c-0.094,0-0.188-0.035-0.26-0.107L0.375,6.275C0.231,6.132,0.231,5.899,0.375,5.757
		L0.375,5.757z"/>
	<path fill="#808080" d="M17.626,14.725c0.144,0.145,0.144,0.377,0,0.521l-4.416,4.414c-0.071,0.071-0.166,0.106-0.263,0.106
		c-0.094,0-0.188-0.035-0.26-0.106c-0.145-0.146-0.145-0.378,0-0.521l3.787-3.787H4.487c-0.203,0-0.368-0.164-0.368-0.367
		s0.165-0.368,0.368-0.368h11.99l-3.787-3.786c-0.146-0.145-0.146-0.377,0-0.521c0.145-0.145,0.375-0.145,0.52,0L17.626,14.725
		L17.626,14.725z"/>
</g>
</svg>
