<?xml version="1.0" encoding="utf-8"?>
<!-- Generator: Adobe Illustrator 16.0.0, SVG Export Plug-In . SVG Version: 6.00 Build 0)  -->
<!DOCTYPE svg PUBLIC "-//W3C//DTD SVG 1.1//EN" "http://www.w3.org/Graphics/SVG/1.1/DTD/svg11.dtd">
<svg version="1.1" id="Layer_1" xmlns="http://www.w3.org/2000/svg" xmlns:xlink="http://www.w3.org/1999/xlink" x="0px" y="0px"
	 width="15px" height="15px" viewBox="0 0 15 15" enable-background="new 0 0 15 15" xml:space="preserve">
<circle fill="#509AD4" cx="7.542" cy="7.5" r="7.439"/>
<g>
	<g>
		<path fill="#FFFFFF" d="M8.416,5.328C8.779,5.557,9.033,5.941,9.08,6.39c0.148,0.068,0.313,0.108,0.486,0.108
			c0.637,0,1.152-0.516,1.152-1.151c0-0.637-0.516-1.152-1.152-1.152C8.936,4.194,8.426,4.7,8.416,5.328L8.416,5.328z M7.661,7.688
			c0.636,0,1.152-0.516,1.152-1.152c0-0.636-0.516-1.151-1.152-1.151c-0.636,0-1.152,0.516-1.152,1.152
			C6.508,7.172,7.025,7.688,7.661,7.688L7.661,7.688z M8.15,7.766H7.172c-0.813,0-1.476,0.662-1.476,1.476v1.196L5.7,10.456
			l0.083,0.025c0.775,0.242,1.45,0.323,2.005,0.323c1.085,0,1.712-0.309,1.751-0.329l0.076-0.038h0.01V9.241
			C9.625,8.428,8.963,7.766,8.15,7.766L8.15,7.766z M10.055,6.577H9.086C9.074,6.965,8.91,7.314,8.646,7.565
			C9.371,7.781,9.9,8.451,9.9,9.243v0.368c0.957-0.035,1.51-0.307,1.545-0.324l0.076-0.039h0.01V8.052
			C11.531,7.238,10.869,6.577,10.055,6.577L10.055,6.577z M5.639,6.498c0.226,0,0.436-0.065,0.612-0.178
			c0.057-0.368,0.255-0.69,0.536-0.909C6.789,5.39,6.792,5.368,6.792,5.347c0-0.637-0.516-1.152-1.152-1.152
			c-0.636,0-1.152,0.516-1.152,1.152C4.487,5.982,5.003,6.498,5.639,6.498L5.639,6.498z M6.674,7.565
			c-0.261-0.25-0.426-0.598-0.438-0.983C6.201,6.58,6.165,6.577,6.128,6.577H5.151c-0.814,0-1.476,0.661-1.476,1.475v1.196
			l0.003,0.019L3.76,9.292c0.623,0.194,1.179,0.284,1.662,0.313V9.243C5.422,8.451,5.951,7.781,6.674,7.565L6.674,7.565z
			 M6.674,7.565"/>
	</g>
</g>
</svg>
