<?xml version="1.0" encoding="utf-8"?>
<!-- Generator: Adobe Illustrator 16.0.0, SVG Export Plug-In . SVG Version: 6.00 Build 0)  -->
<!DOCTYPE svg PUBLIC "-//W3C//DTD SVG 1.1//EN" "http://www.w3.org/Graphics/SVG/1.1/DTD/svg11.dtd">
<svg version="1.1" id="Layer_1" xmlns="http://www.w3.org/2000/svg" xmlns:xlink="http://www.w3.org/1999/xlink" x="0px" y="0px"
	 width="306.449px" height="41.963px" viewBox="0 0 306.449 41.963" enable-background="new 0 0 306.449 41.963"
	 xml:space="preserve">
<g>
	<path fill="#B5B5B5" d="M38.574,9.337c-6.854,8.372-7.362,18.332-2.002,22.721c0.896,0.733,1.911,1.277,3.015,1.639
		c-0.852-0.311-1.66-0.756-2.409-1.329c-4.492-3.438-5.255-11.063,0.485-17.623c5.738-6.56,15.168-9.254,19.659-5.814
		c4.495,3.438,5.093,11.884-2.046,18.783c-4.563,4.41-8.851,6.49-12.527,6.517c5.101,0.146,11.287-2.748,16.543-8.476
		c7.687-8.373,8.115-19.449,2.752-23.838C56.683-2.474,45.428,0.965,38.574,9.337"/>
	<path fill="#B5B5B5" d="M41.624,20.649c-5.518,2.436-8.469,7.777-6.691,12.017c-1.264-3.551,1.232-7.901,5.793-9.915
		c4.761-2.102,9.97-0.863,11.635,2.766c1.665,3.627-0.845,8.274-5.607,10.377c-3.304,1.459-6.826,1.309-9.227-0.137
		c2.828,1.893,7.152,2.155,11.2,0.369c5.605-2.475,8.563-7.947,6.602-12.221C53.368,19.63,47.23,18.173,41.624,20.649"/>
	<path fill="#B5B5B5" d="M43.542,30.106c-4.092-0.285-7.569,1.758-7.817,4.566c0.27-2.406,3.288-4.146,6.831-3.902
		c3.604,0.248,6.39,2.461,6.219,4.938c-0.176,2.479-3.238,4.285-6.845,4.035c-3.1-0.215-5.59-1.877-6.119-3.912
		c0.558,2.375,3.432,4.326,7.015,4.576c4.121,0.285,7.624-1.79,7.82-4.631C50.843,32.933,47.66,30.392,43.542,30.106"/>
	<path fill="#B5B5B5" d="M27.061,9.337c6.854,8.372,7.362,18.332,2,22.721c-0.895,0.733-1.91,1.277-3.016,1.639
		c0.855-0.311,1.662-0.756,2.413-1.329c4.491-3.438,5.256-11.063-0.486-17.623c-5.74-6.56-15.17-9.254-19.661-5.814
		c-4.492,3.438-5.092,11.884,2.047,18.783c4.562,4.41,8.852,6.49,12.527,6.517c-5.101,0.146-11.286-2.748-16.543-8.476
		C-1.342,17.38-1.773,6.304,3.59,1.915C8.953-2.474,20.208,0.965,27.061,9.337"/>
	<path fill="#B5B5B5" d="M24.01,20.649c5.519,2.436,8.472,7.777,6.691,12.017c1.264-3.551-1.232-7.901-5.793-9.915
		c-4.76-2.102-9.971-0.863-11.635,2.766c-1.664,3.627,0.846,8.274,5.606,10.377c3.306,1.459,6.827,1.309,9.229-0.137
		c-2.83,1.893-7.153,2.155-11.201,0.369c-5.604-2.475-8.563-7.947-6.602-12.221C12.267,19.63,18.404,18.173,24.01,20.649"/>
	<path fill="#B5B5B5" d="M22.094,30.106c4.09-0.285,7.568,1.758,7.816,4.566c-0.27-2.406-3.29-4.146-6.83-3.902
		c-3.607,0.248-6.391,2.461-6.219,4.938c0.174,2.479,3.237,4.285,6.843,4.035c3.101-0.215,5.589-1.877,6.122-3.912
		c-0.558,2.375-3.433,4.326-7.018,4.576c-4.119,0.285-7.621-1.79-7.819-4.631C14.791,32.933,17.973,30.392,22.094,30.106"/>
</g>
<g>
	<path fill="#B5B5B5" d="M265.367,4.295c0-0.161,0.027-0.286,0.104-0.393c0.065-0.109,0.166-0.186,0.293-0.238
		c0.172-0.049,0.42-0.103,0.745-0.156c0.327-0.045,0.718-0.078,1.148-0.11c0.45-0.032,0.911-0.047,1.407-0.047
		c1.767,0.014,3.293,0.423,4.564,1.256c1.266,0.839,2.247,2.033,2.93,3.582c0.691,1.563,1.034,3.437,1.043,5.63
		c0,1.325-0.141,2.516-0.396,3.575c-0.263,1.052-0.616,1.961-1.069,2.716c-0.438,0.75-0.961,1.341-1.545,1.767
		c-0.576,0.405-1.183,0.679-1.837,0.81c-0.638,0.129-1.26,0.188-1.864,0.182c-0.729,0-1.447-0.038-2.146-0.114
		c-0.692-0.067-1.307-0.171-1.84-0.297c-0.547-0.131-0.938-0.265-1.193-0.427c-0.122-0.078-0.215-0.174-0.262-0.277
		c-0.059-0.107-0.082-0.221-0.082-0.348V4.295z M261.418,26.06c0,1.682,0,3.244-0.004,4.69c-0.014,1.446-0.036,2.729-0.064,3.856
		c-0.035,1.127-0.094,2.067-0.179,2.808c-0.052,0.504-0.137,0.969-0.235,1.378c-0.102,0.4-0.24,0.741-0.432,0.992
		c-0.175,0.264-0.43,0.439-0.759,0.506c-0.231,0.05-0.479,0.107-0.741,0.154c-0.268,0.031-0.509,0.053-0.74,0.053
		c-0.149,0-0.25,0.04-0.303,0.098c-0.068,0.059-0.093,0.141-0.093,0.221c0,0.164,0.065,0.26,0.192,0.319
		c0.127,0.072,0.324,0.103,0.598,0.103c0.386,0,0.828-0.008,1.337-0.029c0.521-0.018,1.022-0.032,1.515-0.053
		c0.506-0.021,0.913-0.036,1.249-0.047c0.327-0.026,0.509-0.033,0.53-0.033c0.08,0,0.307,0.007,0.68,0.033
		c0.372,0.011,0.856,0.026,1.438,0.047c0.577,0.021,1.206,0.035,1.896,0.053c0.688,0.021,1.379,0.029,2.063,0.029
		c0.271,0,0.462-0.036,0.595-0.118c0.125-0.062,0.19-0.171,0.19-0.304c0-0.08-0.021-0.162-0.082-0.221
		c-0.065-0.058-0.164-0.098-0.313-0.098c-0.154,0-0.361-0.006-0.619-0.021c-0.262-0.027-0.527-0.059-0.82-0.078
		c-0.273-0.041-0.541-0.078-0.778-0.107c-0.488-0.064-0.861-0.242-1.125-0.506c-0.269-0.251-0.446-0.592-0.558-0.992
		c-0.121-0.409-0.201-0.874-0.242-1.378c-0.08-0.739-0.143-1.681-0.172-2.808c-0.033-1.129-0.065-2.41-0.067-3.856
		c-0.006-1.446-0.006-3.01-0.006-4.69v-1.254c0-0.13,0.022-0.232,0.082-0.308c0.047-0.077,0.14-0.116,0.262-0.116l6.065,0.108
		c0.152,0,0.265,0.028,0.365,0.081c0.086,0.049,0.187,0.125,0.278,0.232c0.253,0.35,0.573,0.805,0.963,1.379
		c0.396,0.575,0.841,1.211,1.326,1.928c0.481,0.705,0.988,1.447,1.522,2.197c0.522,0.764,1.049,1.519,1.566,2.237
		c0.928,1.313,1.766,2.474,2.504,3.472c0.742,1.002,1.448,1.858,2.104,2.568c0.665,0.706,1.354,1.247,2.052,1.656
		c0.416,0.236,0.864,0.443,1.326,0.58c0.464,0.156,1.008,0.252,1.642,0.313c0.634,0.065,1.396,0.102,2.313,0.102h3.504
		c0.438,0,0.747-0.028,0.924-0.102c0.178-0.061,0.266-0.156,0.257-0.318c0-0.08-0.047-0.162-0.131-0.222
		c-0.086-0.058-0.19-0.098-0.315-0.098c-0.146,0-0.389,0-0.728-0.019c-0.321-0.01-0.726-0.062-1.197-0.14
		c-0.405-0.05-0.918-0.19-1.511-0.409c-0.602-0.205-1.271-0.574-2.037-1.098c-0.76-0.52-1.579-1.275-2.467-2.254
		c-1.423-1.637-2.986-3.59-4.691-5.854c-1.688-2.269-3.547-4.785-5.574-7.541c1.479-1.451,2.65-2.843,3.524-4.205
		c0.877-1.358,1.503-2.687,1.89-3.995c0.371-1.307,0.565-2.596,0.56-3.886c-0.009-0.909-0.126-1.737-0.362-2.504
		c-0.23-0.767-0.52-1.445-0.879-2.057c-0.354-0.601-0.725-1.122-1.111-1.555c-0.385-0.433-0.729-0.769-1.05-1.003
		c-0.881-0.654-1.819-1.15-2.812-1.481c-0.998-0.333-2.025-0.556-3.079-0.657c-1.052-0.115-2.099-0.173-3.14-0.165
		c-0.313,0-0.69,0.013-1.142,0.02c-0.444,0.009-0.913,0.017-1.407,0.033c-0.503,0.019-0.974,0.037-1.43,0.051
		c-0.454,0.012-0.852,0.029-1.178,0.04c-0.328,0.005-0.553,0.021-0.662,0.021c-0.075,0-0.289-0.016-0.667-0.032
		c-0.371-0.018-0.831-0.035-1.384-0.052c-0.551-0.014-1.137-0.044-1.756-0.052c-0.615-0.016-1.205-0.028-1.773-0.028
		c-0.27,0-0.464,0.028-0.6,0.089c-0.123,0.075-0.192,0.176-0.192,0.335c0.017,0.1,0.056,0.182,0.129,0.236
		c0.082,0.049,0.173,0.075,0.271,0.075c0.158,0,0.334,0,0.543,0.02c0.217,0.006,0.42,0.021,0.627,0.049
		c0.201,0.018,0.365,0.052,0.513,0.089c0.532,0.11,0.948,0.298,1.245,0.538c0.305,0.238,0.511,0.558,0.645,0.963
		c0.121,0.4,0.202,0.888,0.225,1.482c0.019,0.318,0.035,0.673,0.055,1.038c0.006,0.353,0.021,0.802,0.029,1.307
		c0,0.512,0.013,1.159,0.013,1.933c0.004,0.772,0.004,1.728,0.004,2.869c0,1.143,0,2.53,0,4.152v9.208H261.418z"/>
	<path fill="#B5B5B5" d="M216.822,19.936c0.009-2.869,0.378-5.368,1.098-7.523c0.713-2.149,1.723-3.942,3.012-5.381
		c1.299-1.441,2.821-2.507,4.575-3.238c1.742-0.709,3.65-1.067,5.724-1.067c1.564,0,3.076,0.268,4.552,0.802
		c1.465,0.532,2.831,1.325,4.097,2.372c1.258,1.054,2.365,2.352,3.311,3.904c0.957,1.56,1.693,3.36,2.231,5.397
		c0.528,2.041,0.797,4.32,0.804,6.83c-0.007,2.525-0.23,4.734-0.697,6.621c-0.451,1.878-1.067,3.474-1.842,4.799
		c-0.774,1.316-1.646,2.412-2.597,3.27c-0.97,0.848-1.957,1.512-2.979,1.987c-1.021,0.476-1.996,0.813-2.95,0.996
		c-0.95,0.196-1.8,0.287-2.552,0.276c-2.226-0.008-4.293-0.479-6.211-1.412c-1.912-0.943-3.576-2.289-5.01-4.041
		s-2.545-3.853-3.344-6.314C217.242,25.754,216.842,22.987,216.822,19.936 M212.139,21.406c0,1.575,0.152,3.174,0.475,4.793
		c0.316,1.616,0.816,3.188,1.482,4.718c0.663,1.529,1.512,2.965,2.545,4.299c1.025,1.333,2.25,2.5,3.668,3.512
		c1.412,1,3.029,1.805,4.857,2.369c1.816,0.574,3.857,0.859,6.111,0.866c2.383-0.007,4.586-0.373,6.609-1.094
		c2.03-0.726,3.852-1.745,5.453-3.063c1.609-1.313,2.984-2.863,4.12-4.646c1.129-1.777,1.997-3.728,2.595-5.871
		c0.6-2.126,0.898-4.366,0.905-6.724c-0.007-2.443-0.319-4.685-0.952-6.724c-0.627-2.039-1.514-3.851-2.674-5.449
		c-1.158-1.595-2.541-2.946-4.146-4.05c-1.603-1.115-3.375-1.95-5.334-2.523c-1.957-0.577-4.057-0.874-6.28-0.874
		c-2.271,0.013-4.324,0.325-6.169,0.926c-1.842,0.608-3.488,1.437-4.926,2.5C219.04,5.416,217.8,6.63,216.75,7.99
		c-1.057,1.37-1.923,2.813-2.602,4.344c-0.684,1.53-1.189,3.062-1.52,4.609C212.3,18.493,212.139,19.984,212.139,21.406z"/>
	<path fill="#B5B5B5" d="M182.701,31.821L169.822,1.729c-0.107-0.248-0.35-0.72-0.856-0.751h-5.965v0.47c0,0,3.19-0.148,3.651,3.731
		L164.15,36c-0.057,0.675-0.133,1.317-0.231,1.938c-0.101,0.623-0.269,1.146-0.522,1.586c-0.252,0.425-0.633,0.707-1.146,0.814
		c-0.352,0.078-0.626,0.13-0.84,0.141c-0.202,0.018-0.403,0.018-0.583,0.018c-0.128,0-0.229,0.034-0.327,0.078
		c-0.096,0.046-0.141,0.109-0.148,0.188c0.008,0.186,0.08,0.305,0.229,0.372c0.145,0.072,0.343,0.103,0.58,0.103
		c0.332,0,0.695-0.008,1.105-0.029c0.404-0.018,0.809-0.032,1.211-0.053c0.396-0.021,0.744-0.036,1.045-0.047
		c0.302-0.026,0.516-0.033,0.627-0.033c0.101,0,0.3,0.007,0.6,0.033c0.302,0.011,0.665,0.026,1.096,0.047
		c0.424,0.021,0.865,0.035,1.346,0.053c0.472,0.021,0.933,0.029,1.373,0.029c0.287,0,0.5-0.029,0.644-0.103
		c0.144-0.067,0.213-0.188,0.213-0.372c0-0.076-0.04-0.142-0.119-0.188c-0.071-0.044-0.159-0.078-0.262-0.078
		c-0.149,0-0.39-0.018-0.703-0.049c-0.327-0.036-0.69-0.108-1.101-0.206c-0.364-0.093-0.657-0.277-0.889-0.576
		c-0.22-0.298-0.339-0.647-0.346-1.049c0-0.447,0.004-0.901,0.007-1.349c0.002-0.459,0.011-0.901,0.042-1.326l1.758-25.854h0.189
		c4.324,10.431,8.586,19.811,12.654,29.785l0.4,0.7l0.411,0.017c0.062-0.082,0.121-0.217,0.171-0.386l0.006-0.004
		c4.838-10.646,8.871-21.014,12.539-30.005c0.242-0.6,0.408-1.014,0.492-1.22h0.188l2.223,26.925
		c0.034,0.42,0.034,0.863,0.041,1.311c0,0.458,0.011,0.912,0.008,1.363c-0.008,0.395-0.13,0.746-0.352,1.045
		c-0.225,0.297-0.522,0.482-0.883,0.57c-0.414,0.104-0.778,0.178-1.103,0.213c-0.313,0.035-0.558,0.049-0.707,0.049
		c-0.101,0-0.188,0.027-0.258,0.074c-0.08,0.052-0.119,0.107-0.119,0.188c0,0.185,0.071,0.306,0.212,0.372
		c0.145,0.075,0.354,0.104,0.643,0.104c0.444,0,0.898-0.012,1.373-0.027c0.479-0.018,0.92-0.037,1.349-0.053
		c0.425-0.022,0.793-0.035,1.091-0.053c0.305-0.016,0.501-0.029,0.604-0.029c0.111,0,0.322,0.015,0.625,0.029
		c0.299,0.018,0.649,0.029,1.045,0.053c0.399,0.016,0.808,0.035,1.213,0.053c0.408,0.018,0.771,0.027,1.104,0.027
		c0.236,0,0.44-0.027,0.576-0.104c0.149-0.07,0.235-0.188,0.235-0.372c0-0.08-0.057-0.14-0.15-0.188
		c-0.098-0.051-0.201-0.074-0.324-0.074c-0.181,0-0.381,0-0.586-0.014c-0.221-0.021-0.49-0.063-0.843-0.144
		c-0.508-0.11-0.896-0.39-1.146-0.815c-0.252-0.439-0.422-0.969-0.521-1.59c-0.1-0.615-0.189-1.258-0.234-1.933l-1.938-30.78
		c0.461-3.879,3.651-3.731,3.651-3.731v-0.47h-5.965c-0.51,0.032-0.758,0.5-0.856,0.751l-12.601,31.317
		C183.085,32.707,182.807,32.06,182.701,31.821"/>
	<path fill="#B5B5B5" d="M125.999,26.06c0,1.682,0,3.244-0.01,4.684c-0.008,1.453-0.032,2.736-0.065,3.865
		c-0.032,1.125-0.089,2.066-0.175,2.807c-0.053,0.504-0.138,0.969-0.239,1.367c-0.095,0.412-0.236,0.744-0.424,1.003
		c-0.181,0.264-0.436,0.44-0.764,0.506c-0.231,0.05-0.479,0.106-0.741,0.155c-0.262,0.031-0.508,0.052-0.74,0.052
		c-0.148,0-0.246,0.04-0.305,0.099c-0.065,0.059-0.091,0.141-0.091,0.221c0,0.162,0.068,0.259,0.188,0.318
		c0.133,0.072,0.332,0.102,0.601,0.102c0.378-0.006,0.832-0.028,1.343-0.057c0.508-0.033,1.015-0.052,1.523-0.052
		c0.524-0.021,0.975-0.047,1.336-0.047c0.361-0.007,0.574-0.007,0.631-0.007c0.365,0,0.857,0.007,1.483,0.035
		c0.624,0.024,1.412,0.068,2.368,0.127c0.96,0.021,2.128,0.058,3.501,0.09c1.38,0.04,2.991,0.061,4.833,0.061
		c0.633,0.012,1.13,0,1.471-0.045c0.346-0.048,0.604-0.162,0.776-0.354c0.171-0.195,0.311-0.512,0.419-0.963
		c0.048-0.221,0.107-0.524,0.164-0.901c0.057-0.385,0.116-0.794,0.161-1.228c0.06-0.449,0.12-0.877,0.161-1.289
		c0.05-0.414,0.08-0.776,0.114-1.074c0.027-0.292,0.04-0.492,0.04-0.575c0.011-0.196-0.006-0.371-0.031-0.535
		c-0.035-0.157-0.123-0.249-0.264-0.252c-0.123,0-0.213,0.045-0.277,0.175c-0.067,0.123-0.12,0.317-0.168,0.612
		c-0.163,1.06-0.418,1.88-0.754,2.474c-0.345,0.582-0.829,1.019-1.464,1.295c-0.437,0.188-0.947,0.32-1.513,0.397
		c-0.566,0.084-1.144,0.133-1.709,0.153c-0.566,0.021-1.076,0.021-1.513,0.021c-1.199,0.007-2.17-0.049-2.911-0.167
		c-0.749-0.113-1.314-0.324-1.709-0.63c-0.395-0.312-0.667-0.737-0.825-1.297c-0.154-0.569-0.251-1.3-0.279-2.19
		c-0.007-0.246-0.014-0.641-0.014-1.188c-0.007-0.556-0.007-1.196-0.007-1.937c0.007-0.728,0.007-1.469,0.007-2.227
		c0.007-0.762,0.007-1.454,0.007-2.092c0.007-0.643,0.007-1.146,0.007-1.512v-4.606c0-0.102,0.028-0.188,0.083-0.259
		c0.049-0.069,0.142-0.106,0.263-0.106c0.182,0,0.485,0,0.929,0.009c0.437,0.015,0.954,0.028,1.53,0.038
		c0.584,0.019,1.175,0.03,1.776,0.06c0.608,0.02,1.16,0.042,1.653,0.07c0.503,0.028,0.887,0.049,1.169,0.087
		c0.631,0.07,1.125,0.208,1.478,0.402c0.344,0.199,0.599,0.415,0.766,0.672c0.155,0.25,0.262,0.503,0.319,0.759
		c0.099,0.336,0.158,0.646,0.175,0.928c0.023,0.271,0.032,0.535,0.023,0.799c0,0.125,0.023,0.242,0.084,0.331
		c0.047,0.085,0.14,0.14,0.264,0.14c0.113-0.013,0.195-0.063,0.245-0.164c0.049-0.105,0.073-0.236,0.083-0.388
		c0.018-0.153,0.018-0.306,0.018-0.447c0-0.093,0.007-0.271,0.014-0.526c0.007-0.252,0.023-0.554,0.049-0.889
		c0.018-0.33,0.035-0.676,0.056-1.014c0.028-0.342,0.053-0.644,0.074-0.912c0.083-0.86,0.167-1.531,0.256-2.002
		c0.084-0.465,0.131-0.783,0.141-0.93c0-0.161-0.027-0.266-0.066-0.33c-0.049-0.062-0.108-0.089-0.18-0.089
		c-0.1,0-0.198,0.055-0.313,0.185c-0.115,0.123-0.256,0.283-0.429,0.495c-0.211,0.25-0.507,0.425-0.879,0.516
		c-0.372,0.101-0.847,0.175-1.438,0.224c-0.198,0.01-0.513,0.028-0.93,0.033c-0.428,0.014-0.912,0.026-1.463,0.026
		c-0.56,0.015-1.127,0.021-1.71,0.021c-0.593,0.011-1.153,0.011-1.678,0.018c-0.524,0-0.971,0-1.338,0c-0.372,0-0.61,0-0.724,0
		c-0.125,0-0.203-0.045-0.241-0.121c-0.044-0.089-0.06-0.22-0.06-0.399V4.244c0-0.184,0.028-0.31,0.075-0.401
		c0.051-0.089,0.126-0.125,0.226-0.125c0.119,0,0.392,0,0.829,0.014c0.437,0,0.944,0.006,1.548,0.013
		c0.591,0.01,1.192,0.019,1.796,0.029c0.603,0.018,1.145,0.021,1.612,0.042c0.471,0.021,0.789,0.037,0.972,0.059
		c0.879,0.105,1.546,0.249,2.013,0.416c0.47,0.171,0.805,0.369,1.018,0.596c0.217,0.234,0.371,0.49,0.469,0.771
		c0.084,0.21,0.142,0.442,0.189,0.678c0.045,0.245,0.066,0.479,0.083,0.688c0.018,0.217,0.028,0.381,0.028,0.512
		c0,0.215,0.021,0.379,0.087,0.5c0.059,0.121,0.157,0.187,0.302,0.187c0.102-0.007,0.173-0.072,0.232-0.19
		c0.049-0.126,0.089-0.247,0.116-0.393c0.025-0.163,0.051-0.402,0.074-0.727c0.025-0.321,0.05-0.662,0.066-1.042
		c0.025-0.356,0.04-0.702,0.059-1.006c0.025-0.302,0.042-0.531,0.046-0.671c0.084-0.729,0.166-1.265,0.258-1.638
		c0.08-0.375,0.13-0.648,0.14-0.826c0-0.126-0.018-0.238-0.042-0.325c-0.035-0.091-0.084-0.146-0.158-0.146
		c-0.124,0.014-0.237,0.047-0.344,0.118c-0.11,0.058-0.226,0.116-0.346,0.147c-0.207,0.052-0.484,0.104-0.856,0.145
		c-0.368,0.058-0.792,0.089-1.267,0.112c-0.171,0.012-0.493,0.022-0.961,0.022c-0.475,0.007-1.043,0.007-1.709,0.018
		c-0.678,0-1.384,0.005-2.141,0.005c-0.76,0-1.511,0-2.252,0c-0.741,0.016-1.423,0.016-2.038,0.016c-0.625,0-1.127,0-1.522,0
		c-0.393,0-0.617,0-0.676,0l-2.02-0.112c-0.553-0.024-1.133-0.04-1.76-0.04c-0.617-0.013-1.216-0.013-1.792-0.013
		c-0.268,0-0.466,0.028-0.601,0.089c-0.121,0.075-0.189,0.176-0.189,0.335c0.009,0.1,0.051,0.182,0.126,0.236
		c0.081,0.049,0.169,0.075,0.269,0.075c0.156,0,0.338,0,0.544,0.02c0.213,0.006,0.42,0.021,0.625,0.049
		c0.203,0.018,0.371,0.052,0.506,0.089c0.539,0.11,0.954,0.298,1.255,0.538c0.3,0.238,0.507,0.558,0.636,0.963
		c0.126,0.392,0.207,0.888,0.234,1.482c0.016,0.318,0.031,0.673,0.047,1.038c0.009,0.353,0.024,0.802,0.033,1.307
		c0,0.512,0.008,1.159,0.008,1.933c0.01,0.772,0.01,1.728,0.01,2.869c0,1.143,0,2.53,0,4.152v9.208H125.999z"/>
	<path fill="#B5B5B5" d="M85.396,16.016c0-1.022,0-2.086,0-3.192c0-1.11,0-2.183,0.007-3.226c0-1.038,0.01-1.978,0.017-2.799
		c0-0.829,0.018-1.473,0.029-1.924c0-0.292,0.038-0.502,0.129-0.668c0.087-0.157,0.237-0.287,0.461-0.384
		c0.103-0.049,0.278-0.105,0.525-0.146c0.247-0.042,0.53-0.077,0.855-0.114c0.318-0.034,0.641-0.058,0.959-0.079
		c0.323-0.019,0.612-0.019,0.865-0.019c1.475-0.014,2.917,0.045,4.35,0.189c1.423,0.138,2.822,0.417,4.177,0.818
		c1.367,0.41,2.681,1.002,3.953,1.784c1.277,0.793,2.493,1.822,3.651,3.113c0.52,0.559,1.045,1.259,1.596,2.08
		c0.551,0.818,1.061,1.777,1.529,2.864c0.479,1.092,0.863,2.322,1.16,3.688c0.295,1.38,0.444,2.897,0.453,4.557
		c0,1.213-0.082,2.411-0.253,3.603c-0.175,1.196-0.421,2.354-0.76,3.446c-0.329,1.105-0.736,2.125-1.232,3.049
		c-0.494,0.929-1.059,1.736-1.701,2.406c-0.979,1.025-2.081,1.91-3.313,2.627c-1.241,0.723-2.566,1.274-3.988,1.66
		c-1.421,0.379-2.902,0.576-4.438,0.576c-1.452,0-2.673-0.057-3.677-0.183c-1.004-0.122-1.825-0.29-2.457-0.492
		c-0.641-0.196-1.137-0.423-1.491-0.664c-0.353-0.256-0.608-0.5-0.762-0.759c-0.132-0.202-0.23-0.538-0.304-0.989
		c-0.076-0.462-0.134-0.957-0.165-1.5c-0.034-0.538-0.059-1.026-0.076-1.478c-0.014-0.252-0.024-0.726-0.032-1.416
		c-0.013-0.691-0.024-1.534-0.034-2.559c-0.008-1.023-0.015-2.152-0.025-3.412c-0.007-1.252-0.007-2.578-0.007-3.973L85.396,16.016
		L85.396,16.016z M81.255,26.06c0,1.682,0,3.244-0.01,4.69c-0.008,1.446-0.032,2.729-0.067,3.856
		c-0.032,1.127-0.089,2.067-0.173,2.808c-0.055,0.504-0.14,0.969-0.239,1.378c-0.099,0.4-0.238,0.741-0.426,0.992
		c-0.179,0.264-0.435,0.439-0.766,0.506c-0.23,0.05-0.475,0.107-0.741,0.154c-0.262,0.031-0.51,0.053-0.736,0.053
		c-0.148,0-0.25,0.04-0.307,0.098c-0.065,0.059-0.089,0.141-0.089,0.221c0,0.164,0.064,0.26,0.188,0.319
		c0.133,0.072,0.329,0.103,0.601,0.103c0.378-0.008,0.828-0.029,1.34-0.059c0.509-0.033,1.018-0.051,1.522-0.051
		c0.526-0.021,0.979-0.047,1.338-0.047c0.363-0.007,0.574-0.007,0.636-0.007c0.088,0,0.315,0.022,0.689,0.044
		c0.37,0.035,0.845,0.07,1.433,0.126c0.579,0.043,1.24,0.098,1.97,0.144c0.717,0.055,1.464,0.106,2.255,0.15
		c0.777,0.052,1.567,0.092,2.35,0.119c0.788,0.033,1.536,0.039,2.252,0.039c2.097-0.006,3.957-0.205,5.578-0.6
		c1.625-0.395,3.039-0.902,4.25-1.521c1.205-0.616,2.225-1.262,3.071-1.95c0.842-0.688,1.524-1.332,2.047-1.94
		c0.7-0.771,1.363-1.666,2-2.67c0.632-1.027,1.199-2.149,1.702-3.384c0.5-1.251,0.896-2.593,1.185-4.049
		c0.287-1.451,0.434-2.998,0.444-4.651c-0.018-2.074-0.247-3.94-0.69-5.609c-0.453-1.659-1.036-3.135-1.758-4.411
		c-0.719-1.27-1.498-2.357-2.336-3.272c-1.185-1.279-2.465-2.305-3.845-3.089c-1.38-0.787-2.792-1.381-4.246-1.79
		c-1.459-0.398-2.896-0.687-4.309-0.835c-1.416-0.15-2.756-0.229-4.014-0.248c-1.26-0.009-2.383-0.009-3.371,0
		c-0.748,0-1.481,0.013-2.201,0.028c-0.724,0.008-1.401,0.038-2.017,0.052c-0.619,0.018-1.143,0.035-1.571,0.052
		c-0.428,0.016-0.715,0.032-0.869,0.032c-0.077,0-0.29-0.016-0.667-0.032c-0.37-0.018-0.832-0.035-1.384-0.052
		c-0.547-0.014-1.134-0.044-1.75-0.052c-0.617-0.016-1.209-0.028-1.775-0.028c-0.272,0-0.47,0.028-0.601,0.089
		c-0.123,0.075-0.189,0.176-0.189,0.335c0.011,0.1,0.053,0.182,0.123,0.236c0.084,0.049,0.175,0.075,0.274,0.075
		c0.156,0,0.335,0,0.544,0.02c0.209,0.006,0.416,0.021,0.625,0.049c0.203,0.018,0.367,0.052,0.505,0.089
		c0.537,0.11,0.955,0.298,1.252,0.538c0.302,0.238,0.511,0.558,0.64,0.963c0.126,0.392,0.207,0.888,0.231,1.482
		c0.017,0.318,0.03,0.673,0.05,1.027c0.009,0.363,0.022,0.813,0.033,1.317c0,0.512,0.008,1.159,0.008,1.933
		c0.01,0.772,0.01,1.728,0.01,2.869c0,1.143,0,2.53,0,4.152L81.255,26.06L81.255,26.06z"/>
	<path fill="#B5B5B5" d="M153.242,0.051c0.466,0,1.531,0.369,1.298,2.562c-0.229,2.191-1.298,8.02-1.298,8.02
		s-1.257-4.945-1.348-6.668C151.797,2.239,151.985-0.045,153.242,0.051"/>
</g>
</svg>
