<?xml version="1.0" encoding="utf-8"?>
<!-- Generator: Adobe Illustrator 16.0.0, SVG Export Plug-In . SVG Version: 6.00 Build 0)  -->
<!DOCTYPE svg PUBLIC "-//W3C//DTD SVG 1.1//EN" "http://www.w3.org/Graphics/SVG/1.1/DTD/svg11.dtd">
<svg version="1.1" id="Layer_1" xmlns="http://www.w3.org/2000/svg" xmlns:xlink="http://www.w3.org/1999/xlink" x="0px" y="0px"
	 width="220px" height="43.475px" viewBox="0 0 220 43.475" enable-background="new 0 0 220 43.475" xml:space="preserve">
<g>
	<g>
		<path fill="#694488" d="M28.823,6.977c-5.121,6.256-5.501,13.698-1.496,16.977c0.669,0.55,1.428,0.955,2.253,1.225
			c-0.636-0.232-1.24-0.565-1.8-0.992c-3.356-2.57-3.926-8.268,0.362-13.169c4.288-4.902,11.334-6.915,14.689-4.344
			c3.359,2.569,3.806,8.879-1.528,14.036c-3.41,3.295-6.614,4.849-9.361,4.868c3.812,0.109,8.434-2.055,12.361-6.332
			c5.744-6.257,6.064-14.534,2.057-17.813C42.355-1.848,33.945,0.721,28.823,6.977"/>
		<path fill="#0792AC" d="M31.102,15.43c-4.123,1.819-6.328,5.812-4.999,8.98c-0.945-2.653,0.92-5.906,4.329-7.41
			c3.557-1.57,7.449-0.645,8.693,2.066c1.245,2.71-0.631,6.184-4.189,7.755c-2.468,1.089-5.101,0.978-6.895-0.104
			c2.113,1.414,5.344,1.612,8.369,0.277c4.188-1.85,6.399-5.939,4.934-9.133S35.292,13.58,31.102,15.43"/>
		<path fill="#00B48D" d="M32.536,22.496c-3.058-0.213-5.656,1.313-5.841,3.412c0.201-1.798,2.456-3.098,5.104-2.915
			c2.693,0.184,4.775,1.838,4.647,3.688c-0.131,1.853-2.419,3.202-5.114,3.016c-2.316-0.161-4.177-1.403-4.572-2.923
			c0.417,1.773,2.564,3.232,5.242,3.418c3.079,0.214,5.696-1.336,5.843-3.459C37.991,24.607,35.612,22.709,32.536,22.496"/>
		<path fill="#694488" d="M20.221,6.977c5.121,6.256,5.501,13.698,1.494,16.977c-0.668,0.55-1.427,0.955-2.253,1.225
			c0.639-0.232,1.242-0.565,1.803-0.992c3.356-2.57,3.927-8.268-0.363-13.169C16.613,6.116,9.566,4.103,6.21,6.673
			c-3.357,2.569-3.805,8.879,1.53,14.036c3.408,3.295,6.614,4.849,9.36,4.868c-3.811,0.109-8.433-2.055-12.361-6.332
			C-1.002,12.987-1.325,4.711,2.683,1.431C6.69-1.848,15.1,0.721,20.221,6.977"/>
		<path fill="#0792AC" d="M17.941,15.43c4.124,1.819,6.33,5.812,5,8.98c0.944-2.653-0.921-5.906-4.328-7.41
			c-3.557-1.57-7.451-0.645-8.694,2.066c-1.244,2.71,0.633,6.184,4.188,7.755c2.471,1.089,5.102,0.978,6.896-0.104
			c-2.114,1.414-5.345,1.612-8.369,0.277c-4.188-1.85-6.398-5.939-4.933-9.133C9.167,14.669,13.752,13.58,17.941,15.43"/>
		<path fill="#00B48D" d="M16.509,22.496c3.056-0.213,5.655,1.313,5.841,3.412c-0.202-1.798-2.458-3.098-5.104-2.915
			c-2.695,0.184-4.775,1.838-4.647,3.688c0.13,1.853,2.419,3.202,5.113,3.016c2.317-0.161,4.176-1.403,4.575-2.923
			c-0.417,1.773-2.565,3.232-5.244,3.418c-3.078,0.214-5.695-1.336-5.843-3.459C11.053,24.607,13.43,22.709,16.509,22.496"/>
	</g>
	<g>
		<path fill="#010101" d="M198.286,3.209c0-0.12,0.021-0.214,0.079-0.293c0.049-0.081,0.124-0.139,0.218-0.178
			c0.128-0.037,0.313-0.077,0.558-0.116c0.244-0.034,0.536-0.059,0.858-0.083c0.336-0.023,0.681-0.035,1.051-0.035
			c1.32,0.011,2.461,0.316,3.411,0.938c0.945,0.627,1.68,1.519,2.189,2.677c0.517,1.168,0.772,2.568,0.778,4.207
			c0,0.99-0.105,1.88-0.295,2.672c-0.197,0.785-0.461,1.465-0.8,2.028c-0.326,0.561-0.718,1.003-1.153,1.321
			c-0.431,0.302-0.885,0.507-1.373,0.604c-0.477,0.097-0.94,0.141-1.394,0.136c-0.544,0-1.082-0.027-1.604-0.084
			c-0.517-0.052-0.977-0.128-1.374-0.222c-0.409-0.098-0.701-0.198-0.893-0.319c-0.091-0.059-0.161-0.13-0.195-0.207
			c-0.044-0.081-0.063-0.166-0.063-0.26V3.209z M195.336,19.473c0,1.256,0,2.424-0.003,3.506c-0.011,1.079-0.025,2.039-0.048,2.88
			c-0.026,0.842-0.07,1.546-0.133,2.099c-0.039,0.376-0.102,0.724-0.177,1.029c-0.076,0.299-0.179,0.555-0.322,0.741
			c-0.13,0.197-0.321,0.328-0.566,0.378c-0.174,0.037-0.359,0.08-0.555,0.116c-0.199,0.022-0.38,0.039-0.553,0.039
			c-0.111,0-0.188,0.03-0.227,0.072c-0.052,0.044-0.068,0.105-0.068,0.165c0,0.122,0.048,0.194,0.143,0.24
			c0.095,0.053,0.243,0.075,0.446,0.075c0.29,0,0.62-0.006,1-0.022c0.389-0.013,0.764-0.022,1.131-0.039
			c0.379-0.014,0.684-0.026,0.935-0.035c0.244-0.02,0.379-0.024,0.395-0.024c0.061,0,0.229,0.005,0.509,0.024
			c0.278,0.009,0.641,0.021,1.076,0.035c0.43,0.017,0.899,0.026,1.415,0.039c0.514,0.017,1.03,0.022,1.541,0.022
			c0.203,0,0.347-0.026,0.445-0.088c0.093-0.047,0.142-0.128,0.142-0.228c0-0.06-0.016-0.121-0.062-0.165
			c-0.048-0.042-0.123-0.072-0.233-0.072c-0.115,0-0.271-0.005-0.462-0.017c-0.196-0.021-0.395-0.044-0.613-0.059
			c-0.205-0.03-0.405-0.058-0.581-0.08c-0.365-0.048-0.644-0.181-0.841-0.378c-0.201-0.187-0.334-0.442-0.417-0.741
			c-0.091-0.306-0.151-0.653-0.182-1.029c-0.06-0.553-0.105-1.257-0.128-2.099c-0.024-0.843-0.049-1.801-0.05-2.88
			c-0.005-1.082-0.005-2.25-0.005-3.506v-0.937c0-0.097,0.017-0.174,0.062-0.229c0.035-0.059,0.104-0.088,0.195-0.088l4.532,0.082
			c0.113,0,0.197,0.021,0.272,0.061c0.064,0.036,0.14,0.093,0.209,0.173c0.188,0.261,0.428,0.602,0.719,1.03
			c0.296,0.431,0.628,0.905,0.992,1.439c0.358,0.527,0.738,1.082,1.136,1.643c0.391,0.571,0.784,1.135,1.171,1.673
			c0.693,0.98,1.318,1.848,1.871,2.594c0.555,0.748,1.082,1.389,1.573,1.919c0.496,0.528,1.011,0.932,1.532,1.237
			c0.311,0.177,0.646,0.331,0.99,0.434c0.348,0.116,0.755,0.188,1.229,0.233c0.473,0.049,1.042,0.076,1.727,0.076h2.619
			c0.327,0,0.56-0.021,0.69-0.076c0.132-0.045,0.198-0.117,0.192-0.238c0-0.06-0.035-0.121-0.098-0.165
			c-0.063-0.044-0.143-0.072-0.236-0.072c-0.108,0-0.29,0-0.543-0.015c-0.24-0.008-0.543-0.046-0.895-0.104
			c-0.305-0.038-0.687-0.142-1.129-0.306c-0.45-0.154-0.95-0.429-1.522-0.819c-0.568-0.39-1.181-0.954-1.844-1.686
			c-1.062-1.224-2.231-2.683-3.506-4.373c-1.261-1.695-2.649-3.575-4.165-5.635c1.107-1.085,1.98-2.124,2.635-3.142
			c0.655-1.015,1.122-2.008,1.411-2.985c0.277-0.977,0.423-1.94,0.418-2.904c-0.006-0.679-0.094-1.298-0.271-1.871
			c-0.172-0.573-0.389-1.08-0.657-1.537c-0.265-0.449-0.541-0.838-0.83-1.162c-0.288-0.324-0.544-0.575-0.783-0.75
			c-0.659-0.488-1.36-0.859-2.102-1.106c-0.746-0.249-1.514-0.416-2.301-0.491c-0.787-0.086-1.568-0.129-2.346-0.124
			c-0.234,0-0.516,0.01-0.853,0.015c-0.333,0.006-0.684,0.013-1.053,0.025c-0.375,0.014-0.727,0.027-1.068,0.038
			c-0.338,0.009-0.636,0.021-0.88,0.029c-0.245,0.004-0.413,0.016-0.495,0.016c-0.056,0-0.215-0.012-0.498-0.024
			c-0.276-0.014-0.621-0.026-1.033-0.039c-0.412-0.011-0.851-0.033-1.313-0.04c-0.46-0.012-0.9-0.021-1.325-0.021
			c-0.201,0-0.346,0.021-0.449,0.067c-0.092,0.056-0.142,0.131-0.142,0.25c0.011,0.075,0.04,0.136,0.095,0.176
			c0.063,0.037,0.129,0.056,0.203,0.056c0.118,0,0.249,0,0.404,0.015c0.163,0.005,0.315,0.016,0.469,0.037
			c0.151,0.014,0.273,0.04,0.384,0.066c0.397,0.083,0.708,0.223,0.931,0.402c0.228,0.178,0.382,0.417,0.481,0.719
			c0.09,0.299,0.151,0.664,0.168,1.108c0.014,0.238,0.025,0.502,0.04,0.775c0.005,0.264,0.016,0.6,0.021,0.977
			c0,0.382,0.011,0.866,0.011,1.444c0.003,0.577,0.003,1.292,0.003,2.144c0,0.854,0,1.891,0,3.103v6.88H195.336z"/>
		<path fill="#010101" d="M162.014,14.897c0.007-2.144,0.283-4.012,0.819-5.622c0.533-1.605,1.287-2.945,2.251-4.021
			c0.97-1.077,2.109-1.873,3.419-2.419c1.303-0.53,2.729-0.797,4.276-0.797c1.169,0,2.298,0.201,3.402,0.6
			c1.094,0.397,2.115,0.99,3.061,1.772c0.939,0.787,1.767,1.757,2.474,2.917c0.715,1.166,1.266,2.511,1.668,4.033
			c0.394,1.525,0.596,3.227,0.6,5.103c-0.004,1.888-0.172,3.537-0.521,4.948c-0.337,1.403-0.796,2.596-1.376,3.585
			c-0.577,0.983-1.229,1.803-1.939,2.443c-0.726,0.634-1.462,1.129-2.227,1.486c-0.763,0.354-1.491,0.607-2.204,0.743
			c-0.711,0.146-1.345,0.215-1.907,0.207c-1.662-0.007-3.208-0.358-4.641-1.057c-1.43-0.704-2.673-1.71-3.744-3.02
			c-1.071-1.308-1.901-2.878-2.499-4.718C162.327,19.245,162.028,17.177,162.014,14.897 M158.514,15.996
			c0,1.176,0.114,2.371,0.354,3.581c0.236,1.207,0.61,2.383,1.108,3.524c0.495,1.144,1.13,2.216,1.901,3.212
			c0.767,0.997,1.682,1.868,2.741,2.624c1.055,0.748,2.263,1.349,3.629,1.771c1.357,0.429,2.882,0.642,4.566,0.647
			c1.78-0.006,3.427-0.277,4.938-0.816c1.519-0.542,2.878-1.305,4.074-2.29c1.203-0.98,2.229-2.14,3.08-3.471
			c0.844-1.327,1.491-2.785,1.938-4.387c0.447-1.589,0.671-3.264,0.678-5.024c-0.007-1.826-0.241-3.501-0.714-5.025
			c-0.468-1.523-1.13-2.877-1.997-4.071c-0.865-1.192-1.898-2.202-3.099-3.026c-1.196-0.833-2.521-1.457-3.985-1.886
			c-1.462-0.431-3.031-0.653-4.692-0.653c-1.697,0.01-3.23,0.243-4.61,0.692c-1.376,0.454-2.605,1.074-3.68,1.868
			c-1.074,0.781-2.002,1.688-2.786,2.704c-0.79,1.023-1.437,2.102-1.944,3.246c-0.511,1.144-0.889,2.288-1.136,3.443
			C158.635,13.819,158.514,14.933,158.514,15.996z"/>
		<path fill="#010101" d="M136.518,23.778l-9.623-22.485c-0.08-0.186-0.262-0.539-0.639-0.562h-4.458v0.351
			c0,0,2.384-0.11,2.728,2.789l-1.87,23.03c-0.042,0.503-0.099,0.983-0.172,1.447c-0.076,0.465-0.201,0.856-0.391,1.186
			c-0.188,0.317-0.473,0.527-0.856,0.607c-0.263,0.059-0.468,0.098-0.628,0.105c-0.15,0.014-0.301,0.014-0.435,0.014
			c-0.097,0-0.173,0.025-0.245,0.058c-0.071,0.035-0.105,0.082-0.11,0.141c0.005,0.139,0.059,0.228,0.17,0.279
			c0.108,0.053,0.258,0.075,0.433,0.075c0.249,0,0.52-0.006,0.827-0.022c0.302-0.013,0.604-0.022,0.904-0.039
			c0.296-0.014,0.557-0.026,0.78-0.035c0.228-0.02,0.387-0.024,0.469-0.024c0.076,0,0.226,0.005,0.449,0.024
			c0.225,0.009,0.497,0.021,0.818,0.035c0.315,0.017,0.646,0.026,1.005,0.039c0.354,0.017,0.698,0.022,1.026,0.022
			c0.215,0,0.374-0.022,0.481-0.075c0.107-0.052,0.159-0.143,0.159-0.279c0-0.058-0.03-0.105-0.089-0.141
			c-0.054-0.032-0.12-0.058-0.196-0.058c-0.112,0-0.291-0.014-0.525-0.037c-0.244-0.026-0.517-0.081-0.823-0.152
			c-0.271-0.07-0.489-0.208-0.663-0.432c-0.163-0.223-0.252-0.484-0.259-0.783c0-0.334,0.004-0.675,0.007-1.008
			c0.001-0.343,0.007-0.674,0.03-0.991l1.313-19.318h0.142c3.231,7.795,6.416,14.803,9.456,22.255l0.299,0.524l0.309,0.012
			c0.045-0.062,0.091-0.162,0.127-0.286l0.004-0.004c3.615-7.955,6.629-15.703,9.369-22.421c0.182-0.448,0.306-0.758,0.367-0.912
			h0.141l1.661,20.12c0.026,0.313,0.026,0.645,0.031,0.979c0,0.343,0.009,0.682,0.006,1.019c-0.006,0.294-0.097,0.558-0.263,0.78
			c-0.168,0.223-0.39,0.361-0.66,0.427c-0.31,0.078-0.58,0.133-0.823,0.158c-0.234,0.027-0.417,0.037-0.528,0.037
			c-0.076,0-0.141,0.021-0.192,0.056c-0.061,0.039-0.089,0.08-0.089,0.142c0,0.138,0.053,0.228,0.156,0.276
			c0.109,0.058,0.265,0.078,0.481,0.078c0.332,0,0.672-0.009,1.025-0.021c0.359-0.014,0.688-0.027,1.009-0.039
			c0.316-0.017,0.593-0.026,0.814-0.04c0.228-0.012,0.375-0.022,0.45-0.022c0.084,0,0.242,0.013,0.468,0.022
			c0.224,0.014,0.485,0.021,0.78,0.04c0.3,0.012,0.604,0.025,0.906,0.039c0.306,0.014,0.577,0.021,0.826,0.021
			c0.177,0,0.328-0.021,0.431-0.078c0.11-0.052,0.176-0.139,0.176-0.276c0-0.06-0.043-0.105-0.112-0.142
			c-0.074-0.038-0.151-0.056-0.242-0.056c-0.135,0-0.285,0-0.439-0.01c-0.164-0.015-0.365-0.047-0.628-0.107
			c-0.38-0.082-0.67-0.291-0.857-0.609c-0.188-0.328-0.314-0.724-0.389-1.188c-0.074-0.46-0.143-0.94-0.175-1.443l-1.448-23
			c0.345-2.898,2.728-2.789,2.728-2.789V0.73h-4.457c-0.381,0.024-0.566,0.374-0.64,0.561l-9.415,23.399
			C136.805,24.44,136.596,23.956,136.518,23.778"/>
		<path fill="#010101" d="M94.149,19.473c0,1.256,0,2.424-0.008,3.499c-0.006,1.086-0.024,2.046-0.049,2.889
			c-0.023,0.84-0.066,1.544-0.131,2.097c-0.04,0.376-0.103,0.724-0.178,1.021c-0.071,0.308-0.176,0.558-0.317,0.75
			c-0.135,0.197-0.326,0.329-0.571,0.378c-0.173,0.036-0.358,0.079-0.554,0.116c-0.196,0.023-0.379,0.039-0.553,0.039
			c-0.111,0-0.184,0.029-0.228,0.073c-0.049,0.044-0.068,0.104-0.068,0.165c0,0.12,0.051,0.194,0.141,0.238
			c0.099,0.053,0.248,0.075,0.449,0.075c0.282-0.004,0.622-0.021,1.003-0.042c0.38-0.025,0.758-0.038,1.138-0.038
			c0.392-0.017,0.729-0.036,0.999-0.036c0.27-0.005,0.429-0.005,0.472-0.005c0.273,0,0.64,0.005,1.108,0.026
			c0.466,0.02,1.055,0.051,1.77,0.095c0.717,0.016,1.59,0.044,2.616,0.067c1.031,0.03,2.235,0.045,3.611,0.045
			c0.473,0.009,0.844,0,1.099-0.033c0.258-0.035,0.451-0.121,0.58-0.265c0.127-0.146,0.232-0.382,0.313-0.719
			c0.036-0.165,0.08-0.392,0.123-0.674c0.042-0.287,0.087-0.594,0.12-0.917c0.045-0.336,0.089-0.656,0.12-0.964
			c0.038-0.31,0.061-0.579,0.085-0.803c0.021-0.217,0.03-0.367,0.03-0.429c0.008-0.147-0.005-0.277-0.023-0.4
			c-0.026-0.118-0.092-0.187-0.197-0.188c-0.092,0-0.16,0.033-0.208,0.13c-0.05,0.091-0.089,0.237-0.125,0.458
			c-0.122,0.792-0.313,1.404-0.563,1.848c-0.258,0.435-0.619,0.762-1.093,0.967c-0.327,0.142-0.708,0.24-1.131,0.298
			c-0.423,0.063-0.855,0.1-1.277,0.114c-0.422,0.016-0.804,0.016-1.13,0.016c-0.896,0.005-1.622-0.036-2.175-0.126
			c-0.56-0.084-0.982-0.241-1.277-0.47c-0.295-0.232-0.498-0.551-0.616-0.968c-0.115-0.427-0.188-0.973-0.208-1.638
			c-0.006-0.185-0.011-0.479-0.011-0.888c-0.005-0.416-0.005-0.895-0.005-1.448c0.005-0.542,0.005-1.097,0.005-1.663
			c0.005-0.569,0.005-1.086,0.005-1.563c0.006-0.479,0.006-0.855,0.006-1.129v-3.441c0-0.077,0.021-0.141,0.062-0.194
			c0.036-0.051,0.106-0.079,0.196-0.079c0.136,0,0.363,0,0.694,0.007c0.326,0.012,0.713,0.021,1.143,0.028
			c0.436,0.015,0.878,0.022,1.327,0.045c0.454,0.016,0.866,0.032,1.235,0.053c0.375,0.021,0.663,0.036,0.874,0.064
			c0.471,0.052,0.84,0.154,1.104,0.302c0.257,0.148,0.448,0.308,0.573,0.501c0.115,0.187,0.195,0.375,0.238,0.566
			c0.074,0.251,0.118,0.482,0.13,0.693c0.017,0.203,0.024,0.399,0.017,0.597c0,0.094,0.017,0.181,0.063,0.248
			c0.036,0.063,0.104,0.104,0.197,0.104c0.084-0.008,0.146-0.046,0.184-0.123c0.036-0.078,0.054-0.177,0.062-0.289
			c0.013-0.114,0.013-0.229,0.013-0.333c0-0.071,0.005-0.203,0.011-0.395c0.004-0.188,0.017-0.412,0.036-0.664
			c0.013-0.246,0.026-0.505,0.042-0.757c0.021-0.256,0.04-0.481,0.055-0.682c0.062-0.643,0.125-1.144,0.191-1.496
			c0.063-0.348,0.098-0.585,0.105-0.696c0-0.12-0.02-0.199-0.049-0.247c-0.037-0.046-0.081-0.066-0.135-0.066
			c-0.074,0-0.147,0.042-0.233,0.139c-0.085,0.092-0.191,0.211-0.32,0.37c-0.158,0.187-0.378,0.317-0.657,0.385
			c-0.278,0.075-0.633,0.131-1.075,0.167c-0.148,0.007-0.383,0.021-0.695,0.024c-0.32,0.01-0.681,0.02-1.093,0.02
			c-0.418,0.011-0.842,0.016-1.277,0.016c-0.444,0.008-0.862,0.008-1.254,0.014c-0.391,0-0.726,0-1,0c-0.277,0-0.456,0-0.541,0
			c-0.093,0-0.152-0.034-0.18-0.09c-0.033-0.066-0.045-0.165-0.045-0.298V3.171c0-0.137,0.021-0.231,0.056-0.299
			c0.039-0.066,0.095-0.094,0.169-0.094c0.089,0,0.293,0,0.619,0.011c0.327,0,0.706,0.004,1.157,0.01
			c0.441,0.007,0.891,0.015,1.342,0.021c0.45,0.014,0.855,0.016,1.204,0.032c0.353,0.016,0.59,0.028,0.727,0.044
			c0.657,0.078,1.156,0.186,1.504,0.311c0.352,0.128,0.602,0.276,0.761,0.446c0.162,0.174,0.277,0.366,0.351,0.576
			c0.063,0.157,0.106,0.331,0.141,0.506c0.033,0.184,0.049,0.358,0.062,0.514c0.013,0.163,0.021,0.285,0.021,0.383
			c0,0.16,0.016,0.283,0.065,0.373c0.044,0.091,0.118,0.141,0.226,0.141c0.076-0.006,0.129-0.055,0.174-0.143
			c0.036-0.094,0.065-0.185,0.086-0.293c0.019-0.122,0.039-0.301,0.056-0.543c0.019-0.24,0.037-0.495,0.049-0.778
			c0.019-0.266,0.03-0.525,0.044-0.751c0.019-0.226,0.031-0.397,0.034-0.502c0.063-0.545,0.124-0.945,0.193-1.224
			c0.059-0.28,0.097-0.484,0.104-0.617c0-0.094-0.014-0.178-0.031-0.243c-0.026-0.068-0.063-0.109-0.118-0.109
			c-0.093,0.01-0.177,0.036-0.257,0.088c-0.083,0.044-0.169,0.087-0.259,0.11c-0.154,0.039-0.362,0.077-0.64,0.108
			c-0.274,0.043-0.592,0.067-0.946,0.084c-0.128,0.009-0.369,0.017-0.719,0.017c-0.354,0.005-0.779,0.005-1.277,0.013
			c-0.507,0-1.034,0.004-1.6,0.004c-0.568,0-1.129,0-1.683,0c-0.554,0.012-1.063,0.012-1.523,0.012c-0.467,0-0.842,0-1.137,0
			c-0.293,0-0.461,0-0.505,0l-1.51-0.083c-0.413-0.018-0.846-0.03-1.315-0.03c-0.461-0.01-0.909-0.01-1.339-0.01
			c-0.2,0-0.349,0.021-0.449,0.067c-0.09,0.056-0.142,0.131-0.142,0.25c0.007,0.075,0.038,0.136,0.095,0.176
			c0.061,0.037,0.126,0.057,0.201,0.057c0.117,0,0.252,0,0.407,0.015c0.159,0.004,0.313,0.016,0.467,0.037
			c0.152,0.014,0.277,0.039,0.378,0.066c0.403,0.083,0.713,0.224,0.938,0.403c0.224,0.177,0.379,0.417,0.475,0.719
			c0.094,0.293,0.155,0.663,0.175,1.108c0.012,0.237,0.023,0.502,0.035,0.775c0.007,0.263,0.019,0.599,0.024,0.977
			c0,0.382,0.006,0.866,0.006,1.444c0.008,0.577,0.008,1.291,0.008,2.144c0,0.854,0,1.891,0,3.103v6.88H94.149z"/>
		<path fill="#010101" d="M63.81,11.968c0-0.764,0-1.559,0-2.385c0-0.83,0-1.631,0.005-2.41c0-0.776,0.007-1.478,0.013-2.092
			c0-0.619,0.014-1.1,0.022-1.438c0-0.218,0.028-0.375,0.096-0.499c0.065-0.117,0.177-0.215,0.345-0.287
			c0.077-0.037,0.208-0.079,0.392-0.109c0.185-0.032,0.396-0.057,0.64-0.085c0.237-0.025,0.479-0.043,0.716-0.059
			c0.242-0.015,0.458-0.015,0.646-0.015c1.102-0.01,2.18,0.034,3.25,0.142c1.063,0.103,2.109,0.312,3.122,0.611
			c1.021,0.306,2.003,0.749,2.953,1.333c0.955,0.592,1.863,1.361,2.729,2.326c0.388,0.417,0.781,0.94,1.193,1.554
			c0.411,0.611,0.793,1.328,1.142,2.14c0.358,0.815,0.645,1.734,0.867,2.756c0.221,1.031,0.332,2.164,0.338,3.405
			c0,0.906-0.062,1.802-0.189,2.691c-0.13,0.894-0.314,1.759-0.567,2.574c-0.246,0.827-0.551,1.588-0.921,2.279
			c-0.369,0.694-0.791,1.297-1.271,1.797c-0.731,0.767-1.555,1.428-2.476,1.963c-0.927,0.54-1.917,0.953-2.979,1.241
			c-1.063,0.283-2.169,0.431-3.317,0.431c-1.085,0-1.997-0.042-2.747-0.136c-0.75-0.093-1.364-0.218-1.836-0.368
			c-0.479-0.147-0.849-0.316-1.114-0.496c-0.264-0.191-0.455-0.373-0.569-0.567c-0.099-0.15-0.171-0.402-0.228-0.738
			c-0.056-0.347-0.1-0.716-0.123-1.121c-0.025-0.402-0.044-0.769-0.057-1.105c-0.01-0.188-0.018-0.541-0.024-1.058
			c-0.01-0.517-0.018-1.146-0.025-1.912c-0.006-0.765-0.012-1.607-0.019-2.549c-0.005-0.936-0.005-1.927-0.005-2.969L63.81,11.968
			L63.81,11.968z M60.715,19.473c0,1.256,0,2.424-0.007,3.506c-0.006,1.079-0.024,2.039-0.05,2.88
			c-0.024,0.842-0.067,1.546-0.129,2.099c-0.041,0.376-0.104,0.724-0.179,1.029c-0.074,0.299-0.178,0.555-0.318,0.741
			c-0.134,0.197-0.325,0.328-0.572,0.378c-0.172,0.037-0.355,0.08-0.554,0.116c-0.196,0.022-0.381,0.039-0.55,0.039
			c-0.11,0-0.187,0.03-0.229,0.072c-0.049,0.044-0.066,0.105-0.066,0.165c0,0.122,0.047,0.194,0.14,0.24
			c0.099,0.053,0.246,0.075,0.449,0.075c0.283-0.006,0.619-0.022,1.001-0.044c0.38-0.025,0.76-0.038,1.137-0.038
			c0.393-0.016,0.732-0.035,1-0.035c0.271-0.004,0.429-0.004,0.476-0.004c0.066,0,0.235,0.016,0.515,0.032
			c0.276,0.025,0.631,0.053,1.071,0.095c0.433,0.032,0.926,0.073,1.472,0.106c0.536,0.041,1.094,0.08,1.685,0.113
			c0.581,0.039,1.171,0.066,1.756,0.086c0.589,0.027,1.148,0.031,1.683,0.031c1.567-0.004,2.957-0.154,4.168-0.448
			c1.214-0.294,2.271-0.674,3.175-1.136c0.901-0.461,1.663-0.943,2.295-1.457c0.629-0.516,1.139-0.995,1.53-1.451
			c0.523-0.576,1.018-1.245,1.495-1.995c0.472-0.767,0.896-1.605,1.271-2.527c0.374-0.936,0.669-1.938,0.885-3.025
			c0.214-1.085,0.325-2.24,0.332-3.476c-0.013-1.55-0.185-2.944-0.516-4.191c-0.338-1.239-0.774-2.342-1.313-3.296
			c-0.538-0.949-1.12-1.761-1.746-2.445c-0.885-0.956-1.842-1.723-2.873-2.308c-1.031-0.588-2.086-1.032-3.173-1.337
			c-1.09-0.297-2.165-0.513-3.219-0.624c-1.058-0.112-2.06-0.171-3-0.186c-0.941-0.006-1.78-0.006-2.519,0
			c-0.559,0-1.106,0.01-1.644,0.021c-0.541,0.006-1.047,0.029-1.507,0.039c-0.462,0.013-0.854,0.026-1.174,0.039
			c-0.319,0.012-0.534,0.024-0.649,0.024c-0.057,0-0.216-0.012-0.498-0.024c-0.277-0.014-0.622-0.026-1.035-0.039
			c-0.409-0.01-0.847-0.033-1.308-0.039c-0.46-0.012-0.903-0.021-1.326-0.021c-0.204,0-0.352,0.021-0.449,0.067
			c-0.092,0.056-0.141,0.131-0.141,0.25c0.009,0.075,0.04,0.136,0.092,0.176c0.063,0.037,0.131,0.057,0.205,0.057
			c0.117,0,0.25,0,0.406,0.015c0.156,0.004,0.311,0.016,0.467,0.037c0.152,0.014,0.274,0.039,0.377,0.066
			c0.401,0.083,0.714,0.224,0.936,0.403C60.214,2.5,60.37,2.74,60.467,3.042c0.094,0.293,0.154,0.663,0.172,1.108
			c0.013,0.237,0.022,0.502,0.038,0.767c0.006,0.271,0.016,0.607,0.024,0.984c0,0.382,0.006,0.866,0.006,1.444
			c0.008,0.577,0.008,1.292,0.008,2.144c0,0.854,0,1.891,0,3.103L60.715,19.473L60.715,19.473z"/>
		<path fill="#010101" d="M114.505,0.039c0.349,0,1.146,0.276,0.972,1.914c-0.172,1.638-0.972,5.993-0.972,5.993
			s-0.938-3.695-1.006-4.983C113.425,1.674,113.566-0.033,114.505,0.039"/>
	</g>
</g>
<g>
	<path fill="#010101" d="M57.505,38.701v-0.113c0.042-0.011,0.075-0.017,0.1-0.02l0.347-0.019c0.288-0.025,0.609-0.047,0.966-0.062
		c0.142-0.006,0.367-0.008,0.675-0.008c0.418,0,0.724,0.031,0.918,0.093c0.283,0.09,0.494,0.228,0.633,0.411
		c0.138,0.182,0.208,0.386,0.208,0.61c0,0.363-0.26,0.669-0.778,0.917l-0.018,0.029c0.265,0.07,0.483,0.17,0.652,0.299
		c0.17,0.128,0.3,0.283,0.391,0.469c0.066,0.134,0.1,0.312,0.1,0.53c0,0.368-0.167,0.693-0.5,0.98
		c-0.333,0.287-0.792,0.431-1.377,0.431h-0.549l-0.557,0.019c-0.492,0.004-0.779,0.007-0.863,0.007
		c-0.086,0-0.171-0.004-0.255-0.012v-0.041c0-0.031,0.006-0.052,0.019-0.064c0.015-0.015,0.043-0.028,0.084-0.038
		c0.307-0.063,0.481-0.108,0.521-0.13c0.041-0.023,0.068-0.061,0.083-0.112c0.03-0.099,0.045-0.352,0.045-0.76
		c0-0.035-0.002-0.083-0.004-0.139c-0.005-0.166-0.007-0.26-0.007-0.284v-0.383c0-0.647-0.007-1.214-0.022-1.697l-0.004-0.74
		l-0.004-0.093c-0.209-0.028-0.393-0.047-0.553-0.054C57.653,38.725,57.569,38.717,57.505,38.701z M58.966,40.564
		c0.124,0.025,0.253,0.037,0.388,0.037c0.533,0,0.893-0.117,1.083-0.352c0.189-0.233,0.284-0.466,0.284-0.696
		c0-0.103-0.017-0.208-0.05-0.315c-0.034-0.106-0.092-0.203-0.177-0.289c-0.085-0.087-0.19-0.15-0.316-0.192
		c-0.214-0.071-0.434-0.107-0.658-0.107c-0.209,0-0.404,0.024-0.583,0.07c-0.003,0.052-0.004,0.09-0.004,0.114
		c0,0.025,0.002,0.096,0.008,0.211c0.003,0.074,0.004,0.146,0.004,0.221l-0.012,0.446l0.004,0.266l0.025,0.521L58.966,40.564z
		 M59.834,43.072c0.244-0.018,0.449-0.068,0.613-0.155c0.077-0.038,0.167-0.108,0.272-0.211c0.104-0.104,0.185-0.225,0.244-0.368
		c0.058-0.142,0.087-0.281,0.087-0.413c0-0.1-0.021-0.225-0.061-0.372c-0.042-0.148-0.11-0.277-0.208-0.389
		c-0.098-0.112-0.242-0.203-0.434-0.276s-0.404-0.109-0.636-0.109c-0.448,0-0.7,0.01-0.753,0.024
		c-0.002,0.059-0.003,0.1-0.003,0.127l0.003,0.137l-0.003,0.276v0.313c0.007,0.578,0.02,0.919,0.041,1.024
		c0.019,0.106,0.086,0.198,0.201,0.274C59.312,43.03,59.524,43.07,59.834,43.072z"/>
	<path fill="#010101" d="M63.486,38.518h0.178c0.064,0,0.204,0.003,0.42,0.009c0.334,0.013,0.612,0.02,0.833,0.02l0.432-0.007
		c0.062,0,0.121,0.005,0.177,0.016c0.017,0.02,0.026,0.04,0.026,0.063v0.04l-0.093,0.044h-0.041l-0.208,0.005l-0.108-0.005
		c-0.084,0-0.152,0.019-0.203,0.056c-0.04,0.027-0.059,0.055-0.059,0.085c0,0.032,0.017,0.073,0.051,0.122
		c0.013,0.02,0.033,0.05,0.059,0.088c0.049,0.084,0.115,0.182,0.196,0.292c0.116,0.162,0.239,0.354,0.369,0.576
		c0.052,0.088,0.105,0.174,0.163,0.254l0.561,0.85c0.037-0.048,0.087-0.115,0.152-0.208l0.532-0.764l0.614-0.918
		c0.054-0.083,0.086-0.146,0.096-0.185c0.005-0.02,0.007-0.041,0.007-0.063c0-0.052-0.023-0.093-0.07-0.125
		c-0.076-0.051-0.241-0.09-0.495-0.113c-0.017-0.004-0.04-0.008-0.07-0.012c-0.017-0.029-0.026-0.055-0.026-0.073
		c0-0.017,0.002-0.032,0.004-0.049l0.192-0.004l0.693,0.018l0.557-0.01c0.015,0,0.066,0.001,0.155,0.003l-0.011,0.129
		c-0.017,0.006-0.044,0.009-0.081,0.012l-0.089,0.012c-0.015,0.001-0.038,0.004-0.07,0.007c-0.052,0.02-0.092,0.04-0.122,0.063
		c-0.361,0.381-0.669,0.741-0.922,1.08c-0.253,0.34-0.467,0.649-0.642,0.926c-0.056,0.092-0.102,0.159-0.136,0.203
		c-0.064,0.084-0.103,0.145-0.115,0.185c-0.026,0.096-0.04,0.241-0.04,0.436c0,0.767,0.014,1.219,0.04,1.357
		c0.015,0.068,0.036,0.11,0.06,0.125c0.063,0.032,0.318,0.071,0.764,0.115v0.043c0,0.027-0.009,0.063-0.026,0.104l-0.946-0.04
		l-0.631,0.033h-0.518c-0.049,0-0.104-0.002-0.163-0.004c-0.009-0.027-0.014-0.046-0.014-0.059s0.003-0.03,0.011-0.052
		c0.018-0.016,0.035-0.023,0.052-0.025l0.478-0.074c0.165-0.054,0.258-0.091,0.277-0.11c0.03-0.029,0.048-0.075,0.056-0.137
		c0.003-0.044,0.004-0.386,0.004-1.024c0-0.24-0.008-0.387-0.024-0.438c-0.016-0.054-0.068-0.145-0.157-0.278l-0.483-0.733
		l-0.822-1.2c-0.143-0.207-0.267-0.345-0.373-0.416c-0.046-0.032-0.164-0.058-0.35-0.072c-0.02,0-0.049-0.004-0.088-0.009
		L63.486,38.518z"/>
	<path fill="#010101" d="M73.516,43.197c0.091-0.039,0.197-0.064,0.318-0.077c0.174-0.019,0.304-0.062,0.391-0.125
		c0.066-0.136,0.099-0.48,0.099-1.034v-0.583l0.008-0.352l-0.008-0.258l0.008-0.477l-0.011-1.199c0-0.135-0.02-0.224-0.059-0.265
		c-0.057-0.062-0.207-0.118-0.45-0.171c-0.101-0.021-0.163-0.043-0.185-0.06c-0.022-0.019-0.035-0.055-0.041-0.106
		c0.056-0.013,0.096-0.018,0.118-0.018h0.262l0.137-0.004c0.091,0,0.191,0.009,0.302,0.029c0.227,0.015,0.458,0.021,0.697,0.021
		c0.068,0,0.167-0.003,0.295-0.011c0.34-0.02,0.583-0.029,0.73-0.029c0.298,0,0.578,0.029,0.842,0.088
		c0.265,0.059,0.537,0.169,0.817,0.329c0.174,0.101,0.354,0.26,0.537,0.478c0.183,0.217,0.322,0.454,0.417,0.712
		c0.095,0.256,0.142,0.546,0.142,0.868c0,0.287-0.052,0.573-0.156,0.856c-0.105,0.281-0.25,0.527-0.437,0.734
		c-0.188,0.208-0.377,0.364-0.569,0.47c-0.191,0.104-0.484,0.194-0.877,0.271c-0.162,0.029-0.454,0.045-0.875,0.045
		c-0.277,0-0.503-0.008-0.678-0.026c-0.068-0.01-0.143-0.015-0.221-0.015c-0.012,0-0.026,0-0.041,0.004l-1.505,0.029l-0.008-0.029
		c-0.004-0.013-0.007-0.025-0.007-0.042L73.516,43.197z M75.393,43.051c0.187,0.064,0.376,0.096,0.568,0.096
		c0.248,0,0.492-0.039,0.73-0.116c0.239-0.078,0.449-0.188,0.632-0.329c0.184-0.141,0.333-0.301,0.452-0.479
		c0.118-0.179,0.202-0.338,0.251-0.482c0.068-0.208,0.104-0.479,0.104-0.815c0-0.319-0.068-0.644-0.203-0.973
		c-0.093-0.229-0.258-0.447-0.493-0.657c-0.234-0.209-0.512-0.361-0.832-0.459s-0.665-0.146-1.036-0.146
		c-0.256,0-0.446,0.029-0.568,0.086c-0.015,0.015-0.029,0.031-0.043,0.053c-0.015,0.06-0.023,0.117-0.023,0.169
		c0,0.031,0.001,0.069,0.004,0.114c0.007,0.285,0.01,0.513,0.01,0.686l-0.003,0.837c0,1.229,0.022,1.915,0.068,2.053
		C75.057,42.825,75.185,42.946,75.393,43.051z"/>
	<path fill="#010101" d="M80.947,43.212c0.025-0.022,0.045-0.036,0.063-0.04c0.042-0.013,0.113-0.021,0.214-0.03
		c0.239-0.014,0.387-0.037,0.443-0.064c0.035-0.05,0.052-0.119,0.052-0.209l-0.004-0.258l0.004-0.938l-0.008-0.443l0.004-0.928
		l-0.019-1.052c-0.003-0.252-0.019-0.393-0.047-0.426c-0.044-0.047-0.176-0.074-0.395-0.081c-0.093-0.003-0.176-0.01-0.248-0.022
		c-0.032-0.017-0.047-0.039-0.047-0.065c0-0.021,0.006-0.043,0.018-0.07c0.022-0.013,0.042-0.02,0.06-0.02
		c0.034,0,0.076,0.001,0.125,0.004c0.146,0.016,0.295,0.023,0.45,0.023l0.272-0.008l0.649,0.015c0.325,0,0.579-0.004,0.76-0.011
		c0.182-0.008,0.305-0.012,0.369-0.012c0.057,0,0.197,0.005,0.421,0.016l0.523-0.004l0.063,0.011l0.307-0.011l0.037,0.019
		c0.012,0.019,0.02,0.041,0.025,0.062c0,0.035-0.005,0.088-0.017,0.16c-0.011,0.07-0.017,0.114-0.017,0.132
		c0,0.256,0.009,0.472,0.026,0.649c-0.002,0.015-0.01,0.024-0.021,0.028c-0.027,0-0.051-0.003-0.073-0.012
		c-0.026-0.045-0.063-0.127-0.109-0.245c-0.045-0.118-0.113-0.255-0.205-0.409c-0.062-0.104-0.109-0.165-0.144-0.186
		c-0.034-0.02-0.106-0.029-0.214-0.029c-0.023,0-0.134-0.002-0.336-0.008c-0.054-0.002-0.107-0.002-0.158-0.002l-1.052,0.021h-0.093
		c-0.136,0-0.216,0.017-0.243,0.051c-0.042,0.06-0.063,0.232-0.063,0.521c0,0.029,0.006,0.325,0.019,0.885v0.514
		c0.027,0.007,0.057,0.01,0.089,0.01h0.063c0.042,0,0.103,0.002,0.185,0.004c0.128,0.006,0.214,0.008,0.258,0.008
		c0.029,0,0.055-0.001,0.078-0.004c0.265-0.01,0.607-0.015,1.024-0.015c0.131-0.021,0.208-0.047,0.229-0.077
		c0.037-0.044,0.064-0.16,0.083-0.347c0.019-0.187,0.06-0.293,0.124-0.317c0.032,0,0.062,0.007,0.088,0.019
		c0.005,0.02,0.008,0.038,0.008,0.056c0,0.016-0.002,0.045-0.008,0.083c-0.012,0.093-0.019,0.378-0.019,0.856
		c0,0.129,0.007,0.271,0.021,0.429c0.014,0.157,0.021,0.241,0.021,0.254c0,0.022-0.004,0.053-0.011,0.088
		c-0.02,0.011-0.036,0.017-0.048,0.017h-0.026c-0.04-0.07-0.078-0.176-0.115-0.322c-0.064-0.248-0.131-0.403-0.2-0.467
		c-0.071-0.063-0.185-0.093-0.341-0.093c-0.035,0-0.098,0.001-0.188,0.006c-0.091,0.003-0.226,0.005-0.406,0.005h-0.239
		c-0.342,0-0.566,0.008-0.672,0.021l-0.003,0.122l0.003,0.68l-0.003,0.428l0.003,0.419c0.002,0.25,0.019,0.396,0.048,0.436
		c0.042,0.055,0.133,0.081,0.272,0.081l0.225-0.003c0.021,0,0.097,0.002,0.23,0.004c0.134,0.005,0.3,0.008,0.497,0.008
		c0.475,0,0.791-0.021,0.947-0.062c0.157-0.041,0.288-0.114,0.389-0.217c0.103-0.104,0.23-0.327,0.386-0.669
		c0.046-0.103,0.093-0.153,0.14-0.153c0.022,0,0.046,0.01,0.074,0.03c-0.072,0.243-0.112,0.403-0.122,0.479
		c-0.027,0.173-0.043,0.349-0.048,0.527c0,0.081-0.019,0.149-0.059,0.203h-0.081l-1.036,0.012l-0.465-0.004l-1.106,0.015h-0.45
		c-0.057,0-0.109,0.002-0.159,0.004c-0.442,0.02-0.769,0.029-0.977,0.029c-0.037,0-0.062-0.006-0.076-0.019
		c-0.014-0.012-0.02-0.029-0.02-0.054L80.947,43.212z"/>
	<path fill="#010101" d="M87.16,38.694l-0.004-0.059c0.035-0.044,0.132-0.067,0.292-0.067l0.342,0.005l0.199,0.003l0.088-0.003
		c0.321,0,0.515,0.004,0.582,0.015c0.002,0.029,0.003,0.051,0.003,0.066c0,0.021-0.002,0.054-0.008,0.095l-0.351,0.015
		c-0.017,0.003-0.04,0.01-0.069,0.019c-0.01,0.024-0.015,0.043-0.015,0.056c0,0.016,0.007,0.039,0.022,0.07
		c0.02,0.043,0.038,0.085,0.055,0.133l0.232,0.649l0.553,1.387c0.064,0.17,0.107,0.28,0.129,0.327
		c0.069,0.155,0.156,0.372,0.262,0.65c0.037,0.095,0.125,0.304,0.265,0.622c0.007,0.021,0.022,0.053,0.044,0.097
		c0.111-0.18,0.273-0.493,0.487-0.94c0.167-0.344,0.272-0.581,0.313-0.713l-0.029-0.074l-0.634-1.439
		c-0.083-0.18-0.149-0.322-0.195-0.429c-0.096-0.222-0.166-0.348-0.211-0.38c-0.044-0.031-0.175-0.054-0.393-0.066l-0.077-0.019
		c-0.021-0.021-0.03-0.046-0.03-0.075c0.004-0.022,0.016-0.038,0.033-0.05c0.078-0.004,0.134-0.004,0.166-0.004l0.232,0.008
		l0.118-0.004h0.203l0.181-0.004h0.192l0.347-0.02c0.022,0,0.055,0.001,0.099,0.004l0.059-0.004c0.034,0,0.06,0.01,0.078,0.024
		c0.017,0.017,0.026,0.034,0.026,0.054c0,0.019-0.006,0.037-0.015,0.059c-0.039,0.016-0.109,0.027-0.21,0.037
		c-0.145,0.018-0.229,0.033-0.252,0.048c-0.024,0.015-0.035,0.035-0.035,0.059c0,0.048,0.094,0.295,0.285,0.741l0.377,0.853
		c0.115-0.226,0.271-0.583,0.47-1.069c0.083-0.202,0.125-0.35,0.125-0.446c0-0.051-0.021-0.099-0.063-0.141
		c-0.031-0.028-0.103-0.048-0.213-0.059l-0.078-0.012l-0.066-0.027l-0.003-0.03c0-0.016,0.005-0.036,0.018-0.063
		c0.024-0.021,0.046-0.031,0.066-0.034c0.037-0.006,0.208,0.001,0.513,0.019h0.25l0.155,0.004l0.258-0.004
		c0.02,0.003,0.049,0.008,0.088,0.019c0.02,0.019,0.029,0.038,0.029,0.055c0,0.027-0.01,0.05-0.031,0.067
		c-0.021,0.018-0.068,0.031-0.142,0.044c-0.187,0.032-0.327,0.081-0.42,0.147c-0.062,0.047-0.117,0.113-0.167,0.199l-0.268,0.598
		c-0.064,0.183-0.117,0.317-0.159,0.409c-0.017,0.056-0.049,0.131-0.096,0.225l-0.15,0.351c0.027,0.064,0.073,0.168,0.136,0.31
		l0.38,0.882c0.017,0.039,0.068,0.149,0.153,0.329c0.085,0.179,0.155,0.346,0.212,0.497l0.055-0.177l0.008-0.019l0.224-0.587
		c0.079-0.179,0.157-0.367,0.236-0.567l0.284-0.716l0.427-1.217c0.045-0.141,0.08-0.276,0.107-0.405l0.011-0.06
		c0.007-0.026,0.011-0.046,0.011-0.06c0-0.034-0.018-0.065-0.052-0.094c-0.034-0.027-0.156-0.067-0.366-0.117
		c-0.019-0.005-0.039-0.017-0.058-0.032c-0.008-0.03-0.011-0.053-0.011-0.069l0.003-0.025c0.103-0.006,0.169-0.008,0.196-0.008
		l0.284,0.008l0.321-0.005h0.276l0.111,0.007l0.003,0.037c0,0.018-0.002,0.043-0.007,0.078c-0.177,0.068-0.288,0.118-0.331,0.148
		c-0.043,0.028-0.076,0.06-0.1,0.095s-0.066,0.129-0.131,0.28c-0.008,0.016-0.084,0.236-0.232,0.663
		c-0.032,0.063-0.065,0.149-0.1,0.256c-0.01,0.029-0.031,0.083-0.063,0.158l-0.059,0.147l-0.041,0.107
		c-0.161,0.447-0.339,0.916-0.533,1.405l-0.398,1.106l-0.158,0.42c-0.038,0.006-0.066,0.008-0.085,0.008
		c-0.017,0-0.041-0.001-0.071-0.005c-0.032-0.089-0.102-0.262-0.211-0.515c-0.283-0.646-0.536-1.18-0.761-1.605l-0.045,0.074
		c-0.125,0.239-0.276,0.555-0.453,0.948l-0.286,0.583c-0.118,0.247-0.213,0.42-0.287,0.515l-0.168,0.005l-0.596-1.46l-0.494-1.159
		l-0.433-1.1c-0.03-0.071-0.056-0.139-0.078-0.202c-0.018-0.047-0.033-0.094-0.048-0.144c-0.024-0.077-0.093-0.25-0.206-0.52
		c-0.045-0.072-0.116-0.117-0.213-0.137C87.279,38.734,87.207,38.714,87.16,38.694z"/>
	<path fill="#010101" d="M95.586,43.15c0.054-0.022,0.11-0.035,0.166-0.041c0.376-0.024,0.592-0.069,0.646-0.136
		c0.054-0.064,0.081-0.38,0.081-0.945l-0.003-0.388v-0.406l-0.015-0.446l0.008-0.264l-0.003-0.287v-0.34l-0.008-0.151l0.008-0.191
		c0.002-0.044,0.003-0.097,0.003-0.155c0-0.154-0.008-0.319-0.022-0.491c-0.01-0.034-0.023-0.067-0.041-0.1
		c-0.091-0.047-0.237-0.077-0.44-0.095c-0.203-0.016-0.318-0.033-0.345-0.053c-0.019-0.014-0.03-0.053-0.033-0.115h0.311
		l0.979,0.022c0.251,0,0.586-0.006,1.005-0.022c0,0.041-0.003,0.077-0.007,0.111c-0.049,0.013-0.132,0.027-0.248,0.041
		c-0.233,0.026-0.375,0.053-0.428,0.077c-0.032,0.012-0.055,0.033-0.069,0.063c-0.025,0.044-0.04,0.127-0.045,0.248l-0.019,0.476
		l0.015,1.644v0.649c-0.005,0.204-0.007,0.343-0.007,0.417c0,0.274,0.007,0.452,0.02,0.527c0.014,0.076,0.037,0.131,0.07,0.165
		c0.033,0.033,0.087,0.059,0.164,0.078c0.113,0.028,0.202,0.043,0.265,0.046c0.138,0.004,0.225,0.023,0.262,0.059
		c0.007,0.031,0.011,0.058,0.011,0.08v0.03c-0.224,0.007-0.389,0.012-0.495,0.012c-0.062,0-0.171-0.005-0.329-0.012l-0.51,0.007
		l-0.868-0.002h-0.07L95.586,43.15z"/>
	<path fill="#010101" d="M103.145,39.099l0.151-0.556c0.01-0.073,0.023-0.122,0.04-0.142c0.018-0.021,0.038-0.031,0.06-0.031
		c0.043,0,0.095,0.052,0.151,0.157c0.042,0.077,0.076,0.125,0.104,0.146c0.027,0.021,0.065,0.036,0.117,0.043l0.038-0.005
		l0.158,0.017l0.871,0.01l1.029-0.003h0.302l0.572-0.012c0.024,0,0.055,0.003,0.091,0.008c0.168,0.016,0.272,0.022,0.311,0.022
		c0.037,0,0.067-0.013,0.088-0.037c0.008-0.009,0.048-0.091,0.123-0.243c0.032-0.069,0.071-0.104,0.118-0.104
		c0.019,0,0.044,0.005,0.074,0.014c0.012,0.049,0.018,0.094,0.018,0.132l-0.004,0.146l0.004,0.312c0,0.075-0.006,0.32-0.018,0.732
		c0,0.025-0.004,0.05-0.015,0.073c-0.027,0.017-0.05,0.025-0.069,0.025c-0.021,0-0.037-0.009-0.052-0.027
		c-0.015-0.019-0.033-0.075-0.055-0.17c-0.049-0.22-0.111-0.377-0.184-0.472c-0.05-0.061-0.121-0.105-0.213-0.133
		c-0.092-0.025-0.313-0.039-0.663-0.039c-0.28,0-0.488,0-0.623,0c-0.005,0.098-0.008,0.188-0.008,0.27l0.03,2.293
		c0,0.09-0.005,0.263-0.016,0.517l0.004,0.49l-0.004,0.273c0,0.086,0.016,0.147,0.044,0.185c0.03,0.037,0.11,0.073,0.241,0.106
		c0.225,0.057,0.376,0.091,0.453,0.104c0.047,0.006,0.085,0.015,0.115,0.03v0.111l-0.524-0.015
		c-0.287-0.002-0.504-0.007-0.649-0.016l-0.538,0.025l-0.395,0.021c-0.111,0-0.178-0.002-0.203-0.007l-0.052-0.021
		c0.005-0.057,0.016-0.094,0.033-0.109c0.018-0.016,0.063-0.028,0.137-0.039c0.103-0.014,0.226-0.041,0.365-0.079
		c0.14-0.037,0.232-0.076,0.276-0.117c0.025-0.021,0.042-0.058,0.052-0.109c0.022-0.108,0.032-0.321,0.032-0.638v-0.627
		l-0.014-1.368l-0.015-0.296l-0.003-0.984c-0.155,0-0.353,0-0.594,0c-0.354,0-0.569,0.021-0.646,0.063
		c-0.121,0.068-0.299,0.263-0.538,0.586c-0.079,0.122-0.148,0.184-0.207,0.184l-0.033-0.007c-0.01-0.016-0.014-0.029-0.014-0.041
		c0-0.03,0.019-0.118,0.058-0.266C103.106,39.294,103.135,39.166,103.145,39.099z"/>
	<path fill="#010101" d="M111.32,38.532c0.013,0.042,0.02,0.074,0.02,0.095c0,0.016-0.004,0.037-0.011,0.067
		c-0.065,0.018-0.117,0.025-0.156,0.025c-0.017,0-0.046-0.001-0.087-0.006c-0.039-0.003-0.073-0.004-0.097-0.004
		c-0.113,0-0.203,0.021-0.269,0.065c-0.044,0.027-0.073,0.063-0.082,0.106l-0.036,0.423l0.011,1.826
		c0.002,0.67,0.024,1.086,0.066,1.25c0.042,0.163,0.112,0.298,0.211,0.404c0.098,0.105,0.246,0.192,0.444,0.262
		c0.197,0.068,0.39,0.104,0.577,0.104c0.417,0,0.738-0.061,0.961-0.181c0.222-0.122,0.382-0.288,0.479-0.501
		c0.097-0.214,0.146-0.536,0.146-0.969c0-0.012-0.002-0.111-0.011-0.295v-0.107c0-0.039,0.002-0.116,0.009-0.231
		c0.004-0.114,0.006-0.182,0.006-0.2l-0.055-1.06c-0.017-0.356-0.038-0.567-0.061-0.632c-0.023-0.064-0.058-0.112-0.103-0.144
		c-0.095-0.069-0.277-0.131-0.545-0.184c-0.013-0.035-0.021-0.071-0.022-0.108c0.096-0.009,0.19-0.015,0.283-0.015
		c0.099,0,0.203,0.003,0.311,0.012c0.163,0.013,0.251,0.019,0.266,0.019l0.583-0.019l0.114,0.003l-0.004,0.134
		c-0.303,0.039-0.482,0.085-0.542,0.138s-0.088,0.151-0.088,0.293c0,0.077,0.004,0.242,0.015,0.499l0.025,0.764l-0.004,0.304
		l0.012,0.384c0,0.481-0.015,0.81-0.042,0.984c-0.038,0.244-0.095,0.438-0.167,0.58c-0.073,0.143-0.178,0.271-0.315,0.386
		c-0.138,0.113-0.321,0.209-0.552,0.282c-0.229,0.073-0.456,0.109-0.681,0.109c-0.352,0-0.604-0.024-0.76-0.072
		c-0.282-0.086-0.507-0.198-0.675-0.337c-0.167-0.137-0.282-0.274-0.347-0.412c-0.085-0.183-0.129-0.447-0.129-0.798v-0.255
		l-0.011-1.034l0.011-0.833v-0.562c0-0.142-0.019-0.243-0.059-0.299c-0.027-0.039-0.067-0.059-0.118-0.059l-0.218,0.003
		c-0.162,0-0.266-0.016-0.309-0.052c-0.007-0.022-0.011-0.042-0.011-0.06c0-0.021,0.007-0.039,0.022-0.051
		c0.027-0.02,0.06-0.03,0.1-0.03h0.096l0.247-0.003h0.583L111.32,38.532z"/>
	<path fill="#010101" d="M116.173,43.326l0.004-0.08c0.083-0.047,0.18-0.076,0.291-0.089c0.176-0.022,0.285-0.046,0.332-0.067
		c0.046-0.023,0.08-0.057,0.1-0.099c0.035-0.081,0.052-0.164,0.052-0.247l-0.007-0.281l0.003-0.259l-0.008-0.303
		c0-0.125,0.005-0.282,0.012-0.471c0.007-0.188,0.012-0.287,0.012-0.3v-1.009c0-0.159,0.003-0.332,0.011-0.518
		c0.007-0.186,0.012-0.314,0.012-0.386c0-0.213-0.007-0.335-0.016-0.369c-0.01-0.034-0.028-0.059-0.055-0.074
		c-0.027-0.015-0.116-0.028-0.266-0.04c-0.116-0.011-0.196-0.019-0.24-0.025c-0.013-0.028-0.019-0.049-0.019-0.067
		c0-0.02,0.002-0.042,0.003-0.069c0.06-0.005,0.105-0.009,0.137-0.009l0.348,0.004c0.244,0,0.506-0.01,0.782-0.029
		c0.135-0.009,0.339-0.019,0.611-0.025c0.006,0.022,0.007,0.043,0.007,0.063c0,0.024-0.005,0.043-0.016,0.057
		c-0.012,0.015-0.031,0.023-0.057,0.028c-0.322,0.026-0.513,0.067-0.571,0.12c-0.057,0.053-0.087,0.187-0.087,0.403
		c0,0.399,0.007,0.81,0.02,1.232l0.015,0.347c0.013,0.011,0.173,0.021,0.479,0.037c0.084,0.005,0.133,0.007,0.148,0.007l0.543-0.007
		l0.356,0.012l0.938-0.03c0.115-0.003,0.186-0.007,0.21-0.016c0.016-0.426,0.022-0.839,0.022-1.238c0-0.384-0.009-0.611-0.027-0.68
		c-0.009-0.042-0.025-0.069-0.05-0.085c-0.016-0.007-0.144-0.026-0.385-0.058c-0.041-0.006-0.08-0.012-0.117-0.02
		c-0.013-0.038-0.02-0.08-0.02-0.128c0.084-0.013,0.137-0.02,0.159-0.02l0.243,0.013c0.224,0.012,0.448,0.017,0.676,0.017
		c0.145,0,0.386-0.012,0.722-0.036c-0.001,0.049-0.008,0.093-0.018,0.132c-0.094,0.037-0.205,0.061-0.336,0.071
		c-0.084,0.004-0.153,0.019-0.21,0.04c-0.046,0.034-0.07,0.104-0.07,0.21c0,0.024,0.002,0.053,0.004,0.081
		c0.002,0.09,0.004,0.146,0.004,0.174v0.425l0.004,0.265l-0.008,0.343l0.004,0.642l-0.008,0.605c0,0.121,0.004,0.308,0.012,0.564
		l-0.004,0.497c0,0.169,0.015,0.287,0.044,0.358c0.016,0.034,0.039,0.059,0.073,0.074l0.3,0.065
		c0.147,0.037,0.234,0.067,0.264,0.091c0.028,0.023,0.043,0.051,0.043,0.082l-0.012,0.045l-0.019,0.004
		c-0.013,0-0.029-0.002-0.048-0.007c-0.269-0.049-0.55-0.073-0.846-0.073c-0.23,0-0.395,0.002-0.491,0.011
		c-0.097,0.007-0.3,0.033-0.606,0.081c-0.006-0.032-0.009-0.056-0.009-0.069c0-0.018,0.003-0.042,0.009-0.071
		c0.075-0.044,0.195-0.075,0.36-0.093c0.124-0.013,0.221-0.051,0.292-0.118c0.047-0.044,0.07-0.108,0.07-0.194l-0.004-0.531
		c0.008-0.16,0.011-0.248,0.011-0.262c0-0.209-0.003-0.515-0.011-0.915c-0.008-0.034-0.021-0.055-0.041-0.063
		c-0.066-0.021-0.394-0.016-0.98,0.016c-0.118,0.007-0.207,0.012-0.266,0.012c-0.06,0-0.183-0.004-0.371-0.011
		c-0.188-0.005-0.362-0.008-0.521-0.008c-0.086,0-0.158,0.001-0.219,0.003c-0.112,0.004-0.175,0.004-0.187,0.004
		c-0.057,0-0.096,0.012-0.117,0.033c-0.021,0.022-0.031,0.063-0.031,0.122l0.005,0.258c0,0.041-0.008,0.273-0.019,0.697
		c-0.003,0.086-0.004,0.156-0.004,0.214c0,0.336,0.012,0.561,0.036,0.671c0.013,0.052,0.035,0.086,0.066,0.107
		c0.022,0.015,0.118,0.04,0.287,0.077c0.114,0.024,0.2,0.048,0.259,0.071l0.021,0.035c0,0.013-0.004,0.022-0.014,0.029
		c-0.016,0.013-0.035,0.019-0.063,0.019c-0.021,0-0.044,0-0.069-0.001c-0.027-0.001-0.082-0.004-0.16-0.006
		c-0.124-0.002-0.28-0.012-0.468-0.025c-0.12-0.011-0.228-0.016-0.321-0.016c-0.157,0-0.409,0.01-0.755,0.026
		C116.276,43.325,116.22,43.326,116.173,43.326z"/>
	<path fill="#010101" d="M123.468,43.212c0.023-0.022,0.045-0.036,0.063-0.04c0.041-0.013,0.113-0.021,0.213-0.03
		c0.24-0.014,0.387-0.037,0.444-0.064c0.033-0.05,0.051-0.119,0.051-0.209l-0.004-0.258l0.004-0.938l-0.009-0.443l0.005-0.928
		l-0.019-1.052c-0.002-0.252-0.019-0.393-0.047-0.426c-0.046-0.047-0.177-0.074-0.396-0.081c-0.094-0.003-0.177-0.01-0.248-0.022
		c-0.031-0.017-0.048-0.039-0.048-0.065c0-0.021,0.007-0.043,0.02-0.07c0.022-0.013,0.041-0.02,0.059-0.02
		c0.034,0,0.076,0.001,0.126,0.004c0.145,0.016,0.295,0.023,0.45,0.023l0.272-0.008l0.649,0.015c0.324,0,0.576-0.004,0.759-0.011
		c0.182-0.008,0.306-0.012,0.369-0.012c0.056,0,0.197,0.005,0.421,0.016l0.524-0.004l0.063,0.011l0.306-0.011l0.037,0.019
		c0.012,0.019,0.02,0.041,0.025,0.062c0,0.035-0.006,0.088-0.017,0.16c-0.011,0.07-0.016,0.114-0.016,0.132
		c0,0.256,0.007,0.472,0.025,0.649c-0.004,0.015-0.011,0.024-0.022,0.028c-0.026,0-0.051-0.003-0.072-0.012
		c-0.027-0.045-0.063-0.127-0.109-0.245c-0.045-0.118-0.112-0.255-0.205-0.409c-0.061-0.104-0.109-0.165-0.144-0.186
		c-0.034-0.02-0.105-0.029-0.214-0.029c-0.022,0-0.134-0.002-0.336-0.008c-0.055-0.002-0.106-0.002-0.158-0.002l-1.052,0.021h-0.093
		c-0.136,0-0.217,0.017-0.243,0.051c-0.042,0.06-0.063,0.232-0.063,0.521c0,0.029,0.006,0.325,0.019,0.885v0.514
		c0.026,0.007,0.056,0.01,0.088,0.01h0.063c0.042,0,0.104,0.002,0.185,0.004c0.129,0.006,0.214,0.008,0.258,0.008
		c0.03,0,0.056-0.001,0.078-0.004c0.266-0.01,0.607-0.015,1.024-0.015c0.131-0.021,0.208-0.047,0.229-0.077
		c0.037-0.044,0.064-0.16,0.084-0.347c0.017-0.187,0.059-0.293,0.123-0.317c0.031,0,0.061,0.007,0.088,0.019
		c0.006,0.02,0.008,0.038,0.008,0.056c0,0.016-0.002,0.045-0.008,0.083c-0.013,0.093-0.019,0.378-0.019,0.856
		c0,0.129,0.007,0.271,0.021,0.429s0.02,0.241,0.02,0.254c0,0.022-0.003,0.053-0.01,0.088c-0.021,0.011-0.036,0.017-0.049,0.017
		h-0.024c-0.041-0.07-0.079-0.176-0.115-0.322c-0.064-0.248-0.131-0.403-0.201-0.467c-0.069-0.063-0.184-0.093-0.341-0.093
		c-0.036,0-0.097,0.001-0.189,0.006c-0.09,0.003-0.225,0.005-0.405,0.005h-0.24c-0.341,0-0.564,0.008-0.671,0.021l-0.004,0.122
		l0.004,0.68l-0.004,0.428l0.004,0.419c0.002,0.25,0.019,0.396,0.048,0.436c0.043,0.055,0.133,0.081,0.274,0.081l0.224-0.003
		c0.02,0,0.097,0.002,0.23,0.004c0.134,0.005,0.301,0.008,0.497,0.008c0.475,0,0.791-0.021,0.947-0.062
		c0.158-0.041,0.288-0.114,0.39-0.217c0.101-0.104,0.23-0.327,0.385-0.669c0.048-0.103,0.093-0.153,0.141-0.153
		c0.021,0,0.047,0.01,0.074,0.03c-0.072,0.243-0.113,0.403-0.122,0.479c-0.026,0.173-0.043,0.349-0.049,0.527
		c0,0.081-0.019,0.149-0.059,0.203h-0.082l-1.036,0.012l-0.465-0.004l-1.105,0.015h-0.449c-0.059,0-0.11,0.002-0.16,0.004
		c-0.441,0.02-0.768,0.029-0.977,0.029c-0.037,0-0.063-0.006-0.076-0.019c-0.013-0.012-0.021-0.029-0.021-0.054L123.468,43.212z"/>
	<path fill="#010101" d="M129.914,38.563c0.044-0.008,0.072-0.012,0.085-0.012c0.083,0,0.22,0.005,0.412,0.014
		c0.1,0.004,0.171,0.004,0.207,0.004c0.053,0,0.169-0.005,0.343-0.014l0.627-0.037c0.164-0.015,0.357-0.022,0.576-0.022
		c0.385,0,0.693,0.055,0.921,0.165c0.229,0.108,0.406,0.279,0.529,0.513c0.124,0.233,0.187,0.465,0.187,0.696
		c0,0.386-0.136,0.718-0.406,0.999c-0.27,0.279-0.634,0.419-1.092,0.419c-0.127,0-0.233-0.013-0.32-0.039
		c-0.086-0.025-0.184-0.075-0.295-0.149c-0.046-0.031-0.075-0.065-0.085-0.1c0.01-0.017,0.023-0.029,0.041-0.036
		c0.035,0,0.07,0.007,0.106,0.023c0.084,0.027,0.189,0.043,0.317,0.043c0.194,0,0.378-0.048,0.551-0.143
		c0.174-0.097,0.304-0.233,0.393-0.409c0.09-0.178,0.134-0.364,0.134-0.561c0-0.19-0.047-0.378-0.139-0.559
		c-0.095-0.18-0.219-0.323-0.369-0.432c-0.086-0.061-0.218-0.113-0.396-0.155c-0.179-0.041-0.315-0.062-0.415-0.062
		c-0.304,0-0.483,0.021-0.54,0.065l-0.003,0.053l0.01,0.415l-0.003,0.074c-0.005,0.066-0.007,0.169-0.007,0.306
		c0,0.501,0.007,0.813,0.021,0.937v0.206l0.048,1.685c0,0.024-0.003,0.069-0.008,0.136c-0.008,0.066-0.011,0.125-0.011,0.174
		c0,0.118,0.011,0.207,0.028,0.269c0.061,0.017,0.232,0.058,0.519,0.122c0.132,0.032,0.204,0.051,0.217,0.054
		c0.02,0.009,0.037,0.024,0.052,0.048c-0.01,0.038-0.022,0.062-0.038,0.073c-0.018,0.011-0.049,0.018-0.095,0.018
		c-0.03,0-0.098-0.007-0.206-0.02c-0.213-0.022-0.377-0.033-0.499-0.033l-0.648,0.025l-0.388-0.011
		c-0.024,0-0.096,0.002-0.214,0.008l-0.003-0.097l0.479-0.091c0.079-0.022,0.127-0.046,0.145-0.067
		c0.024-0.034,0.035-0.102,0.035-0.202c0-0.021,0.003-0.069,0.005-0.144c0.003-0.052,0.005-0.123,0.005-0.215
		c0-0.289-0.013-0.907-0.038-1.853c-0.01-0.442-0.014-0.893-0.014-1.351v-0.061c0-0.179-0.028-0.291-0.082-0.336
		c-0.091-0.081-0.318-0.148-0.683-0.199c-0.012-0.027-0.019-0.05-0.019-0.066C129.891,38.612,129.899,38.588,129.914,38.563z"/>
	<path fill="#010101" d="M134.901,43.15c0.035-0.021,0.065-0.03,0.093-0.03h0.085c0.018,0,0.046-0.001,0.088-0.004
		c0.189-0.018,0.301-0.033,0.335-0.051c0.087-0.048,0.16-0.129,0.222-0.243c0.129-0.252,0.272-0.607,0.433-1.066
		c0.075-0.22,0.122-0.352,0.144-0.398c0.062-0.147,0.12-0.302,0.177-0.464l0.347-0.971c0.054-0.152,0.185-0.502,0.392-1.048
		c0.052-0.138,0.113-0.323,0.187-0.554l0.109-0.007l0.13,0.005c0.105,0.207,0.198,0.434,0.279,0.674
		c0.044,0.128,0.117,0.318,0.218,0.572l0.56,1.516l0.298,0.822c0.158,0.467,0.262,0.754,0.312,0.86
		c0.048,0.108,0.094,0.179,0.135,0.214c0.014,0.009,0.06,0.023,0.139,0.043c0.081,0.021,0.137,0.034,0.168,0.045
		c0.113,0.031,0.192,0.06,0.236,0.081c0.011,0.026,0.015,0.048,0.015,0.063c0,0.012-0.004,0.03-0.012,0.055
		c-0.078,0.002-0.134,0.005-0.165,0.005c-0.125,0-0.347-0.005-0.664-0.012l-0.369-0.007l-0.446,0.004
		c-0.03,0-0.059-0.002-0.092-0.004c-0.028-0.003-0.057-0.004-0.077-0.004h-0.082c-0.025-0.003-0.052-0.009-0.073-0.023
		c0-0.034,0.006-0.066,0.019-0.098c0.029-0.016,0.056-0.023,0.081-0.026l0.387-0.026c0.102-0.006,0.178-0.019,0.229-0.04
		c0.015-0.046,0.021-0.078,0.021-0.1c0-0.045-0.031-0.159-0.096-0.345c-0.045-0.123-0.082-0.24-0.116-0.35
		c-0.033-0.111-0.164-0.476-0.393-1.095c-0.101-0.018-0.189-0.025-0.267-0.025l-0.788,0.007l-0.232-0.005
		c-0.084,0-0.175,0.008-0.276,0.019c-0.032,0.074-0.053,0.128-0.063,0.16l-0.325,1.014c-0.139,0.387-0.207,0.599-0.207,0.639
		c0,0.021,0.011,0.059,0.034,0.109c0.051,0.017,0.119,0.029,0.206,0.042l0.501,0.044c0.027,0.022,0.042,0.042,0.042,0.058
		c0,0.014-0.005,0.033-0.011,0.058c-0.112,0.001-0.196,0.002-0.256,0.002c-0.196,0-0.426-0.005-0.686-0.018
		c-0.12-0.006-0.207-0.008-0.259-0.008s-0.141,0.002-0.27,0.008c-0.084,0.004-0.144,0.006-0.181,0.006
		c-0.059,0-0.135-0.002-0.229-0.009v-0.022C134.887,43.202,134.892,43.179,134.901,43.15z M136.661,40.938
		c0.263,0.014,0.564,0.021,0.9,0.021c0.191,0,0.36-0.007,0.506-0.019c-0.024-0.096-0.054-0.185-0.085-0.27
		c-0.16-0.427-0.248-0.663-0.266-0.707l-0.335-0.853l-0.037-0.066c-0.015,0.03-0.068,0.156-0.163,0.381
		c-0.157,0.383-0.271,0.682-0.34,0.895c-0.031,0.097-0.064,0.191-0.1,0.287c-0.034,0.094-0.056,0.161-0.063,0.199
		c-0.01,0.038-0.022,0.076-0.038,0.115L136.661,40.938z"/>
	<path fill="#010101" d="M141.609,43.29c0.002-0.038,0.013-0.069,0.029-0.1c0.19-0.051,0.379-0.087,0.561-0.103
		c0.121-0.011,0.198-0.037,0.231-0.082c0.026-0.032,0.041-0.15,0.045-0.354l0.026-0.975l-0.005-0.66l0.005-0.864v-0.228
		c0.002-0.521,0-0.845-0.007-0.972c-0.004-0.024-0.013-0.06-0.03-0.104c-0.065-0.03-0.117-0.05-0.162-0.059
		c-0.042-0.011-0.235-0.047-0.579-0.106c-0.003-0.028-0.004-0.048-0.004-0.06c0-0.015,0.001-0.036,0.004-0.061
		c0.047,0,0.123,0.004,0.229,0.01l0.562,0.021l0.325,0.007l0.097-0.003c0.013,0,0.049,0.002,0.107,0.008
		c0.145,0,0.229-0.002,0.25-0.005l0.296-0.021c0.199,0,0.341,0.004,0.421,0.012c-0.002,0.044-0.011,0.093-0.025,0.144
		c-0.026,0.004-0.154,0.012-0.384,0.02c-0.229,0.009-0.36,0.023-0.394,0.043c-0.058,0.032-0.086,0.131-0.086,0.295
		c0,0.039-0.003,0.119-0.006,0.239v0.222l0.003,0.683v0.231l0.007,1.222l-0.01,1.04l0.003,0.229c0,0.074,0.013,0.119,0.036,0.137
		c0.062,0.002,0.242,0.004,0.543,0.008h0.25l0.639-0.023c0.167-0.004,0.286-0.021,0.358-0.049c0.07-0.028,0.189-0.111,0.357-0.249
		c0.101-0.089,0.179-0.18,0.235-0.273c0.013-0.02,0.033-0.049,0.063-0.088c0.048-0.063,0.11-0.192,0.188-0.384h0.121
		c-0.015,0.088-0.03,0.172-0.047,0.25c-0.071,0.347-0.121,0.637-0.148,0.867c-0.004,0.049-0.01,0.096-0.014,0.137l-1.38-0.04
		c-1.186,0-1.89,0.012-2.11,0.033c-0.067,0.005-0.141,0.007-0.217,0.007H141.609z"/>
	<path fill="#010101" d="M147.099,38.518h0.179c0.063,0,0.204,0.003,0.42,0.009c0.335,0.013,0.612,0.02,0.834,0.02l0.432-0.007
		c0.06,0,0.119,0.005,0.177,0.016c0.017,0.02,0.025,0.04,0.025,0.063v0.04l-0.094,0.044h-0.039l-0.208,0.005l-0.107-0.005
		c-0.085,0-0.153,0.019-0.205,0.056c-0.038,0.027-0.058,0.055-0.058,0.085c0,0.032,0.016,0.073,0.051,0.122
		c0.013,0.02,0.032,0.05,0.059,0.088c0.05,0.084,0.115,0.182,0.196,0.292c0.114,0.162,0.237,0.354,0.368,0.576
		c0.053,0.088,0.105,0.174,0.163,0.254l0.561,0.85c0.037-0.048,0.088-0.115,0.153-0.208l0.53-0.764l0.614-0.918
		c0.055-0.083,0.086-0.146,0.096-0.185c0.004-0.02,0.008-0.041,0.008-0.063c0-0.052-0.023-0.093-0.07-0.125
		c-0.076-0.051-0.241-0.09-0.494-0.113c-0.018-0.004-0.041-0.008-0.069-0.012c-0.018-0.029-0.027-0.055-0.027-0.073
		c0-0.017,0.002-0.032,0.004-0.049l0.192-0.004l0.693,0.018l0.558-0.01c0.014,0,0.065,0.001,0.154,0.003l-0.011,0.129
		c-0.018,0.006-0.045,0.009-0.082,0.012l-0.089,0.012c-0.014,0.001-0.038,0.004-0.069,0.007c-0.051,0.02-0.093,0.04-0.121,0.063
		c-0.362,0.381-0.669,0.741-0.923,1.08c-0.253,0.34-0.466,0.649-0.642,0.926c-0.057,0.092-0.102,0.159-0.138,0.203
		c-0.063,0.084-0.101,0.145-0.112,0.185c-0.027,0.096-0.04,0.241-0.04,0.436c0,0.767,0.013,1.219,0.04,1.357
		c0.014,0.068,0.034,0.11,0.06,0.125c0.063,0.032,0.317,0.071,0.763,0.115v0.043c0,0.027-0.01,0.063-0.026,0.104l-0.945-0.04
		l-0.632,0.033h-0.518c-0.049,0-0.104-0.002-0.161-0.004c-0.012-0.027-0.016-0.046-0.016-0.059s0.002-0.03,0.011-0.052
		c0.018-0.016,0.034-0.023,0.052-0.025l0.478-0.074c0.166-0.054,0.259-0.091,0.278-0.11c0.029-0.029,0.048-0.075,0.055-0.137
		c0.003-0.044,0.005-0.386,0.005-1.024c0-0.24-0.009-0.387-0.024-0.438c-0.017-0.054-0.068-0.145-0.157-0.278l-0.482-0.733
		l-0.822-1.2c-0.144-0.207-0.268-0.345-0.373-0.416c-0.048-0.032-0.164-0.058-0.352-0.072c-0.019,0-0.049-0.004-0.088-0.009
		L147.099,38.518z"/>
	<path fill="#010101" d="M159.974,38.717c0.019,0.162,0.028,0.255,0.028,0.28l-0.016,0.328c-0.003,0.139-0.01,0.229-0.017,0.27
		c-0.022,0.01-0.041,0.015-0.056,0.015l-0.033-0.009c-0.078-0.343-0.212-0.595-0.399-0.751c-0.189-0.157-0.419-0.236-0.688-0.236
		c-0.28,0-0.512,0.079-0.689,0.236c-0.18,0.156-0.271,0.34-0.271,0.55c0,0.16,0.063,0.306,0.189,0.438
		c0.126,0.134,0.444,0.333,0.963,0.597c0.393,0.203,0.675,0.369,0.844,0.499c0.17,0.129,0.298,0.278,0.384,0.448
		c0.087,0.171,0.129,0.359,0.129,0.568c0,0.265-0.067,0.511-0.206,0.742c-0.135,0.231-0.319,0.406-0.55,0.522
		c-0.232,0.118-0.537,0.176-0.918,0.176c-0.333,0-0.65-0.053-0.957-0.158c-0.18-0.065-0.288-0.116-0.327-0.154
		c-0.039-0.041-0.06-0.082-0.06-0.126c0-0.028,0.002-0.062,0.008-0.104c0.035-0.291,0.053-0.528,0.055-0.717
		c0.006-0.114,0.014-0.183,0.026-0.202c0.01-0.017,0.028-0.025,0.055-0.025c0.023,0,0.041,0.008,0.054,0.023
		c0.014,0.017,0.023,0.047,0.028,0.091c0.026,0.303,0.166,0.572,0.42,0.812c0.252,0.237,0.535,0.358,0.854,0.358
		c0.193,0,0.372-0.041,0.536-0.122s0.291-0.199,0.384-0.353c0.092-0.154,0.138-0.304,0.138-0.448c0-0.198-0.07-0.38-0.211-0.546
		c-0.14-0.164-0.422-0.356-0.844-0.576c-0.423-0.222-0.698-0.382-0.826-0.483c-0.207-0.163-0.363-0.339-0.465-0.522
		c-0.076-0.143-0.114-0.309-0.114-0.499c0-0.341,0.135-0.632,0.405-0.868c0.271-0.236,0.633-0.355,1.09-0.355
		c0.249,0,0.466,0.027,0.647,0.085C159.695,38.543,159.832,38.615,159.974,38.717z"/>
	<path fill="#010101" d="M162.303,39.099l0.151-0.556c0.01-0.073,0.023-0.122,0.04-0.142c0.019-0.021,0.037-0.031,0.06-0.031
		c0.044,0,0.094,0.052,0.151,0.157c0.041,0.077,0.076,0.125,0.104,0.146c0.026,0.021,0.065,0.036,0.117,0.043l0.037-0.005
		l0.159,0.017l0.87,0.01l1.029-0.003h0.302l0.571-0.012c0.025,0,0.056,0.003,0.093,0.008c0.167,0.016,0.27,0.022,0.311,0.022
		c0.036,0,0.066-0.013,0.088-0.037c0.007-0.009,0.048-0.091,0.122-0.243c0.031-0.069,0.07-0.104,0.118-0.104
		c0.019,0,0.043,0.005,0.073,0.014c0.013,0.049,0.019,0.094,0.019,0.132l-0.004,0.146l0.004,0.312c0,0.075-0.006,0.32-0.019,0.732
		c0,0.025-0.005,0.05-0.015,0.073c-0.027,0.017-0.051,0.025-0.07,0.025s-0.037-0.009-0.051-0.027
		c-0.017-0.019-0.034-0.075-0.056-0.17c-0.05-0.22-0.111-0.377-0.185-0.472c-0.05-0.061-0.119-0.105-0.212-0.133
		c-0.092-0.025-0.313-0.039-0.662-0.039c-0.28,0-0.487,0-0.623,0c-0.006,0.098-0.009,0.188-0.009,0.27l0.03,2.293
		c0,0.09-0.005,0.263-0.015,0.517l0.003,0.49l-0.003,0.273c0,0.086,0.015,0.147,0.045,0.185c0.029,0.037,0.109,0.073,0.239,0.106
		c0.226,0.057,0.377,0.091,0.454,0.104c0.046,0.006,0.084,0.015,0.113,0.03v0.111l-0.523-0.015
		c-0.288-0.002-0.503-0.007-0.648-0.016l-0.54,0.025l-0.394,0.021c-0.11,0-0.178-0.002-0.203-0.007l-0.053-0.021
		c0.006-0.057,0.017-0.094,0.034-0.109s0.063-0.028,0.137-0.039c0.104-0.014,0.225-0.041,0.365-0.079
		c0.14-0.037,0.231-0.076,0.276-0.117c0.024-0.021,0.042-0.058,0.052-0.109c0.021-0.108,0.033-0.321,0.033-0.638v-0.627
		l-0.014-1.368l-0.017-0.296l-0.003-0.984c-0.154,0-0.353,0-0.594,0c-0.354,0-0.569,0.021-0.646,0.063
		c-0.121,0.068-0.301,0.263-0.538,0.586c-0.079,0.122-0.147,0.184-0.207,0.184l-0.033-0.007c-0.01-0.016-0.016-0.029-0.016-0.041
		c0-0.03,0.021-0.118,0.061-0.266C162.263,39.294,162.293,39.166,162.303,39.099z"/>
	<path fill="#010101" d="M168.096,43.15c0.033-0.021,0.066-0.03,0.093-0.03h0.085c0.016,0,0.046-0.001,0.088-0.004
		c0.189-0.018,0.301-0.033,0.336-0.051c0.086-0.048,0.16-0.129,0.222-0.243c0.127-0.252,0.271-0.607,0.431-1.066
		c0.076-0.22,0.124-0.352,0.144-0.398c0.062-0.147,0.12-0.302,0.178-0.464l0.347-0.971c0.055-0.152,0.185-0.502,0.392-1.048
		c0.051-0.138,0.113-0.323,0.188-0.554l0.109-0.007l0.129,0.005c0.105,0.207,0.198,0.434,0.279,0.674
		c0.045,0.128,0.116,0.318,0.218,0.572l0.56,1.516l0.298,0.822c0.157,0.467,0.261,0.754,0.311,0.86
		c0.049,0.108,0.095,0.179,0.136,0.214c0.013,0.009,0.06,0.023,0.139,0.043c0.08,0.021,0.136,0.034,0.167,0.045
		c0.115,0.031,0.192,0.06,0.236,0.081c0.011,0.026,0.016,0.048,0.016,0.063c0,0.012-0.004,0.03-0.012,0.055
		c-0.077,0.002-0.135,0.005-0.166,0.005c-0.125,0-0.347-0.005-0.664-0.012l-0.368-0.007l-0.446,0.004
		c-0.029,0-0.061-0.002-0.091-0.004c-0.03-0.003-0.057-0.004-0.078-0.004h-0.082c-0.026-0.003-0.052-0.009-0.073-0.023
		c0-0.034,0.005-0.066,0.018-0.098c0.029-0.016,0.058-0.023,0.082-0.026l0.387-0.026c0.101-0.006,0.178-0.019,0.229-0.04
		c0.015-0.046,0.021-0.078,0.021-0.1c0-0.045-0.031-0.159-0.095-0.345c-0.045-0.123-0.083-0.24-0.116-0.35
		c-0.033-0.111-0.164-0.476-0.393-1.095c-0.101-0.018-0.188-0.025-0.266-0.025l-0.789,0.007l-0.233-0.005
		c-0.083,0-0.176,0.008-0.275,0.019c-0.032,0.074-0.054,0.128-0.063,0.16l-0.326,1.014c-0.137,0.387-0.206,0.599-0.206,0.639
		c0,0.021,0.012,0.059,0.033,0.109c0.052,0.017,0.121,0.029,0.207,0.042l0.502,0.044c0.025,0.022,0.04,0.042,0.04,0.058
		c0,0.014-0.003,0.033-0.012,0.058c-0.111,0.001-0.194,0.002-0.254,0.002c-0.196,0-0.426-0.005-0.686-0.018
		c-0.122-0.006-0.208-0.008-0.259-0.008s-0.142,0.002-0.269,0.008c-0.084,0.004-0.145,0.006-0.181,0.006
		c-0.06,0-0.136-0.002-0.23-0.009v-0.022C168.08,43.202,168.086,43.179,168.096,43.15z M169.856,40.938
		c0.262,0.014,0.562,0.021,0.899,0.021c0.192,0,0.36-0.007,0.505-0.019c-0.024-0.096-0.053-0.185-0.084-0.27
		c-0.16-0.427-0.249-0.663-0.266-0.707l-0.336-0.853l-0.036-0.066c-0.016,0.03-0.069,0.156-0.162,0.381
		c-0.158,0.383-0.271,0.682-0.34,0.895c-0.032,0.097-0.066,0.191-0.1,0.287c-0.035,0.094-0.057,0.161-0.065,0.199
		s-0.021,0.076-0.039,0.115L169.856,40.938z"/>
	<path fill="#010101" d="M174.973,43.153c0.358-0.042,0.559-0.07,0.606-0.088c0.032-0.012,0.061-0.05,0.088-0.11v-0.041
		c0-0.062,0.009-0.284,0.03-0.667c0.003-0.107,0.007-0.215,0.007-0.317l-0.012-0.438l0.007-0.497l-0.002-0.925l0.002-0.664
		c0.002-0.28-0.019-0.451-0.063-0.513c-0.047-0.062-0.164-0.104-0.353-0.13c-0.19-0.026-0.295-0.045-0.314-0.057
		c-0.02-0.013-0.028-0.032-0.028-0.059c0-0.018,0.003-0.041,0.011-0.067c0.023-0.022,0.082-0.034,0.17-0.037
		c0.012,0,0.046-0.004,0.102-0.01c0.055-0.007,0.106-0.009,0.156-0.009h0.303l0.969-0.011c0.55,0,0.934,0.041,1.153,0.122
		s0.396,0.218,0.525,0.411c0.131,0.193,0.196,0.408,0.196,0.646c0,0.452-0.238,0.799-0.712,1.036
		c-0.081,0.042-0.144,0.079-0.191,0.111c0.084,0.177,0.2,0.389,0.351,0.637l0.468,0.803c0.187,0.297,0.315,0.482,0.387,0.557
		c0.071,0.075,0.157,0.138,0.26,0.188c0.103,0.049,0.273,0.096,0.515,0.14c0.003,0.024,0.004,0.045,0.004,0.059
		c0,0.016-0.001,0.034-0.004,0.056c-0.337,0.006-0.731,0.008-1.184,0.008c-0.032,0-0.077-0.002-0.133-0.008
		c-0.175-0.333-0.38-0.702-0.615-1.104l-0.546-0.997c-0.074-0.104-0.135-0.169-0.184-0.195c-0.047-0.025-0.111-0.038-0.189-0.038
		l-0.313,0.004l-0.104-0.004c-0.006,0.079-0.01,0.24-0.01,0.482v1.263c-0.003,0.046,0.008,0.11,0.029,0.195
		c0.019,0.046,0.054,0.085,0.102,0.112c0.047,0.027,0.187,0.069,0.415,0.128l0.151,0.035c0.02,0.024,0.029,0.059,0.029,0.102
		c-0.066,0.011-0.112,0.017-0.141,0.017c-0.222,0-0.377-0.002-0.467-0.007c-0.048-0.002-0.086-0.003-0.115-0.003l-0.499,0.007
		l-0.49-0.004c-0.022,0-0.135,0.004-0.335,0.012l-0.073-0.015l-0.01-0.037C174.92,43.209,174.938,43.183,174.973,43.153z
		 M176.342,40.741c0.065,0.003,0.115,0.004,0.147,0.004c0.177,0,0.381-0.021,0.611-0.063c0.163-0.032,0.294-0.084,0.396-0.156
		c0.101-0.073,0.186-0.18,0.252-0.322c0.067-0.143,0.103-0.289,0.103-0.442c0-0.167-0.054-0.343-0.159-0.529
		c-0.082-0.143-0.218-0.262-0.411-0.357s-0.426-0.144-0.694-0.144c-0.067,0-0.153,0.004-0.259,0.011
		c-0.01,0.127-0.016,0.226-0.016,0.296l0.02,0.687l-0.004,0.284C176.327,40.2,176.331,40.444,176.342,40.741z"/>
	<path fill="#010101" d="M181.152,43.15c0.055-0.022,0.11-0.035,0.167-0.041c0.376-0.024,0.592-0.069,0.646-0.136
		c0.054-0.064,0.082-0.38,0.082-0.945l-0.005-0.388v-0.406l-0.015-0.446l0.008-0.264l-0.004-0.287v-0.34l-0.007-0.151l0.007-0.191
		c0.002-0.044,0.004-0.097,0.004-0.155c0-0.154-0.008-0.319-0.022-0.491c-0.011-0.034-0.023-0.067-0.04-0.1
		c-0.092-0.047-0.238-0.077-0.44-0.095c-0.203-0.016-0.319-0.033-0.345-0.053c-0.021-0.014-0.031-0.053-0.035-0.115h0.313
		l0.978,0.022c0.252,0,0.586-0.006,1.005-0.022c0,0.041-0.002,0.077-0.007,0.111c-0.05,0.013-0.132,0.027-0.246,0.041
		c-0.234,0.026-0.377,0.053-0.428,0.077c-0.034,0.012-0.058,0.033-0.071,0.063c-0.024,0.044-0.039,0.127-0.044,0.248l-0.019,0.476
		l0.016,1.644v0.649c-0.006,0.204-0.009,0.343-0.009,0.417c0,0.274,0.007,0.452,0.02,0.527c0.015,0.076,0.037,0.131,0.072,0.165
		c0.031,0.033,0.086,0.059,0.162,0.078c0.113,0.028,0.203,0.043,0.266,0.046c0.138,0.004,0.226,0.023,0.263,0.059
		c0.007,0.031,0.011,0.058,0.011,0.08v0.03c-0.225,0.007-0.389,0.012-0.494,0.012c-0.063,0-0.172-0.005-0.329-0.012l-0.51,0.007
		l-0.868-0.002h-0.07L181.152,43.15z"/>
	<path fill="#010101" d="M185.279,38.757l-0.004-0.177c0.382,0,0.66-0.01,0.838-0.029c0.067-0.008,0.115-0.012,0.145-0.012
		c0.021,0,0.054,0.001,0.1,0.004c0.102,0.087,0.198,0.186,0.287,0.295c0.019,0.022,0.042,0.047,0.066,0.074l0.777,0.858l0.111,0.133
		c0.157,0.185,0.3,0.342,0.429,0.473c0.13,0.13,0.382,0.402,0.755,0.815l0.882,0.977c0.086,0.097,0.196,0.216,0.331,0.358
		L190,42.468c-0.015-0.341-0.021-0.523-0.021-0.543l0.015-0.222l-0.008-0.346v-0.158c0-0.102-0.009-0.411-0.026-0.933
		c-0.002-0.072-0.013-0.207-0.028-0.405c-0.018-0.198-0.026-0.372-0.026-0.521c0-0.271-0.016-0.428-0.048-0.472
		c-0.022-0.032-0.126-0.065-0.313-0.1c-0.044-0.002-0.114-0.011-0.207-0.021c-0.11-0.006-0.175-0.012-0.194-0.019
		c-0.021-0.009-0.04-0.029-0.06-0.064c0.005-0.039,0.017-0.076,0.033-0.109c0.066-0.021,0.132-0.03,0.195-0.03
		c0.068,0,0.154,0.009,0.256,0.026c0.103,0.018,0.193,0.025,0.274,0.025c0.114,0,0.29-0.008,0.529-0.021
		c0.134-0.011,0.227-0.016,0.279-0.016h0.063l-0.007,0.115c-0.04,0.017-0.094,0.027-0.162,0.031
		c-0.07,0.003-0.133,0.014-0.191,0.031c-0.09,0.027-0.142,0.05-0.159,0.069c-0.061,0.063-0.089,0.13-0.089,0.196l0.041,1.166
		l0.029,0.534l-0.005,0.155l0.023,0.74c0.014,0.507,0.022,0.947,0.022,1.32c0,0.082-0.005,0.258-0.016,0.527l-0.173,0.016
		c-0.085-0.099-0.381-0.408-0.888-0.93c-0.118-0.12-0.199-0.205-0.24-0.254l-0.317-0.365c-0.124-0.136-0.202-0.223-0.239-0.259
		c-0.037-0.037-0.064-0.063-0.083-0.081c-0.268-0.305-0.615-0.687-1.043-1.143c-0.114-0.124-0.285-0.315-0.509-0.576
		c-0.141-0.165-0.229-0.266-0.266-0.303c-0.037-0.037-0.088-0.079-0.151-0.125l-0.012,0.125c0,0.48,0.013,1.141,0.037,1.985
		l0.025,1.221c0.004,0.103,0.009,0.202,0.019,0.298l0.13,0.03c0.234,0.022,0.464,0.055,0.689,0.099
		c0.018,0.015,0.031,0.026,0.044,0.033l-0.003,0.141c-0.04,0.013-0.071,0.019-0.096,0.019c-0.027,0-0.062-0.002-0.101-0.008
		c-0.243-0.021-0.539-0.029-0.889-0.029c-0.246,0-0.462,0.007-0.649,0.019l-0.051,0.005c-0.023,0-0.055-0.004-0.098-0.009
		l-0.002-0.111l0.095-0.044l0.174-0.025c0.155-0.023,0.269-0.047,0.34-0.074c0.046-0.016,0.085-0.043,0.113-0.076
		c0.028-0.169,0.041-0.419,0.041-0.745c0-0.153-0.004-0.433-0.011-0.837v-0.502l-0.007-1.048c-0.005-0.469-0.021-0.743-0.049-0.826
		c-0.014-0.044-0.045-0.084-0.092-0.118c-0.094-0.066-0.215-0.108-0.367-0.126C185.422,38.784,185.324,38.77,185.279,38.757z"/>
	<path fill="#010101" d="M192.729,43.221c0.012-0.025,0.031-0.038,0.056-0.042c0.248-0.021,0.444-0.065,0.585-0.132
		c0.05-0.044,0.074-0.118,0.074-0.223l-0.003-0.36v-0.687l0.008-0.299l-0.023-1.024l0.007-0.689c0-0.389-0.007-0.649-0.021-0.779
		c-0.004-0.049-0.02-0.1-0.048-0.151c-0.044-0.027-0.081-0.042-0.11-0.048c-0.105-0.017-0.242-0.03-0.408-0.039
		c-0.035-0.024-0.053-0.055-0.053-0.09c0-0.013,0.005-0.031,0.014-0.056c0.137-0.007,0.376-0.01,0.72-0.01
		c0.16,0,0.287-0.003,0.38-0.004c0.131-0.008,0.289-0.02,0.476-0.033c0.081,0.008,0.178,0.01,0.289,0.01
		c0.026,0.016,0.039,0.033,0.039,0.053c0,0.015-0.001,0.031-0.007,0.047c-0.029,0.016-0.084,0.028-0.166,0.037
		c-0.214,0.022-0.357,0.07-0.436,0.141c-0.051,0.05-0.076,0.143-0.076,0.28l0.003,0.069v1.388v0.955l0.025,0.948
		c0.003,0.3,0.011,0.465,0.022,0.496c0.014,0.031,0.032,0.055,0.06,0.072c0.087,0.052,0.218,0.087,0.395,0.103
		c0.044,0.005,0.087,0.013,0.129,0.025c0.015,0.033,0.022,0.06,0.022,0.083c0,0.024-0.016,0.047-0.045,0.069l-0.118,0.003
		c-0.048,0-0.167-0.008-0.354-0.025c-0.187-0.019-0.325-0.025-0.417-0.025c-0.076,0-0.182,0.007-0.317,0.025
		c-0.135,0.018-0.32,0.025-0.553,0.025c-0.035,0-0.08-0.001-0.141-0.003L192.729,43.221z M194.152,40.901
		c0.029-0.026,0.079-0.062,0.146-0.104c0.139-0.083,0.376-0.25,0.713-0.5l1.011-0.825c0.277-0.232,0.473-0.413,0.586-0.546
		c0.022-0.029,0.04-0.061,0.052-0.093c-0.044-0.031-0.095-0.055-0.15-0.07c-0.057-0.015-0.146-0.025-0.271-0.032
		c-0.121-0.008-0.194-0.02-0.219-0.034c-0.023-0.017-0.035-0.036-0.035-0.062c0-0.027,0.009-0.048,0.025-0.063
		c0.033-0.022,0.078-0.034,0.136-0.034c0.096,0,0.177,0.007,0.243,0.021c0.07,0.014,0.227,0.02,0.47,0.02
		c0.06,0,0.103-0.001,0.129-0.004l0.576-0.03c0.059-0.004,0.104-0.007,0.136-0.007c0.028,0,0.074,0.003,0.133,0.007
		c0,0.059-0.005,0.104-0.015,0.141c-0.265,0.032-0.46,0.073-0.587,0.122c-0.071,0.029-0.216,0.112-0.435,0.244
		c-0.166,0.101-0.314,0.21-0.449,0.325l-0.952,0.802l-0.576,0.465c0.011,0.016,0.025,0.034,0.046,0.051
		c0.014,0.013,0.051,0.047,0.11,0.103c0.257,0.241,0.605,0.537,1.045,0.889c0.439,0.349,0.781,0.642,1.03,0.878
		c0.364,0.346,0.707,0.538,1.029,0.575c0.079,0.009,0.135,0.031,0.17,0.064l0.004,0.042l-0.007,0.051
		c-0.084,0.005-0.142,0.008-0.171,0.008c-0.113,0-0.283-0.008-0.512-0.023c-0.136-0.009-0.248-0.013-0.336-0.013
		c-0.354,0-0.76,0.015-1.214,0.044c-0.007-0.035-0.012-0.06-0.012-0.075l0.005-0.029c0.031-0.029,0.096-0.056,0.191-0.08
		c0.133-0.036,0.273-0.056,0.42-0.062c0.033,0,0.067-0.001,0.104-0.007c-0.024-0.04-0.064-0.086-0.122-0.139
		c-0.01-0.01-0.041-0.042-0.1-0.097c-0.057-0.056-0.156-0.147-0.298-0.271l-0.438-0.35l-0.676-0.568
		C194.865,41.444,194.553,41.199,194.152,40.901z"/>
</g>
</svg>
