<?xml version="1.0" encoding="utf-8"?>
<!-- Generator: Adobe Illustrator 16.0.0, SVG Export Plug-In . SVG Version: 6.00 Build 0)  -->
<!DOCTYPE svg PUBLIC "-//W3C//DTD SVG 1.1//EN" "http://www.w3.org/Graphics/SVG/1.1/DTD/svg11.dtd">
<svg version="1.1" id="Layer_1" xmlns="http://www.w3.org/2000/svg" xmlns:xlink="http://www.w3.org/1999/xlink" x="0px" y="0px"
	 width="30px" height="30px" viewBox="0 0 30 30" enable-background="new 0 0 30 30" xml:space="preserve">
<g>
	<path fill="#6F3779" d="M29.301,4.475c-0.426-0.428-1.026-0.699-1.682-0.698H2.451c-0.655,0-1.255,0.27-1.682,0.698
		C0.34,4.901,0.07,5.501,0.07,6.157v17.686c0,0.655,0.27,1.256,0.699,1.683c0.427,0.429,1.027,0.698,1.682,0.698h25.168
		c0.655,0,1.256-0.27,1.682-0.698C29.73,25.099,30,24.498,30,23.843V6.157C30,5.501,29.73,4.901,29.301,4.475z M27.959,22.629
		l-8.081-7.459l8.081-7.459V22.629z M2.451,5.817h25.168c0.093,0,0.173,0.036,0.239,0.101c0.007,0.006,0.009,0.014,0.015,0.021
		l-11.21,10.348c-0.349,0.324-0.837,0.499-1.335,0.499c-0.479,0-0.948-0.162-1.293-0.466L2.203,5.93
		c0.003-0.004,0.005-0.008,0.008-0.013C2.278,5.853,2.358,5.817,2.451,5.817z M2.111,22.681V7.659l8.554,7.511L2.111,22.681z
		 M2.461,24.183l9.234-8.107l1.442,1.267c0.621,0.544,1.411,0.804,2.191,0.804c0.809,0,1.627-0.279,2.258-0.859l1.289-1.19
		l8.758,8.085c-0.004,0-0.008,0.002-0.014,0.002H2.461z"/>
</g>
</svg>
