<?xml version="1.0" encoding="utf-8"?>
<!-- Generator: Adobe Illustrator 16.0.0, SVG Export Plug-In . SVG Version: 6.00 Build 0)  -->
<!DOCTYPE svg PUBLIC "-//W3C//DTD SVG 1.1//EN" "http://www.w3.org/Graphics/SVG/1.1/DTD/svg11.dtd">
<svg version="1.1" id="Layer_1" xmlns="http://www.w3.org/2000/svg" xmlns:xlink="http://www.w3.org/1999/xlink" x="0px" y="0px"
	 width="30px" height="30px" viewBox="0 0 30 30" enable-background="new 0 0 30 30" xml:space="preserve">
<path fill="#6F387A" d="M15,0C6.716,0,0,6.716,0,15s6.716,15,15,15c8.285,0,15-6.716,15-15S23.285,0,15,0z M15,27.271
	C8.222,27.271,2.728,21.778,2.728,15C2.728,8.222,8.222,2.728,15,2.728c6.778,0,12.273,5.495,12.273,12.272
	C27.273,21.778,21.778,27.271,15,27.271z M20.056,18.126c0.532,0.534,0.532,1.396,0,1.93c-0.266,0.266-0.616,0.398-0.965,0.398
	c-0.349,0.001-0.697-0.133-0.965-0.398l-4.09-4.091c-0.256-0.255-0.399-0.603-0.399-0.964V6.818c0-0.752,0.61-1.363,1.363-1.363
	s1.363,0.611,1.363,1.363v7.618L20.056,18.126z"/>
</svg>
