<?xml version="1.0" encoding="utf-8"?>
<!-- Generator: Adobe Illustrator 16.0.0, SVG Export Plug-In . SVG Version: 6.00 Build 0)  -->
<!DOCTYPE svg PUBLIC "-//W3C//DTD SVG 1.1//EN" "http://www.w3.org/Graphics/SVG/1.1/DTD/svg11.dtd">
<svg version="1.1" id="Layer_1" xmlns="http://www.w3.org/2000/svg" xmlns:xlink="http://www.w3.org/1999/xlink" x="0px" y="0px"
	 width="30px" height="30px" viewBox="0 0 30 30" enable-background="new 0 0 30 30" xml:space="preserve">
<path fill="#6F387A" stroke="#703879" stroke-miterlimit="10" d="M15,29.926l-0.57-0.733c-0.025-0.031-2.513-3.234-4.965-7.063
	c-3.346-5.22-5.041-9.083-5.041-11.479c0-1.429,0.279-2.813,0.833-4.117c0.53-1.26,1.293-2.391,2.265-3.361
	c0.971-0.972,2.104-1.733,3.363-2.266C12.187,0.354,13.571,0.074,15,0.074c1.428,0,2.813,0.28,4.117,0.831
	c1.26,0.532,2.39,1.294,3.36,2.266c0.973,0.971,1.734,2.102,2.268,3.361c0.551,1.305,0.831,2.689,0.831,4.117
	c0,2.396-1.695,6.258-5.042,11.479c-2.45,3.829-4.938,7.032-4.964,7.063L15,29.926z M15,1.519c-5.034,0-9.131,4.096-9.131,9.131
	c0,2.086,1.664,5.787,4.813,10.7c1.717,2.682,3.449,5.05,4.318,6.206c0.868-1.157,2.605-3.531,4.324-6.214
	c3.142-4.911,4.806-8.608,4.806-10.692C24.13,5.614,20.034,1.519,15,1.519z M15,14.182c-2.127,0-3.854-1.729-3.854-3.853
	c0-2.125,1.728-3.854,3.854-3.854c2.124,0,3.852,1.729,3.852,3.854C18.852,12.453,17.124,14.182,15,14.182z M15,7.921
	c-1.328,0-2.41,1.08-2.41,2.408s1.082,2.407,2.41,2.407c1.326,0,2.407-1.079,2.407-2.407S16.326,7.921,15,7.921z"/>
</svg>
