<?xml version="1.0" encoding="utf-8"?>
<!-- Generator: Adobe Illustrator 16.0.0, SVG Export Plug-In . SVG Version: 6.00 Build 0)  -->
<!DOCTYPE svg PUBLIC "-//W3C//DTD SVG 1.1//EN" "http://www.w3.org/Graphics/SVG/1.1/DTD/svg11.dtd">
<svg version="1.1" id="Layer_1" xmlns="http://www.w3.org/2000/svg" xmlns:xlink="http://www.w3.org/1999/xlink" x="0px" y="0px"
	 width="150px" height="150px" viewBox="0 0 150 150" enable-background="new 0 0 150 150" xml:space="preserve">
<path fill-rule="evenodd" clip-rule="evenodd" d="M149.39,74.995c0-41.078-33.314-74.389-74.389-74.389
	c-41.074,0-74.389,33.311-74.389,74.389c0,41.075,33.315,74.398,74.389,74.398C116.075,149.394,149.39,116.07,149.39,74.995
	L149.39,74.995z M7.381,74.995C7.381,37.657,37.657,7.379,75,7.379c37.342,0,67.622,30.278,67.622,67.616
	c0,37.343-30.279,67.622-67.622,67.622C37.657,142.617,7.381,112.338,7.381,74.995L7.381,74.995z M7.381,74.995"/>
<g>
	<g>
		<g>
			<path d="M112.474,41.868H93.469V38.77c0-5.541-4.507-10.047-10.047-10.047H65.356c-5.54,0-10.046,4.507-10.046,10.047v3.098
				H36.306c-1.409,0-2.536,1.127-2.536,2.535c0,1.409,1.127,2.536,2.536,2.536h4.581v59.568c0,7.475,6.085,13.557,13.559,13.557
				h39.888c7.474,0,13.56-6.082,13.56-13.557V46.939h4.581c1.408,0,2.535-1.127,2.535-2.536
				C115.009,42.996,113.882,41.868,112.474,41.868z M60.38,38.77c0-2.742,2.234-4.977,4.976-4.977h18.065
				c2.741,0,4.978,2.235,4.978,4.977v3.098H60.38V38.77z M102.821,106.507c0,4.676-3.813,8.487-8.488,8.487H54.445
				c-4.676,0-8.488-3.812-8.488-8.487V46.939h56.883v59.568H102.821z"/>
			<path d="M94.333,121.563H54.445c-8.303,0-15.058-6.755-15.058-15.057V48.438h-3.082c-2.225,0-4.035-1.81-4.035-4.035
				c0-2.225,1.81-4.034,4.035-4.034H53.81V38.77c0-6.368,5.18-11.547,11.546-11.547h18.065c6.366,0,11.547,5.179,11.547,11.547
				v1.599h17.505c2.226,0,4.035,1.81,4.035,4.034c0,2.226-1.81,4.035-4.035,4.035h-3.083v58.068
				C109.391,114.809,102.637,121.563,94.333,121.563z M36.306,43.368c-0.581,0-1.037,0.456-1.037,1.036
				c0,0.581,0.456,1.036,1.037,1.036 M42.387,45.439v61.067c0,6.648,5.41,12.058,12.059,12.058h39.888
				c6.649,0,12.06-5.409,12.06-12.058V45.439h6.081c0.581,0,1.035-0.456,1.035-1.036c0-0.58-0.454-1.036-1.035-1.036H91.969V38.77
				c0-4.713-3.833-8.548-8.547-8.548H65.356c-4.713,0-8.547,3.835-8.547,8.548v4.598 M94.333,116.493H54.445
				c-5.507,0-9.988-4.48-9.988-9.986V45.439h59.882v62.566h-0.131C103.482,112.805,99.331,116.493,94.333,116.493z M47.457,48.438
				v58.068c0,3.853,3.135,6.988,6.988,6.988h39.888c3.854,0,6.988-3.136,6.988-6.988l0.02-58.068H47.457z M89.898,43.368H58.881
				V38.77c0-3.571,2.906-6.477,6.476-6.477h18.065c3.571,0,6.477,2.906,6.477,6.477V43.368z M61.88,40.369H86.9V38.77
				c0-1.918-1.562-3.478-3.479-3.478H65.356c-1.917,0-3.477,1.56-3.477,3.478V40.369z"/>
		</g>
		<g>
			<path d="M74.389,105.905c1.409,0,2.536-1.126,2.536-2.535V58.563c0-1.409-1.127-2.536-2.536-2.536s-2.535,1.127-2.535,2.536
				v44.789C71.854,104.759,72.98,105.905,74.389,105.905z"/>
			<path d="M74.389,107.405c-2.225,0-4.034-1.818-4.034-4.054V58.563c0-2.225,1.81-4.035,4.034-4.035
				c2.226,0,4.036,1.811,4.036,4.035v44.807C78.425,105.594,76.615,107.405,74.389,107.405z M74.389,57.527
				c-0.58,0-1.035,0.455-1.035,1.036v44.789c0,0.581,0.464,1.055,1.035,1.055c0.581,0,1.037-0.455,1.037-1.036V58.563
				C75.426,57.982,74.97,57.527,74.389,57.527z"/>
		</g>
		<g>
			<path d="M57.844,103.106c1.409,0,2.536-1.127,2.536-2.534V61.343c0-1.41-1.127-2.535-2.536-2.535
				c-1.407,0-2.534,1.125-2.534,2.535v39.229C55.31,101.979,56.455,103.106,57.844,103.106z"/>
			<path d="M57.844,104.606c-2.224,0-4.034-1.81-4.034-4.034V61.343c0-2.225,1.81-4.034,4.034-4.034c2.226,0,4.036,1.81,4.036,4.034
				v39.229C61.88,102.797,60.07,104.606,57.844,104.606z M57.844,60.307c-0.58,0-1.035,0.456-1.035,1.036v39.229
				c0,0.571,0.464,1.034,1.035,1.034c0.582,0,1.037-0.452,1.037-1.034V61.343C58.881,60.763,58.426,60.307,57.844,60.307z"/>
		</g>
		<g>
			<path d="M90.935,103.106c1.408,0,2.534-1.127,2.534-2.534V61.343c0-1.41-1.126-2.535-2.534-2.535
				c-1.409,0-2.535,1.125-2.535,2.535v39.229C88.399,101.979,89.525,103.106,90.935,103.106z"/>
			<path d="M90.935,104.606c-2.225,0-4.034-1.81-4.034-4.034V61.343c0-2.225,1.81-4.034,4.034-4.034c2.224,0,4.034,1.81,4.034,4.034
				v39.229C94.969,102.797,93.158,104.606,90.935,104.606z M90.935,60.307c-0.582,0-1.036,0.456-1.036,1.036v39.229
				c0,0.582,0.454,1.034,1.036,1.034c0.58,0,1.034-0.452,1.034-1.034V61.343C91.969,60.763,91.515,60.307,90.935,60.307z"/>
		</g>
	</g>
</g>
</svg>
