<?xml version="1.0" encoding="utf-8"?>
<!-- Generator: Adobe Illustrator 16.0.0, SVG Export Plug-In . SVG Version: 6.00 Build 0)  -->
<!DOCTYPE svg PUBLIC "-//W3C//DTD SVG 1.1//EN" "http://www.w3.org/Graphics/SVG/1.1/DTD/svg11.dtd">
<svg version="1.1" id="Layer_1" xmlns="http://www.w3.org/2000/svg" xmlns:xlink="http://www.w3.org/1999/xlink" x="0px" y="0px"
	 width="90px" height="90px" viewBox="0 0 90 90" enable-background="new 0 0 90 90" xml:space="preserve">
<circle fill="#6F387A" cx="45" cy="45" r="44.681"/>
<g>
	<path fill="#FFFFFF" d="M63.928,62.243l-2.709-30.51c-0.058-0.678-0.629-1.19-1.297-1.19h-5.573
		c-0.078-5.09-4.238-9.202-9.348-9.202c-5.109,0-9.271,4.112-9.348,9.202h-5.573c-0.677,0-1.239,0.513-1.297,1.19l-2.709,30.51
		c0,0.039-0.01,0.078-0.01,0.117c0,3.474,3.184,6.299,7.103,6.299h23.669c3.919,0,7.103-2.825,7.103-6.299
		C63.938,62.321,63.938,62.282,63.928,62.243z M45,23.953c3.667,0,6.658,2.942,6.735,6.59h-13.47
		C38.343,26.895,41.333,23.953,45,23.953z M56.835,66.047H33.166c-2.458,0-4.451-1.626-4.49-3.629l2.593-29.252h4.374v3.967
		c0,0.726,0.581,1.307,1.306,1.307c0.727,0,1.306-0.581,1.306-1.307v-3.967h13.48v3.967c0,0.726,0.581,1.307,1.307,1.307
		s1.307-0.581,1.307-1.307v-3.967h4.373l2.604,29.252C61.286,64.421,59.283,66.047,56.835,66.047z"/>
</g>
</svg>
