<?xml version="1.0" encoding="utf-8"?>
<!-- Generator: Adobe Illustrator 16.0.0, SVG Export Plug-In . SVG Version: 6.00 Build 0)  -->
<!DOCTYPE svg PUBLIC "-//W3C//DTD SVG 1.1//EN" "http://www.w3.org/Graphics/SVG/1.1/DTD/svg11.dtd">
<svg version="1.1" id="Layer_1" xmlns="http://www.w3.org/2000/svg" xmlns:xlink="http://www.w3.org/1999/xlink" x="0px" y="0px"
	 width="40px" height="40px" viewBox="0 0 40 40" enable-background="new 0 0 40 40" xml:space="preserve">
<g>
	<g>
		
			<linearGradient id="SVGID_1_" gradientUnits="userSpaceOnUse" x1="409.1738" y1="-295.0615" x2="447.1785" y2="-263.095" gradientTransform="matrix(1 0 0 -1 -416.0195 -252.4805)">
			<stop  offset="0" style="stop-color:#F8CB62"/>
			<stop  offset="0.328" style="stop-color:#F8CB62"/>
			<stop  offset="0.6667" style="stop-color:#E12E49"/>
			<stop  offset="1" style="stop-color:#5A4EA0"/>
		</linearGradient>
		<path fill="url(#SVGID_1_)" d="M20,3.698c5.31,0,5.938,0.02,8.035,0.116c1.938,0.088,2.991,0.412,3.692,0.685
			c0.928,0.361,1.591,0.792,2.286,1.487c0.695,0.696,1.126,1.359,1.487,2.287c0.272,0.701,0.596,1.754,0.685,3.692
			c0.096,2.097,0.116,2.726,0.116,8.035c0,5.31-0.021,5.938-0.116,8.036c-0.089,1.938-0.412,2.99-0.685,3.691
			c-0.36,0.929-0.792,1.591-1.487,2.286c-0.695,0.696-1.358,1.127-2.286,1.487c-0.701,0.272-1.754,0.597-3.692,0.686
			c-2.097,0.095-2.726,0.115-8.035,0.115s-5.938-0.021-8.035-0.115c-1.939-0.089-2.992-0.413-3.692-0.686
			c-0.929-0.36-1.591-0.791-2.286-1.487c-0.696-0.695-1.127-1.357-1.488-2.286c-0.272-0.701-0.596-1.754-0.685-3.691
			C3.718,25.938,3.698,25.31,3.698,20c0-5.309,0.02-5.938,0.115-8.035c0.089-1.938,0.413-2.992,0.685-3.692
			c0.361-0.928,0.792-1.59,1.488-2.286C6.682,5.291,7.344,4.86,8.272,4.499c0.7-0.272,1.753-0.596,3.692-0.685
			C14.062,3.718,14.69,3.698,20,3.698 M20,0.115c-5.4,0-6.077,0.023-8.199,0.12C9.685,0.332,8.239,0.668,6.975,1.159
			C5.667,1.667,4.559,2.347,3.452,3.453C2.347,4.559,1.667,5.667,1.159,6.975c-0.492,1.265-0.828,2.71-0.925,4.827
			C0.138,13.922,0.115,14.6,0.115,20s0.022,6.078,0.119,8.198c0.097,2.117,0.434,3.563,0.925,4.827
			c0.508,1.309,1.188,2.417,2.293,3.521c1.106,1.106,2.215,1.786,3.522,2.295c1.265,0.491,2.71,0.827,4.826,0.924
			c2.122,0.098,2.799,0.119,8.199,0.119s6.077-0.021,8.198-0.119c2.116-0.097,3.562-0.433,4.827-0.924
			c1.308-0.509,2.417-1.188,3.521-2.295c1.105-1.104,1.786-2.213,2.294-3.521c0.491-1.265,0.827-2.71,0.924-4.827
			c0.098-2.12,0.12-2.798,0.12-8.198s-0.022-6.078-0.12-8.198c-0.097-2.117-0.433-3.563-0.924-4.827
			c-0.508-1.307-1.188-2.416-2.294-3.522c-1.104-1.105-2.214-1.786-3.521-2.293c-1.266-0.492-2.711-0.828-4.827-0.924
			C26.077,0.138,25.399,0.115,20,0.115L20,0.115z"/>
		
			<linearGradient id="SVGID_2_" gradientUnits="userSpaceOnUse" x1="409.1738" y1="-295.0615" x2="447.1786" y2="-263.0949" gradientTransform="matrix(1 0 0 -1 -416.0195 -252.4805)">
			<stop  offset="0" style="stop-color:#F8CB62"/>
			<stop  offset="0.328" style="stop-color:#F8CB62"/>
			<stop  offset="0.6667" style="stop-color:#E12E49"/>
			<stop  offset="1" style="stop-color:#5A4EA0"/>
		</linearGradient>
		<path fill="url(#SVGID_2_)" d="M20,9.789C14.36,9.789,9.789,14.361,9.789,20c0,5.64,4.571,10.212,10.211,10.212
			S30.211,25.64,30.211,20C30.211,14.361,25.64,9.789,20,9.789z M20,26.629c-3.66,0-6.628-2.968-6.628-6.629
			c0-3.66,2.968-6.628,6.628-6.628c3.661,0,6.628,2.967,6.628,6.628C26.628,23.661,23.661,26.629,20,26.629z"/>
		
			<linearGradient id="SVGID_3_" gradientUnits="userSpaceOnUse" x1="408.3506" y1="-294.0659" x2="446.3473" y2="-262.1061" gradientTransform="matrix(1 0 0 -1 -416.0195 -252.4805)">
			<stop  offset="0" style="stop-color:#F8CB62"/>
			<stop  offset="0.328" style="stop-color:#F8CB62"/>
			<stop  offset="0.6667" style="stop-color:#E12E49"/>
			<stop  offset="1" style="stop-color:#5A4EA0"/>
		</linearGradient>
		<circle fill="url(#SVGID_3_)" cx="30.614" cy="9.385" r="2.386"/>
	</g>
</g>
</svg>
