<?xml version="1.0" encoding="utf-8"?>
<!-- Generator: Adobe Illustrator 16.0.0, SVG Export Plug-In . SVG Version: 6.00 Build 0)  -->
<!DOCTYPE svg PUBLIC "-//W3C//DTD SVG 1.1//EN" "http://www.w3.org/Graphics/SVG/1.1/DTD/svg11.dtd">
<svg version="1.1" id="Layer_1" xmlns="http://www.w3.org/2000/svg" xmlns:xlink="http://www.w3.org/1999/xlink" x="0px" y="0px"
	 width="40px" height="40px" viewBox="0 0 40 40" enable-background="new 0 0 40 40" xml:space="preserve">
<g>
	<g>
		<path fill="#CB2128" d="M19.937,0C8.928,0,0,8.925,0,19.935c0,8.163,4.909,15.175,11.933,18.258
			c-0.056-1.393-0.01-3.063,0.349-4.578c0.383-1.618,2.564-10.861,2.564-10.861s-0.638-1.273-0.638-3.155
			c0-2.954,1.712-5.161,3.847-5.161c1.813,0,2.689,1.363,2.689,2.993c0,1.823-1.163,4.55-1.762,7.075
			c-0.498,2.114,1.06,3.84,3.148,3.84c3.775,0,6.319-4.851,6.319-10.599c0-4.368-2.943-7.639-8.294-7.639
			c-6.048,0-9.814,4.509-9.814,9.546c0,1.737,0.511,2.961,1.313,3.909c0.37,0.437,0.419,0.612,0.287,1.111
			c-0.095,0.367-0.314,1.25-0.405,1.6c-0.135,0.506-0.542,0.686-0.999,0.499c-2.787-1.137-4.082-4.187-4.082-7.615
			c0-5.664,4.774-12.454,14.247-12.454c7.611,0,12.621,5.508,12.621,11.419c0,7.82-4.348,13.663-10.756,13.663
			c-2.154,0-4.178-1.164-4.87-2.485c0,0-1.158,4.593-1.403,5.48c-0.422,1.536-1.249,3.072-2.007,4.271
			c1.793,0.529,3.688,0.817,5.65,0.817c11.008,0,19.934-8.926,19.934-19.935C39.87,8.925,30.944,0,19.937,0z"/>
	</g>
</g>
</svg>
