<?xml version="1.0" encoding="utf-8"?>
<!-- Generator: Adobe Illustrator 16.0.0, SVG Export Plug-In . SVG Version: 6.00 Build 0)  -->
<!DOCTYPE svg PUBLIC "-//W3C//DTD SVG 1.1//EN" "http://www.w3.org/Graphics/SVG/1.1/DTD/svg11.dtd">
<svg version="1.1" id="Layer_1" xmlns="http://www.w3.org/2000/svg" xmlns:xlink="http://www.w3.org/1999/xlink" x="0px" y="0px"
	 width="18px" height="18px" viewBox="0 0 18 18" enable-background="new 0 0 18 18" xml:space="preserve">
<g>
	<path fill="#FFFFFF" d="M15.993,17.849H2.007c-0.328,0-0.594-0.266-0.594-0.593c0-3.407,2.699-7.369,6.18-7.369h2.814
		c3.48,0,6.18,3.962,6.18,7.369C16.587,17.583,16.321,17.849,15.993,17.849z M2.634,16.661h12.732
		c-0.293-2.648-2.459-5.588-4.96-5.588H7.592C5.093,11.073,2.925,14.013,2.634,16.661z"/>
</g>
<g>
	<path fill="#FFFFFF" d="M9,8.892c-2.41,0-4.37-1.961-4.37-4.371S6.59,0.15,9,0.15c2.409,0,4.37,1.96,4.37,4.371
		S11.409,8.892,9,8.892z M9,1.338c-1.755,0-3.183,1.427-3.183,3.183c0,1.754,1.428,3.182,3.183,3.182s3.183-1.428,3.183-3.182
		C12.183,2.766,10.755,1.338,9,1.338z"/>
</g>
</svg>
