<?xml version="1.0" encoding="utf-8"?>
<!-- Generator: Adobe Illustrator 16.0.0, SVG Export Plug-In . SVG Version: 6.00 Build 0)  -->
<!DOCTYPE svg PUBLIC "-//W3C//DTD SVG 1.1//EN" "http://www.w3.org/Graphics/SVG/1.1/DTD/svg11.dtd">
<svg version="1.1" id="Layer_1" xmlns="http://www.w3.org/2000/svg" xmlns:xlink="http://www.w3.org/1999/xlink" x="0px" y="0px"
	 width="210px" height="40px" viewBox="0 0 210 40" enable-background="new 0 0 210 40" xml:space="preserve">
<rect x="87.84" y="0" fill="#FFFFFF" width="84.533" height="40"/>
<g>
	<path fill="#2A3987" d="M149.517,32.043c0,0,0.95-2.521,1.169-3.076c0.637,0,6.336,0.008,7.15,0.008
		c0.168,0.713,0.682,3.068,0.682,3.068h5.182l-4.519-20.465h-4.312c-1.342,0-2.334,0.364-2.923,1.696l-8.29,18.769H149.517
		L149.517,32.043z M154.512,19.049c-0.026,0.056,0.465-1.185,0.746-1.955l0.379,1.765c0,0,1.066,4.893,1.287,5.917h-4.629
		C152.754,23.598,154.512,19.049,154.512,19.049z"/>
	<polygon fill="#2A3987" points="124.611,32.037 128.109,11.555 122.525,11.555 119.033,32.037 	"/>
	<path fill="#2A3987" d="M134.328,32.338c5.867,0,9.682-2.74,9.719-6.996c0.021-2.326-1.471-4.1-4.687-5.564
		c-1.954-0.945-3.148-1.578-3.133-2.537c0-0.849,1.009-1.76,3.195-1.76c1.829-0.026,3.148,0.372,4.179,0.786l0.504,0.23l0.756-4.436
		c-1.107-0.414-2.838-0.853-5.002-0.853c-5.518,0-9.398,2.772-9.437,6.754c-0.034,2.944,2.776,4.584,4.892,5.564
		c2.174,1.002,2.904,1.641,2.887,2.537c-0.014,1.373-1.73,2-3.337,2c-2.234,0-3.419-0.311-5.255-1.078l-0.715-0.324l-0.785,4.588
		C129.413,31.818,131.826,32.316,134.328,32.338z"/>
	<path fill="#2A3987" d="M100.57,14.942l4.999,17.082l5.908-0.008l8.789-20.448h-5.917l-5.466,13.97l-0.584-2.111
		C107.23,20.891,104.167,17.24,100.57,14.942z"/>
	<path fill="#F8B351" d="M108.07,22.09l-1.885-9.05c-0.32-1.247-1.259-1.617-2.431-1.668h-8.651l-0.077,0.414
		C101.764,13.42,106.221,17.358,108.07,22.09z"/>
</g>
<g>
	<polygon fill="#203A70" points="9.74,40 72.962,40 72.962,0 9.74,0 	"/>
	<path fill="#FCB131" d="M41.402,32.779c3.05,2.781,7.152,4.477,11.593,4.477c9.56,0,17.288-7.73,17.288-17.29
		c0-9.526-7.728-17.289-17.288-17.289c-4.44,0-8.542,1.695-11.593,4.474c-3.492,3.187-5.695,7.732-5.695,12.815
		S37.91,29.627,41.402,32.779L41.402,32.779z"/>
	<path fill="#EC2130" d="M46.996,18.134c-0.069-0.61-0.169-1.22-0.305-1.83H36.114c0.135-0.609,0.305-1.219,0.508-1.829h9.56
		c-0.204-0.612-0.44-1.222-0.711-1.833h-8.136c0.305-0.61,0.643-1.22,1.017-1.83h6.102c-0.374-0.645-0.814-1.255-1.323-1.83h-3.457
		c0.509-0.646,1.118-1.256,1.729-1.834c-3.051-2.778-7.118-4.473-11.595-4.473c-9.559,0-17.289,7.762-17.289,17.289
		c0,9.559,7.73,17.29,17.289,17.29c4.476,0,8.543-1.693,11.595-4.477l0,0c0.609-0.576,1.22-1.186,1.763-1.83h-3.492
		c-0.475-0.574-0.916-1.184-1.322-1.83h6.102c0.373-0.576,0.711-1.186,1.018-1.83h-8.136c-0.271-0.578-0.509-1.188-0.713-1.83h9.56
		c0.203-0.611,0.373-1.221,0.509-1.832c0.135-0.609,0.236-1.219,0.305-1.83c0.067-0.609,0.102-1.218,0.102-1.831
		C47.097,19.354,47.063,18.744,46.996,18.134L46.996,18.134z"/>
	<path fill="#FFFFFF" d="M67.979,23.967c0-0.307,0.238-0.545,0.577-0.545c0.305,0,0.542,0.238,0.542,0.545
		c0,0.305-0.238,0.576-0.542,0.576C68.217,24.543,67.979,24.271,67.979,23.967L67.979,23.967z M68.556,24.406
		c0.203,0,0.406-0.203,0.406-0.439c0-0.24-0.203-0.406-0.406-0.406c-0.237,0-0.44,0.166-0.44,0.406
		C68.115,24.203,68.318,24.406,68.556,24.406L68.556,24.406z M68.454,24.238h-0.102v-0.512h0.204c0.034,0,0.101,0,0.135,0.035
		c0.034,0.035,0.068,0.068,0.068,0.104c0,0.068-0.034,0.135-0.102,0.135l0.102,0.238h-0.136l-0.067-0.205h-0.102V24.238
		L68.454,24.238z M68.454,23.934h0.067c0.034,0,0.068,0,0.068,0c0.034,0,0.034-0.035,0.034-0.068c0,0,0-0.035-0.034-0.035
		c0,0-0.034,0-0.068,0h-0.067V23.934L68.454,23.934z"/>
	<path fill="#203A70" d="M35.538,24.949c-0.576,0.17-0.983,0.238-1.424,0.238c-0.88,0-1.423-0.543-1.423-1.561
		c0-0.203,0.034-0.406,0.068-0.643l0.102-0.68l0.102-0.576l0.813-4.882h1.798l-0.203,1.083h1.119l-0.271,1.797h-1.12l-0.508,2.916
		c0,0.102-0.034,0.203-0.034,0.271c0,0.373,0.204,0.541,0.644,0.541c0.237,0,0.374-0.033,0.577-0.064L35.538,24.949L35.538,24.949z"
		/>
	<path fill="#203A70" d="M41.334,24.883c-0.645,0.203-1.289,0.305-1.933,0.305c-1.999,0-3.186-1.086-3.186-3.188
		c0-2.44,1.39-4.271,3.288-4.271c1.525,0,2.508,1.016,2.508,2.61c0,0.51-0.068,1.019-0.238,1.763h-3.729c0,0.102,0,0.135,0,0.205
		c0,0.846,0.542,1.254,1.627,1.254c0.679,0,1.288-0.137,1.967-0.441L41.334,24.883L41.334,24.883z M40.215,20.641
		c0-0.134,0-0.268,0-0.337c0-0.577-0.34-0.915-0.882-0.915c-0.611,0-1.018,0.439-1.187,1.251H40.215L40.215,20.641z"/>
	<polygon fill="#203A70" points="21.198,25.049 19.333,25.049 20.418,18.304 18.011,25.049 16.723,25.049 16.587,18.337 
		15.435,25.049 13.638,25.049 15.095,16.27 17.774,16.27 17.875,21.695 19.672,16.27 22.655,16.27 	"/>
	<path fill="#203A70" d="M25.706,21.863c-0.203,0-0.237-0.033-0.374-0.033c-1.05,0-1.593,0.406-1.593,1.084
		c0,0.477,0.271,0.746,0.679,0.746C25.333,23.66,25.672,22.916,25.706,21.863L25.706,21.863z M27.198,25.049h-1.627l0.034-0.746
		c-0.407,0.578-0.95,0.883-1.966,0.883c-0.915,0-1.661-0.813-1.661-1.967c0-0.338,0.068-0.643,0.135-0.914
		c0.305-1.119,1.424-1.798,3.119-1.83c0.203,0,0.542,0,0.814,0.031c0.068-0.236,0.068-0.338,0.068-0.475
		c0-0.474-0.373-0.61-1.255-0.61c-0.541,0-1.117,0.102-1.559,0.204l-0.238,0.102h-0.135l0.271-1.594
		c0.881-0.271,1.491-0.372,2.17-0.372c1.627,0,2.474,0.714,2.474,2.102c0,0.339,0.034,0.612-0.102,1.389l-0.373,2.543l-0.068,0.441
		l-0.068,0.373v0.236L27.198,25.049L27.198,25.049z"/>
	<path fill="#203A70" d="M50.352,18c0.508,0,0.982,0.134,1.661,0.476l0.305-1.935c-0.169-0.065-0.205-0.065-0.441-0.168l-0.78-0.169
		c-0.237-0.069-0.509-0.102-0.848-0.102c-0.916,0-1.458,0-2.034,0.374c-0.305,0.167-0.679,0.439-1.118,0.915l-0.204-0.069
		l-1.932,1.358l0.102-0.748h-2l-1.119,7.12h1.865l0.678-3.83c0,0,0.271-0.542,0.406-0.713c0.34-0.44,0.645-0.44,1.017-0.44
		c0.067,0,0.136,0,0.136,0c-0.034,0.409-0.069,0.883-0.069,1.355c0,2.34,1.324,3.797,3.357,3.797c0.509,0,0.949-0.068,1.627-0.271
		l0.339-2c-0.611,0.307-1.119,0.443-1.594,0.443c-1.084,0-1.728-0.781-1.728-2.139C47.979,19.354,48.928,18,50.352,18L50.352,18z"/>
	<path fill="#203A70" d="M66.182,16.27l-0.407,2.51c-0.44-0.679-0.983-0.983-1.695-0.983c-0.983,0-1.898,0.541-2.475,1.593l0,0
		l-1.186-0.711l0.102-0.748h-2l-1.153,7.119h1.898l0.61-3.83c0,0,0.475-0.541,0.61-0.712c0.271-0.338,0.577-0.44,0.814-0.44
		c-0.204,0.612-0.339,1.323-0.339,2.104c0,1.797,0.95,2.98,2.306,2.98c0.678,0,1.221-0.236,1.729-0.814l-0.102,0.713h1.797
		l1.424-8.78L66.182,16.27L66.182,16.27z M63.912,23.354c-0.645,0-0.95-0.439-0.95-1.387c0-1.389,0.576-2.408,1.458-2.408
		c0.644,0,0.983,0.508,0.983,1.425C65.403,22.373,64.792,23.354,63.912,23.354L63.912,23.354z"/>
	<path fill="#203A70" d="M55.266,21.863c-0.203,0-0.237-0.033-0.372-0.033c-1.05,0-1.593,0.406-1.593,1.084
		c0,0.477,0.271,0.746,0.677,0.746C54.894,23.66,55.233,22.916,55.266,21.863L55.266,21.863z M56.758,25.049h-1.627l0.035-0.746
		c-0.407,0.578-0.95,0.883-1.966,0.883c-0.916,0-1.729-0.781-1.729-1.967c0.034-1.693,1.288-2.744,3.322-2.744
		c0.202,0,0.542,0,0.813,0.031c0.068-0.236,0.068-0.338,0.068-0.475c0-0.474-0.373-0.61-1.255-0.61
		c-0.542,0-1.151,0.102-1.559,0.204l-0.271,0.102h-0.103l0.271-1.594c0.881-0.271,1.492-0.372,2.169-0.372
		c1.627,0,2.475,0.714,2.475,2.102c0,0.339,0.034,0.612-0.102,1.389l-0.373,2.543l-0.068,0.443l-0.067,0.371l-0.034,0.238V25.049
		L56.758,25.049z"/>
	<path fill="#203A70" d="M31.096,19.457c0.373,0,0.882,0.034,1.424,0.102l0.271-1.661c-0.543-0.069-1.254-0.136-1.695-0.136
		c-2.068,0-2.779,1.12-2.779,2.44c0,0.848,0.406,1.493,1.39,1.932c0.78,0.375,0.915,0.441,0.915,0.748
		c0,0.439-0.406,0.711-1.152,0.711c-0.542,0-1.05-0.102-1.662-0.271l-0.203,1.627h0.034l0.339,0.068
		c0.102,0.033,0.271,0.068,0.475,0.068c0.475,0.066,0.848,0.066,1.085,0.066c2.067,0,2.95-0.779,2.95-2.371
		c0-0.984-0.476-1.561-1.424-1.968c-0.78-0.373-0.882-0.407-0.882-0.746C30.18,19.728,30.52,19.457,31.096,19.457L31.096,19.457z"/>
	<path fill="#FFFFFF" d="M52.826,16l-0.306,1.898c-0.678-0.339-1.151-0.476-1.661-0.476c-1.423,0-2.406,1.358-2.406,3.289
		c0,1.323,0.678,2.135,1.762,2.135c0.475,0,0.984-0.135,1.593-0.439l-0.338,1.998c-0.678,0.172-1.119,0.238-1.661,0.238
		c-2.001,0-3.254-1.424-3.254-3.761c0-3.154,1.729-5.324,4.203-5.324c0.339,0,0.611,0.035,0.848,0.068l0.779,0.203
		C52.623,15.931,52.657,15.931,52.826,16L52.826,16z"/>
	<path fill="#FFFFFF" d="M46.826,17.32c-0.068-0.033-0.135-0.033-0.204-0.033c-0.61,0-0.95,0.305-1.525,1.15l0.169-1.083h-1.729
		l-1.119,7.151h1.865c0.678-4.373,0.848-5.117,1.763-5.117c0.034,0,0.034,0,0.135,0c0.17-0.85,0.373-1.492,0.711-2.069H46.826
		L46.826,17.32z"/>
	<path fill="#FFFFFF" d="M36.012,24.406c-0.509,0.172-0.916,0.238-1.355,0.238c-0.951,0-1.492-0.543-1.492-1.559
		c0-0.203,0.033-0.406,0.068-0.646l0.102-0.711l0.102-0.543l0.813-4.882h1.864l-0.203,1.051h0.949l-0.271,1.762h-0.949l-0.508,2.95
		c0,0.135-0.035,0.236-0.035,0.305c0,0.373,0.204,0.543,0.645,0.543c0.236,0,0.373-0.033,0.508-0.068L36.012,24.406L36.012,24.406z"
		/>
	<path fill="#FFFFFF" d="M28.792,19.626c0,0.881,0.44,1.526,1.424,1.968c0.779,0.373,0.881,0.475,0.881,0.813
		c0,0.439-0.339,0.645-1.084,0.645c-0.542,0-1.052-0.102-1.661-0.307l-0.271,1.662h0.102l0.339,0.068
		c0.102,0.033,0.271,0.068,0.474,0.068c0.44,0.035,0.814,0.066,1.051,0.066c1.966,0,2.881-0.744,2.881-2.373
		c0-0.984-0.373-1.557-1.322-2.001c-0.78-0.337-0.881-0.438-0.881-0.744c0-0.406,0.305-0.609,0.916-0.609
		c0.373,0,0.881,0.067,1.355,0.134l0.271-1.661c-0.475-0.067-1.22-0.136-1.662-0.136C29.503,17.219,28.792,18.304,28.792,19.626
		L28.792,19.626z"/>
	<path fill="#FFFFFF" d="M67.166,24.508h-1.797l0.102-0.711c-0.51,0.541-1.05,0.781-1.729,0.781c-1.355,0-2.271-1.154-2.271-2.951
		c0-2.373,1.39-4.373,3.05-4.373c0.746,0,1.288,0.305,1.797,0.982l0.406-2.508h1.865L67.166,24.508L67.166,24.508z M64.385,22.814
		c0.882,0,1.491-0.984,1.491-2.409c0-0.882-0.338-1.39-0.983-1.39c-0.847,0-1.458,0.983-1.458,2.408
		C63.436,22.338,63.741,22.814,64.385,22.814L64.385,22.814z"/>
	<path fill="#FFFFFF" d="M41.741,24.338c-0.645,0.205-1.254,0.307-1.932,0.307c-2.102,0-3.187-1.119-3.187-3.188
		c0-2.474,1.39-4.271,3.289-4.271c1.526,0,2.508,1.017,2.508,2.61c0,0.508-0.066,1.017-0.203,1.762h-3.729
		c-0.035,0.104-0.035,0.137-0.035,0.205c0,0.814,0.542,1.254,1.662,1.254c0.644,0,1.254-0.135,1.933-0.441L41.741,24.338
		L41.741,24.338z M40.69,20.101c0-0.136,0-0.272,0-0.374c0-0.575-0.305-0.915-0.881-0.915c-0.577,0-1.017,0.476-1.187,1.289H40.69
		L40.69,20.101z"/>
	<polygon fill="#FFFFFF" points="21.672,24.508 19.808,24.508 20.893,17.762 18.485,24.508 17.198,24.508 17.061,17.796 
		15.909,24.508 14.18,24.508 15.638,15.728 18.316,15.728 18.418,21.15 20.214,15.728 23.13,15.728 	"/>
	<path fill="#FFFFFF" d="M26.317,21.32c-0.204-0.033-0.306-0.033-0.441-0.033c-1.05,0-1.592,0.375-1.592,1.086
		c0,0.439,0.271,0.744,0.677,0.744C25.741,23.117,26.282,22.373,26.317,21.32L26.317,21.32z M27.672,24.508h-1.559l0.034-0.746
		c-0.475,0.576-1.086,0.848-1.967,0.848c-1.017,0-1.695-0.779-1.695-1.93c0-1.73,1.187-2.749,3.289-2.749
		c0.203,0,0.476,0,0.747,0.035c0.068-0.203,0.068-0.305,0.068-0.441c0-0.473-0.305-0.642-1.186-0.642
		c-0.543,0-1.153,0.067-1.56,0.203l-0.271,0.067l-0.169,0.034l0.271-1.593c0.949-0.272,1.558-0.374,2.237-0.374
		c1.628,0,2.475,0.711,2.475,2.069c0,0.373-0.034,0.643-0.169,1.423l-0.374,2.544l-0.067,0.439l-0.034,0.371l-0.034,0.238
		L27.672,24.508L27.672,24.508z"/>
	<path fill="#FFFFFF" d="M55.877,21.32c-0.203-0.033-0.306-0.033-0.44-0.033c-1.052,0-1.594,0.375-1.594,1.086
		c0,0.439,0.27,0.744,0.678,0.744C55.266,23.117,55.843,22.373,55.877,21.32L55.877,21.32z M57.233,24.508h-1.56l0.034-0.746
		c-0.476,0.576-1.119,0.848-1.967,0.848c-1.017,0-1.729-0.779-1.729-1.93c0-1.73,1.221-2.749,3.321-2.749
		c0.203,0,0.474,0,0.746,0.035c0.068-0.203,0.068-0.305,0.068-0.441c0-0.473-0.305-0.642-1.186-0.642
		c-0.543,0-1.153,0.067-1.559,0.203l-0.271,0.067l-0.169,0.034l0.271-1.593c0.948-0.272,1.558-0.374,2.236-0.374
		c1.627,0,2.475,0.711,2.475,2.069c0,0.373-0.034,0.643-0.169,1.423l-0.373,2.544l-0.066,0.439l-0.068,0.371l-0.035,0.238
		L57.233,24.508L57.233,24.508z"/>
	<path fill="#FFFFFF" d="M62.25,17.32c-0.034-0.033-0.102-0.033-0.17-0.033c-0.609,0-0.983,0.305-1.559,1.15l0.169-1.083h-1.695
		l-1.152,7.151h1.898c0.644-4.373,0.847-5.117,1.729-5.117c0.067,0,0.067,0,0.134,0c0.169-0.85,0.408-1.492,0.713-2.069H62.25
		L62.25,17.32z"/>
</g>
</svg>
