<?xml version="1.0" encoding="utf-8"?>
<!-- Generator: Adobe Illustrator 16.0.0, SVG Export Plug-In . SVG Version: 6.00 Build 0)  -->
<!DOCTYPE svg PUBLIC "-//W3C//DTD SVG 1.1//EN" "http://www.w3.org/Graphics/SVG/1.1/DTD/svg11.dtd">
<svg version="1.1" id="Layer_1" xmlns="http://www.w3.org/2000/svg" xmlns:xlink="http://www.w3.org/1999/xlink" x="0px" y="0px"
	 width="85px" height="25px" viewBox="0 0 85 25" enable-background="new 0 0 85 25" xml:space="preserve">
<rect x="0.233" y="-7.5" fill="#FFFFFF" width="84.533" height="40"/>
<g>
	<path fill="#2A3B87" d="M61.678,23.043c0,0,0.949-2.521,1.168-3.076c0.637,0,6.336,0.008,7.15,0.008
		c0.168,0.713,0.682,3.068,0.682,3.068h5.183L71.342,2.578h-4.313c-1.342,0-2.334,0.364-2.924,1.696l-8.289,18.769H61.678
		L61.678,23.043z M66.672,10.049c-0.025,0.056,0.465-1.185,0.746-1.955l0.379,1.765c0,0,1.066,4.893,1.287,5.917h-4.629
		C64.914,14.598,66.672,10.049,66.672,10.049z"/>
	<polygon fill="#2A3B87" points="36.771,23.037 40.27,2.555 34.686,2.555 31.193,23.037 	"/>
	<path fill="#2A3B87" d="M46.488,23.338c5.867,0,9.682-2.74,9.719-6.996c0.021-2.326-1.471-4.1-4.688-5.564
		c-1.953-0.945-3.147-1.578-3.133-2.537c0-0.849,1.01-1.76,3.195-1.76c1.829-0.026,3.148,0.372,4.18,0.786l0.504,0.23l0.756-4.436
		c-1.107-0.414-2.838-0.853-5.002-0.853c-5.519,0-9.398,2.772-9.438,6.754c-0.033,2.944,2.776,4.584,4.893,5.563
		c2.174,1.002,2.904,1.642,2.887,2.537c-0.014,1.373-1.73,2-3.338,2c-2.233,0-3.418-0.311-5.254-1.078l-0.715-0.323l-0.785,4.588
		C41.573,22.818,43.986,23.316,46.488,23.338z"/>
	<path fill="#2A3B87" d="M12.73,5.942l4.999,17.082l5.908-0.008l8.789-20.448H26.51l-5.467,13.97l-0.584-2.11
		C19.391,11.891,16.327,8.24,12.73,5.942z"/>
	<path fill="#F8B352" d="M20.23,13.09l-1.885-9.05c-0.32-1.247-1.26-1.617-2.432-1.668H7.263L7.186,2.786
		C13.924,4.42,18.381,8.358,20.23,13.09z"/>
</g>
</svg>
