<?xml version="1.0" encoding="utf-8"?>
<!-- Generator: Adobe Illustrator 16.0.0, SVG Export Plug-In . SVG Version: 6.00 Build 0)  -->
<!DOCTYPE svg PUBLIC "-//W3C//DTD SVG 1.1//EN" "http://www.w3.org/Graphics/SVG/1.1/DTD/svg11.dtd">
<svg version="1.1" id="Layer_1" xmlns="http://www.w3.org/2000/svg" xmlns:xlink="http://www.w3.org/1999/xlink" x="0px" y="0px"
	 width="17px" height="30px" viewBox="0 0 17 30" enable-background="new 0 0 17 30" xml:space="preserve">
<path fill="#25A561" d="M15.647,28.041c0.133-0.33,0.099-0.726-0.099-1.121l-2.801-5.304h-0.032
	c-0.099-0.198-0.264-0.363-0.528-0.528c-0.361-0.23-0.757-0.297-1.185-0.23l-2.109,0.528c-0.033,0-0.1,0-0.198,0
	c-0.1-0.034-0.132-0.034-0.165-0.068l-0.264-0.262c-0.165-0.166-0.362-0.43-0.625-0.825c-0.231-0.395-0.527-0.955-0.824-1.68
	c-0.296-0.725-0.56-1.647-0.823-2.769c-0.264-1.12-0.429-2.042-0.494-2.8c-0.066-0.758-0.066-1.384-0.033-1.846
	C5.5,10.609,5.598,10.148,5.73,9.786c0.033-0.033,0.066-0.099,0.132-0.165c0.065-0.066,0.132-0.1,0.165-0.1l1.813-0.428
	c0.33-0.066,0.593-0.231,0.824-0.495c0.231-0.263,0.362-0.527,0.396-0.856l0.494-6.129c0-0.23-0.033-0.461-0.132-0.659
	c-0.1-0.198-0.23-0.363-0.429-0.494C8.729,0.296,8.399,0.263,8.069,0.329L3.16,1.481C2.929,1.515,2.698,1.613,2.436,1.778
	c-0.231,0.166-0.429,0.33-0.594,0.528C1.809,2.338,1.71,2.471,1.546,2.734C1.348,2.998,1.15,3.393,0.952,3.92
	C0.721,4.448,0.523,5.106,0.327,5.897c-0.198,0.791-0.33,1.714-0.396,2.801c-0.066,1.087-0.066,2.307,0.033,3.69
	c0.098,1.385,0.362,2.933,0.79,4.646c0.494,2.175,1.121,4.021,1.813,5.536c0.692,1.517,1.417,2.735,2.109,3.726
	c0.691,0.953,1.351,1.679,1.912,2.207c0.592,0.494,1.021,0.823,1.317,1.021c0.132,0.064,0.231,0.131,0.297,0.163
	c0.065,0.034,0.131,0.066,0.131,0.066c0.231,0.101,0.494,0.165,0.791,0.198c0.297,0.032,0.562,0,0.792-0.065l4.876-1.121
	C15.188,28.635,15.485,28.404,15.647,28.041z"/>
</svg>
