<?xml version="1.0" encoding="utf-8"?>
<!-- Generator: Adobe Illustrator 16.0.0, SVG Export Plug-In . SVG Version: 6.00 Build 0)  -->
<!DOCTYPE svg PUBLIC "-//W3C//DTD SVG 1.1//EN" "http://www.w3.org/Graphics/SVG/1.1/DTD/svg11.dtd">
<svg version="1.1" id="Layer_1" xmlns="http://www.w3.org/2000/svg" xmlns:xlink="http://www.w3.org/1999/xlink" x="0px" y="0px"
	 width="100px" height="115px" viewBox="0 0 100 115" enable-background="new 0 0 100 115" xml:space="preserve">
<g>
	<path fill="#010101" d="M45.208,57.516L0.868,101.857c-1.232,1.224-1.232,3.219,0,4.459c0.614,0.608,1.42,0.922,2.229,0.922
		c0.809,0,1.612-0.313,2.227-0.922l44.673-44.676l44.678,44.676c0.615,0.608,1.424,0.922,2.232,0.922
		c0.803,0,1.612-0.313,2.227-0.922c1.234-1.24,1.234-3.235,0-4.459L54.793,57.516l44.368-44.374c1.234-1.232,1.234-3.229,0-4.459
		c-1.235-1.229-3.225-1.229-4.454,0L50.002,53.392L5.294,8.684c-1.234-1.229-3.229-1.229-4.459,0c-1.229,1.229-1.229,3.227,0,4.462
		L45.208,57.516z"/>
</g>
</svg>
