<?xml version="1.0" encoding="utf-8"?>
<!-- Generator: Adobe Illustrator 16.0.0, SVG Export Plug-In . SVG Version: 6.00 Build 0)  -->
<!DOCTYPE svg PUBLIC "-//W3C//DTD SVG 1.1//EN" "http://www.w3.org/Graphics/SVG/1.1/DTD/svg11.dtd">
<svg version="1.1" id="Layer_1" xmlns="http://www.w3.org/2000/svg" xmlns:xlink="http://www.w3.org/1999/xlink" x="0px" y="0px"
	 width="33px" height="28px" viewBox="0 0 33 28" enable-background="new 0 0 33 28" xml:space="preserve">
<g>
	<g>
		<path fill="#24A65F" d="M12.46,14.347c-1.301,0-2.275-1.083-2.275-2.275c0-1.3,1.083-2.275,2.275-2.275
			c1.3,0,2.275,1.083,2.275,2.275C14.844,13.265,13.761,14.347,12.46,14.347z M12.46,11.423c-0.325,0-0.65,0.325-0.65,0.649
			s0.325,0.65,0.65,0.65s0.649-0.325,0.649-0.65C13.218,11.639,12.894,11.423,12.46,11.423z"/>
	</g>
	<g>
		<path fill="#24A65F" d="M20.695,14.347c-1.301,0-2.276-1.083-2.276-2.275c0-1.3,1.084-2.275,2.276-2.275
			c1.3,0,2.275,1.083,2.275,2.275S21.995,14.347,20.695,14.347z M20.695,11.423c-0.324,0-0.65,0.325-0.65,0.649
			s0.326,0.65,0.65,0.65c0.325,0,0.649-0.325,0.649-0.65C21.345,11.639,21.129,11.423,20.695,11.423z"/>
	</g>
	<g>
		<path fill="#24A65F" d="M25.138,27.892c-1.518,0-3.033-0.649-4.226-1.842c-2.602,2.491-6.068,2.491-8.56,0
			C11.052,27.351,9.535,28,8.019,28C3.576,27.892,0,22.582,0,16.081C0,9.581,3.576,4.38,7.909,4.38c1.517,0,3.034,0.649,4.334,1.95
			c2.6-2.493,5.959-2.493,8.56,0c1.301-1.192,2.708-1.842,4.226-1.842c4.334,0,7.91,5.309,7.91,11.701
			C33.156,22.582,29.58,27.892,25.138,27.892z M20.912,23.557l0.649,0.76c0.76,0.866,2.059,1.95,3.684,1.95
			c3.468,0,6.285-4.552,6.285-10.077c0-5.634-2.817-10.076-6.285-10.076c-1.625,0-2.924,1.083-3.684,1.95l-0.649,0.65l-0.651-0.758
			c-0.758-0.868-2.058-1.95-3.684-1.95c-1.625,0-2.924,1.083-3.684,1.95l-0.65,0.758l-0.649-0.758
			c-0.759-0.868-2.06-1.95-3.685-1.95c-3.466,0-6.284,4.55-6.284,10.076c0,5.634,2.817,10.077,6.284,10.077
			c1.625,0,2.926-1.084,3.685-2.059l0.649-0.759l0.65,0.759c0.759,0.866,2.059,2.059,3.684,2.059c1.626,0,2.926-1.084,3.684-1.95
			L20.912,23.557z"/>
	</g>
	<g>
		<path fill="#24A65F" d="M15.819,5.462c-0.433-1.191-0.433-4.008,2.6-5.525l0.76,1.409c-2.602,1.3-1.842,3.467-1.842,3.467
			L15.819,5.462z"/>
	</g>
	<g>
		<path fill="#24A65F" d="M20.912,21.174c-0.976,0-1.842-0.217-2.602-0.758c-0.974-0.651-2.383-0.651-3.467-0.108
			c-1.625,0.975-3.684,0.975-5.309-0.108l-1.408-0.976l0.866-1.301l1.409,0.976c1.084,0.758,2.383,0.758,3.467,0.108
			c1.625-0.976,3.684-0.976,5.201,0.108c0.975,0.649,2.274,0.649,3.251,0.108l1.842-0.976l0.758,1.408l-1.733,0.868
			C22.537,20.957,21.67,21.174,20.912,21.174z"/>
	</g>
</g>
</svg>
