<?xml version="1.0" encoding="utf-8"?>
<!-- Generator: Adobe Illustrator 16.0.0, SVG Export Plug-In . SVG Version: 6.00 Build 0)  -->
<!DOCTYPE svg PUBLIC "-//W3C//DTD SVG 1.1//EN" "http://www.w3.org/Graphics/SVG/1.1/DTD/svg11.dtd">
<svg version="1.1" id="Layer_1" xmlns="http://www.w3.org/2000/svg" xmlns:xlink="http://www.w3.org/1999/xlink" x="0px" y="0px"
	 width="20px" height="20px" viewBox="0 0 20 20" enable-background="new 0 0 20 20" xml:space="preserve">
<path fill="#17733A" d="M19.515,10.002c-0.596-0.611-0.728-1.542-0.328-2.298c0.286-0.539,0.306-1.183,0.055-1.739
	s-0.747-0.962-1.339-1.097c-0.829-0.19-1.44-0.9-1.508-1.755c-0.048-0.609-0.376-1.162-0.887-1.492
	c-0.512-0.331-1.145-0.402-1.715-0.194c-0.8,0.293-1.695,0.028-2.21-0.654C11.216,0.286,10.643,0,10.037,0S8.858,0.286,8.491,0.772
	C7.975,1.454,7.08,1.719,6.28,1.426C5.71,1.217,5.076,1.289,4.566,1.62C4.056,1.95,3.728,2.502,3.679,3.112
	C3.611,3.967,3,4.677,2.171,4.867C1.579,5.002,1.083,5.408,0.832,5.965C0.58,6.521,0.6,7.165,0.886,7.704
	c0.401,0.756,0.268,1.687-0.328,2.299c-0.425,0.436-0.625,1.047-0.538,1.653s0.449,1.136,0.979,1.434
	c0.742,0.417,1.13,1.271,0.957,2.112c-0.124,0.598,0.037,1.22,0.434,1.684c0.398,0.463,0.986,0.71,1.592,0.674
	c0.849-0.055,1.633,0.453,1.938,1.254c0.217,0.571,0.686,1.007,1.268,1.182c0.582,0.171,1.211,0.06,1.699-0.303
	c0.685-0.508,1.618-0.508,2.303,0c0.489,0.362,1.117,0.474,1.699,0.303c0.582-0.175,1.051-0.61,1.269-1.182
	c0.304-0.801,1.088-1.309,1.938-1.254c0.605,0.036,1.193-0.211,1.591-0.674c0.396-0.464,0.559-1.086,0.434-1.684
	c-0.173-0.841,0.214-1.695,0.958-2.112c0.529-0.298,0.892-0.828,0.978-1.434C20.14,11.049,19.941,10.438,19.515,10.002z
	 M8.373,14.966l-4.268-4.304L5.921,8.83l2.451,2.471l5.656-5.703l1.818,1.832L8.373,14.966z"/>
</svg>
