<?xml version="1.0" encoding="utf-8"?>
<!-- Generator: Adobe Illustrator 16.0.0, SVG Export Plug-In . SVG Version: 6.00 Build 0)  -->
<!DOCTYPE svg PUBLIC "-//W3C//DTD SVG 1.1//EN" "http://www.w3.org/Graphics/SVG/1.1/DTD/svg11.dtd">
<svg version="1.1" id="Layer_1" xmlns="http://www.w3.org/2000/svg" xmlns:xlink="http://www.w3.org/1999/xlink" x="0px" y="0px"
	 width="15px" height="15px" viewBox="0 0 15 15" enable-background="new 0 0 15 15" xml:space="preserve">
<path fill="#BC1F3D" d="M13.746,9.359c0.224-0.685,1.323-1.26,1.323-2.019c0-0.759-1.1-1.334-1.323-2.019
	c-0.229-0.709,0.313-1.82-0.115-2.411c-0.436-0.597-1.661-0.42-2.259-0.854c-0.59-0.43-0.8-1.654-1.51-1.885
	C9.179-0.05,8.293,0.81,7.535,0.81c-0.759,0-1.645-0.86-2.329-0.638c-0.71,0.23-0.919,1.455-1.51,1.885
	C3.1,2.491,1.873,2.314,1.438,2.911c-0.43,0.59,0.114,1.702-0.116,2.411C1.1,6.006,0,6.582,0,7.341C0,8.1,1.1,8.675,1.322,9.359
	c0.23,0.709-0.313,1.819,0.116,2.41c0.435,0.597,1.662,0.42,2.258,0.856c0.59,0.428,0.8,1.651,1.51,1.883
	c0.684,0.224,1.57-0.638,2.329-0.638c0.758,0,1.644,0.861,2.328,0.638c0.71-0.229,0.92-1.455,1.51-1.883
	c0.598-0.437,1.823-0.26,2.259-0.856C14.06,11.181,13.518,10.068,13.746,9.359z"/>
<path fill="#FFFFFF" d="M9.076,2.955C8.895,2.987,8.723,3.11,8.609,3.297c-0.148,0.249-1.091,2.15-1.291,2.349
	c-0.199,0.199-0.401,0.295-0.7,0.295v3.982h3.484c0.199,0,0.401-0.146,0.451-0.296c0,0,1.042-2.89,1.042-3.188
	s-0.199-0.498-0.498-0.498H9.605c-0.299,0-0.498-0.248-0.498-0.498c0-0.249,0.398-1.587,0.498-1.835
	c0.05-0.249-0.094-0.554-0.342-0.654C9.201,2.942,9.138,2.943,9.076,2.955L9.076,2.955z M4.628,5.941v3.981h1.493V5.941H4.628z"/>
</svg>
